<svg id="Capa_1" enable-background="new 0 0 512 512" height="512" viewBox="0 0 512 512" width="512" xmlns="http://www.w3.org/2000/svg"><g><path d="m158.384 512h98.374l20.016-51.705-20.016-51.705h-98.374z" fill="#b16e59"/><path d="m256.758 408.59h98.583v103.41h-98.583z" fill="#a55c4f"/><path d="m430.16 296.22c-.342 0-1.384 0-28.388-.249-8.29-.077-14.949-6.859-14.872-15.15.076-8.291-.001-67.682-.001-75.972 0-8.291 6.721-15.012 15.012-15.012h28.25c29.295 0 53.129 23.861 53.129 53.191-.001 29.33-23.835 53.192-53.13 53.192z" fill="#a55c4f"/><path d="m111.283 296.22h-29.442c-29.296 0-53.13-23.861-53.13-53.191s23.834-53.191 53.13-53.191c.928 0 10.214.082 28.388.249 8.29.077 14.948 6.859 14.872 15.15-.075 8.291 1.193 67.682 1.193 75.972.001 8.289-6.72 15.011-15.011 15.011z" fill="#b16e59"/><path d="m113.315 137.751c-8.291 0-15.012 6.721-15.012 15.012 0 4.428-.008 97.995-.021 100.664-.027 5.916-.077 11.583-.126 17.019-.253 28.399-.452 50.829 2.998 70.183 6.317 36.29 24.419 70.301 50.971 95.769 2.014 1.932 4.182 3.896 6.26 5.702 32.39 3.822 61.43 7.004 98.372 7.152l20.016-178.405-20.016-131.81c-70.165-.646-139.314-1.286-143.442-1.286z" fill="#c18678"/><path d="m414.947 250.188c-.002-1.351.142-33.128.258-58.662.1-21.962.16-35.46.16-36.189 0-8.289-6.719-15.006-15.008-15.009-.002 0-.003 0-.004 0-4.16 0-74.389-.649-143.596-1.293v310.215c16.483-4.162 63.842-3.828 98.56-7.384 1.951-1.705 4.024-3.592 5.917-5.408 26.547-25.476 44.547-59.537 50.684-95.908.022-.133.043-.267.062-.4 3.81-26.999 3.553-44.502 3.197-68.726-.097-6.612-.197-13.45-.23-21.236z" fill="#b16e59"/><path d="m158.384 442.098.002.001z" fill="#9ddff6"/><path d="m181.174 295.712-82.873-117.389c-.002 16.046-.004 36.517-.008 52.047l60.091 85.119v126.609c26.858 23.596 62.602 37.259 98.374 37.173l19.258-96.275-19.258-87.331z" fill="#9ddff6"/><path d="m332.536 295.712-75.778-.046v183.605c36.312.413 71.399-13.377 98.56-37.404v-126.372l59.708-84.441c.068-15.242.162-35.982.237-52.337z" fill="#6dabfc"/><path d="m361.251 12.043c-9.841-1.515-79.149-12.043-104.417-12.043-.025 0-.051 0-.076 0v179.805c48.826-.005 97.71-4.43 146.284-13.277 7.136-1.3 12.322-7.516 12.322-14.769l.001-84.31c0-30.141-24.162-54.742-54.114-55.406z" fill="#6dabfc"/><path d="m152.417 12.043c-29.951.664-54.114 25.264-54.114 55.408v84.31c0 7.249 5.181 13.463 12.312 14.767 49.161 8.987 97.984 13.279 146.084 13.279h.059l12.918-89.903-12.918-89.903c-24.571.02-93.768 10.415-104.341 12.042z" fill="#9ddff6"/><path d="m241.822.724v178.934c4.725.087 10.209.143 14.935.149l9.25-89.901-9.25-89.904c-3.893.032-9.483.297-14.935.722z" fill="#6dabfc"/><path d="m271.846 179.653v-178.929c-5.841-.455-10.987-.723-15.012-.723-.269 0 .203-.002-.076 0v179.805h-.059c5.049.001 10.098-.058 15.147-.153z" fill="#6f79e2"/><path d="m309.86 260.157c-8.291 0-15.012-6.721-15.012-15.012v-15.684c0-8.291 6.721-15.012 15.012-15.012s15.012 6.721 15.012 15.012v15.684c0 8.291-6.721 15.012-15.012 15.012z" fill="#38336b"/><path d="m203.365 260.157c-8.291 0-15.012-6.721-15.012-15.012v-15.684c0-8.291 6.721-15.012 15.012-15.012s15.012 6.721 15.012 15.012v15.684c-.001 8.291-6.722 15.012-15.012 15.012z" fill="#524798"/></g></svg>