<svg id="Capa_1" enable-background="new 0 0 512 512" height="512" viewBox="0 0 512 512" width="512" xmlns="http://www.w3.org/2000/svg"><g><path d="m313.729 0c-49.708 0-90.147 40.44-90.147 90.147v333.594c0 32.124-26.135 58.259-58.259 58.259s-58.259-26.135-58.259-58.259v-94.014c0-8.284-6.716-15-15-15s-15 6.716-15 15v94.014c0 48.666 39.593 88.259 88.259 88.259s88.259-39.593 88.259-88.259v-333.594c0-33.166 26.982-60.147 60.147-60.147s60.147 26.982 60.147 60.147v89.228c0 8.284 6.716 15 15 15l10-83.067-10-70.895c-16.16-24.336-43.809-40.413-75.147-40.413z" fill="#bebcdd"/><path d="m403.876 179.375v-89.228c0-18.369-5.528-35.47-15-49.735v153.962c8.284.001 15-6.715 15-14.999z" fill="#9d98ce"/><path d="m93.065 340.499c-41.42 0-75.118-33.698-75.118-75.118s33.698-75.118 75.118-75.118 75.118 33.698 75.118 75.118-33.698 75.118-75.118 75.118z" fill="#e2dff4"/><circle cx="93.065" cy="265.381" fill="#f9f9f9" r="15.029"/><path d="m388.876 285.813h-75.177v-38.051c0-12.243 9.96-22.203 22.203-22.203h22.915c8.284 0 8.284-30 0-30h-22.915c-28.785 0-52.203 23.418-52.203 52.203v178.13c0 8.284 6.716 15 15 15s15-6.716 15-15v-110.079h75.177l10-16.198z" fill="#bebcdd"/><path d="m441.85 195.559h-22.915c-8.284 0-8.284 30 0 30h22.915c12.243 0 22.203 9.96 22.203 22.203v38.051h-75.177v30h75.177v110.079c0 8.284 6.716 15 15 15s15-6.716 15-15v-178.13c0-28.784-23.418-52.203-52.203-52.203z" fill="#9d98ce"/><path d="m448.994 470.941c-24.845 0-45.059-20.213-45.059-45.059 0-24.845 20.213-45.059 45.059-45.059s45.059 20.213 45.059 45.059-20.214 45.059-45.059 45.059z" fill="#bebcdd"/><path d="m328.758 470.951c-24.845 0-45.059-20.213-45.059-45.059 0-24.845 20.213-45.059 45.059-45.059s45.059 20.213 45.059 45.059-20.213 45.059-45.059 45.059z" fill="#e2dff4"/><path d="m358.876 165.636c-8.284 0-15 6.716-15 15v60c0 8.284 6.716 15 15 15h30l10-45-10-45z" fill="#e2dff4"/><path d="m418.876 165.636h-30v90h30c8.284 0 15-6.716 15-15v-60c0-8.284-6.716-15-15-15z" fill="#bebcdd"/></g></svg>