<svg id="Capa_1" enable-background="new 0 0 512 512" height="512" viewBox="0 0 512 512" width="512" xmlns="http://www.w3.org/2000/svg"><g><path d="m146.929 32.664c-81.017 0-146.929 65.912-146.929 146.929 0 36.221 13.175 69.424 34.984 95.066 2.901 3.411 12.675 7.483 12.675 7.483s2.349 7.865 5.451 10.444c25.468 21.182 58.182 33.935 93.819 33.935l10-171.962z" fill="#ffb454"/><path d="m146.929 32.664v293.858c14.892 0 29.59-2.223 43.687-6.608 7.911-2.461 99.906-107.97 101.26-116.143 1.315-7.939 1.982-16.073 1.982-24.178 0-35.521-12.67-68.139-33.729-93.571-3.221-3.89-12.74-.451-16.339-3.99-3.213-3.16-.469-13.334-3.96-16.19-25.332-20.728-57.69-33.178-92.901-33.178z" fill="#ff8659"/><path d="m323.711 212.911c-35.235-35.236-92.569-35.236-127.804 0-35.236 35.236-35.236 92.569 0 127.804l134.226 134.226c2.929 2.929 6.768 4.394 10.607 4.394l20.002-138.83-20.002-110.565z" fill="#ff6c6c"/><path d="m485.573 212.911c-35.235-35.236-92.569-35.236-127.805 0l-17.028 17.029v249.396c3.839 0 7.678-1.464 10.607-4.394l134.226-134.226c35.236-35.236 35.236-92.569 0-127.805z" fill="#e63950"/><path d="m33.141 272.438c6.344 7.761 13.466 14.861 21.244 21.185l92.545-92.506 10-19.129-10-23.291z" fill="#ffe278"/><path d="m239.822 65.844-92.893 92.854v42.42l114.07-114.021c-6.322-7.781-13.418-14.906-21.177-21.253z" fill="#ffb454"/></g></svg>