<svg id="Capa_1" enable-background="new 0 0 512 512" height="512" viewBox="0 0 512 512" width="512" xmlns="http://www.w3.org/2000/svg"><g><path d="m155.295 61.317c-8.284 0-15 6.716-15 15v357.795c0 42.947 34.94 77.888 77.887 77.888h37.818l20-256.617-20-194.066c-48.282 0-96.563 0-100.705 0z" fill="#9ddff6"/><path d="m371.704 76.317c0-8.284-6.716-15-15-15-4.142 0-52.423 0-100.704 0v450.683h37.818c42.947 0 77.887-34.94 77.887-77.888v-12.207l-40-164.056 40-108.814v-72.718z" fill="#6dabfc"/><path d="m271 149.035c-8.284 0-15 6.716-15 15v242.87c0 8.284 6.716 15 15 15h100.704v-122.744l-10-15 10-15v-30.063l-10-13.582 10-16.418v-60.063z" fill="#ffe278"/><path d="m291.352 224.098c0 8.284 6.716 15 15 15h65.352v-30h-65.352c-8.284 0-15 6.716-15 15z" fill="#ffb454"/><path d="m336.384 269.161c-8.284 0-15 6.716-15 15s6.716 15 15 15h35.32v-30z" fill="#ffb454"/><path d="m125.264 0c-8.284 0-15 6.716-15 15v60.063c0 8.284 6.716 15 15 15h55.673l15-12 15 12h30.063l25-47.184-25-42.879h-30.063l-15 10-15-10z" fill="#6f79e2"/><path d="m386.736 0h-55.673l-14.711 13-15.289-13h-30.063l-15 5.56v74.11l15 10.393h30.063l15-12 15 12h55.673c8.284 0 15-6.716 15-15v-60.063c0-8.284-6.716-15-15-15z" fill="#6b61b1"/><path d="m180.937 0h30v90.063h-30z" fill="#6dabfc"/><path d="m301.063 0h30v90.063h-30z" fill="#6f79e2"/><path d="m241 0v90.063h15l10-43.228-10-46.835z" fill="#6dabfc"/><path d="m256 0h15v90.063h-15z" fill="#6f79e2"/></g></svg>