<svg id="Capa_1" enable-background="new 0 0 512 512" height="512" viewBox="0 0 512 512" width="512" xmlns="http://www.w3.org/2000/svg"><g><path d="m382.547 98.264c-25.545 0-46.328 20.782-46.328 46.328 0 6.579 1.387 12.837 3.87 18.51l-54.425 54.426c-5.951 5.951-5.951 15.599 0 21.549 2.975 2.976 6.875 4.463 10.775 4.463s7.799-1.488 10.775-4.463l53.592-53.592c6.488 3.463 13.888 5.434 21.742 5.434 25.545 0 46.328-20.783 46.328-46.327-.001-25.546-20.783-46.328-46.329-46.328z" fill="#ae2538"/><path d="m333.418 371.412c-3.958 0-7.801.501-11.472 1.44l-28.517-43.021c-4.649-7.013-14.105-8.931-21.12-4.282-7.015 4.65-8.932 14.105-4.283 21.12l28.534 43.047c-5.936 7.788-9.47 17.499-9.47 28.024 0 25.545 20.783 46.327 46.327 46.327 25.545 0 46.328-20.783 46.328-46.327s-20.782-46.328-46.327-46.328z" fill="#ae2538"/><path d="m184.875 46.327c0 20.207 13.01 37.423 31.09 43.74v104.059c0 8.416 6.822 15.238 15.238 15.238l10.159-134.604-10.159-74.76c-25.545 0-46.328 20.782-46.328 46.327z" fill="#e63950"/><path d="m231.203 0v209.365c8.416 0 15.238-6.822 15.238-15.238v-104.059c18.08-6.317 31.09-23.533 31.09-43.74 0-25.546-20.782-46.328-46.328-46.328z" fill="#ae2538"/><path d="m176.428 304.852c-3.577-7.618-12.651-10.892-20.271-7.315l-51.132 24.014c-8.475-9.24-20.638-15.044-34.135-15.044-25.545 0-46.328 20.782-46.328 46.328 0 25.545 20.782 46.327 46.328 46.327 25.544 0 46.327-20.783 46.327-46.327 0-1.104-.053-2.195-.129-3.279l52.025-24.434c7.617-3.578 10.892-12.653 7.315-20.27z" fill="#e63950"/><path d="m231.203 179.925c-51.259 0-92.961 41.702-92.961 92.962s41.702 92.962 92.961 92.962l10.159-100.597z" fill="#ff6c6c"/><path d="m324.165 272.887c0-51.259-41.703-92.961-92.962-92.962v185.923c51.259 0 92.962-41.702 92.962-92.961z" fill="#e63950"/><path d="m481.328 272.899c-18.892-17.194-48.25-15.815-65.445 3.078-2.088 2.294-3.92 4.757-5.485 7.356l-135.503-23.607c-8.288-1.441-16.18 4.115-17.62 12.406-1.44 8.292 4.114 16.181 12.406 17.621l134.538 23.439c1.408 10.861 6.55 20.775 14.741 28.231 8.864 8.067 20.029 12.045 31.163 12.045 12.597 0 25.154-5.095 34.281-15.123 17.196-18.894 15.815-48.252-3.076-65.446z" fill="#ae2538"/><g fill="#e63950"><path d="m202.787 235.211-97.427-80.501c10.665-27.835-8.862-59.441-38.591-62.202-40.725-4.386-66.758 43.495-40.865 75.218 13.897 17.819 40.936 22.512 60.033 10.47l97.436 80.509c2.841 2.348 6.28 3.492 9.697 3.492 14.077.063 20.732-17.89 9.717-26.986z"/><path d="m228.079 316.044c2.197-8.124-2.606-16.491-10.73-18.689-8.12-2.199-16.49 2.607-18.688 10.73l-30.164 111.498c-23.342 2.366-41.621 22.133-41.621 46.09 0 25.545 20.783 46.328 46.327 46.328 25.545 0 46.328-20.783 46.328-46.328 0-16.363-8.535-30.761-21.379-39.005z"/></g></g></svg>