<svg id="Capa_1" enable-background="new 0 0 512 512" height="512" viewBox="0 0 512 512" width="512" xmlns="http://www.w3.org/2000/svg"><g><g><path d="m38.372 371.964c-8.284 0-15-6.716-15-15v-175.783c0-8.284 6.716-15 15-15s15 6.716 15 15l89.452 172.285c0 8.284-96.168 18.498-104.452 18.498z" fill="#e2dff4"/></g><g><path d="m473.628 371.964c-8.284 0-101.201-10.214-101.201-18.498l86.201-172.285c0-8.284 6.716-15 15-15s15 6.716 15 15v175.783c0 8.285-6.716 15-15 15z" fill="#bebcdd"/></g><path d="m56.883 90.931c-38.556 16.997-52.444 34.593-53.901 36.544-3.586 4.802-3.97 11.277-.976 16.469l21.448 37.19 19.831 9.944-5.13 15.547 89.813 155.735c4.14 7.177 13.312 9.638 20.488 5.5 3.597-2.074 55.629-2.719 107.544-2.325l20-194.919-20-112.754c-82.348 0-149.342 11.126-199.117 33.069z" fill="#f9f9f9"/><path d="m509.018 127.474c-1.457-1.951-15.347-19.546-53.903-36.543-49.777-21.943-116.769-33.069-199.115-33.069v307.675c51.665.392 103.213 1.812 106.794 3.875 2.359 1.359 4.933 2.005 7.474 2.005 5.188 0 10.235-2.696 13.011-7.515l91.531-158.883-3.899-20.59 18.701-5.104 20.386-35.386c2.99-5.192 2.605-11.666-.98-16.465z" fill="#e2dff4"/><path d="m39.77 169.712c-.959.537-2.574 1.581-16.63 10.877l15.015 26.037c6.387-4.224 14.837-9.814 16.503-10.867 53.647-29.921 119.511-44.466 201.342-44.466l10-17.504-10-12.496c-87.216 0-157.944 15.837-216.23 48.419z" fill="#ff6c6c"/><path d="m474.809 205.019 14.985-26.011c-1.303-.69-17.574-9.307-18.368-9.743-58.103-32.28-128.568-47.972-215.426-47.972v30c81.626 0 147.326 14.457 200.856 44.197.778.431 16.831 8.935 17.953 9.529z" fill="#e63950"/><path d="m241 209.687v26.215h-26.215c-8.284 0-15 6.716-15 15s6.716 15 15 15h26.215v26.215c0 8.284 6.716 15 15 15l10-56.215-10-56.215c-8.284 0-15 6.715-15 15z" fill="#ff6c6c"/><path d="m271 292.117v-26.215h26.216c8.284 0 15-6.716 15-15s-6.716-15-15-15h-26.216v-26.215c0-8.284-6.716-15-15-15v112.431c8.284-.001 15-6.717 15-15.001z" fill="#e63950"/><path d="m38.372 342.547c-8.284 0-15 6.716-15 15v81.59c0 8.284 6.716 15 15 15h217.628l20-55.795-20-55.795z" fill="#bebcdd"/><path d="m473.628 342.547h-217.628v111.59h217.628c8.284 0 15-6.716 15-15v-81.59c0-8.284-6.716-15-15-15z" fill="#9d98ce"/></g></svg>