<svg id="Capa_1" enable-background="new 0 0 512 512" height="512" viewBox="0 0 512 512" width="512" xmlns="http://www.w3.org/2000/svg"><g><path d="m88.165 170.603h339.429v332.771h-339.429z" fill="#f9f9f9"/><path d="m89.113 238.896c-4.114 0-42.99 0-47.103 0-6.468 0-11.711 6.757-11.711 15.091v151.798c0 8.335 5.243 15.091 11.711 15.091h47.103c6.468 0 11.711-6.757 11.711-15.091v-151.797c0-8.335-5.243-15.092-11.711-15.092z" fill="#f9f9f9"/><path d="m469.99 238.896c-4.114 0-42.99 0-47.103 0-6.468 0-11.711 6.757-11.711 15.091v151.798c0 8.335 5.243 15.091 11.711 15.091h47.103c6.468 0 11.711-6.757 11.711-15.091v-151.797c0-8.335-5.243-15.092-11.711-15.092z" fill="#e2dff4"/><path d="m499.989 172.373c0-8.335-5.519-15.091-12.327-15.091h-82.448c-6.808 0-12.327 6.757-12.327 15.091v80.608c0 .17.016.335.021.503-.005.169-.021.333-.021.503 0 8.335 5.519 15.091 12.327 15.091h82.448c6.808 0 12.327-6.757 12.327-15.091 0-.17-.016-.335-.021-.503.005-.169.021-.333.021-.503z" fill="#bebcdd"/><path d="m499.989 406.792c0-8.335-5.519-15.091-12.327-15.091h-82.448c-6.808 0-12.327 6.757-12.327 15.091v80.608c0 .17.016.335.021.503-.005.169-.021.333-.021.503 0 8.335 5.519 15.091 12.327 15.091h82.448c6.808 0 12.327-6.757 12.327-15.091 0-.17-.016-.335-.021-.503.005-.168.021-.333.021-.503z" fill="#bebcdd"/><path d="m119.112 172.373c0-8.335-5.519-15.091-12.327-15.091h-82.447c-6.808 0-12.327 6.757-12.327 15.091v80.608c0 .17.016.335.021.503-.005.169-.021.333-.021.503 0 8.335 5.519 15.091 12.327 15.091h82.448c6.808 0 12.327-6.757 12.327-15.091 0-.17-.016-.335-.021-.503.005-.169.021-.333.021-.503v-80.608z" fill="#e2dff4"/><path d="m119.112 406.792c0-8.335-5.519-15.091-12.327-15.091h-82.447c-6.808 0-12.327 6.757-12.327 15.091v80.608c0 .17.016.335.021.503-.005.169-.021.333-.021.503 0 8.335 5.519 15.091 12.327 15.091h82.448c6.808 0 12.327-6.757 12.327-15.091 0-.17-.016-.335-.021-.503.005-.168.021-.333.021-.503v-80.608z" fill="#e2dff4"/><path d="m235.525 374.152c0-8.211 6.562-14.877 14.726-15.073v-135.278l-10.061-10.061h-59.437c-8.335 0-15.091 6.757-15.091 15.091v274.543h74.528l10.061-10.061v-104.089c-8.164-.195-14.726-6.861-14.726-15.072z" fill="#6f79e2"/><path d="m344.701 228.831c0-8.335-6.757-15.091-15.091-15.091h-59.237l-10.061 10.061v135.278c8.164.196 14.726 6.862 14.726 15.073s-6.562 14.877-14.726 15.073v104.089l10.061 10.061h74.329v-274.544z" fill="#6b61b1"/><path d="m240.19 213.74v145.339c-8.164.196-14.726 6.862-14.726 15.073s6.562 14.877 14.726 15.073v114.15h15.091l10.061-132.496-10.061-157.139z" fill="#6b61b1"/><path d="m270.373 359.079v-145.339h-15.091v289.635h15.091v-114.15c8.164-.196 14.726-6.862 14.726-15.073 0-8.212-6.562-14.878-14.726-15.073z" fill="#524798"/><path d="m131.798 8.502c-4.275 0-8.35 1.814-11.212 4.99l-45.81 50.848h-30.81c-24.243 0-43.966 19.723-43.966 43.967v75.25h255.281l10.061-88.31-10.061-86.745z" fill="#f9f9f9"/><path d="m512 108.307c0-24.243-19.723-43.967-43.967-43.967h-29.803l-45.809-50.848c-2.862-3.176-6.937-4.99-11.212-4.99h-125.928v175.055h256.719c0-6.757 0-75.25 0-75.25z" fill="#e2dff4"/><path d="m246.227 80.939v-7.882c0-8.335-6.757-15.091-15.091-15.091s-15.091 6.757-15.091 15.091v45.947c0 8.335 6.757 15.091 15.091 15.091s15.091-6.757 15.091-15.091v-7.882h9.055l10.061-15.092-10.061-15.091z" fill="#ff6c6c"/><path d="m279.427 57.965c-8.335 0-15.091 6.757-15.091 15.091v7.882h-9.055v30.183h9.055v7.882c0 8.335 6.757 15.091 15.091 15.091s15.091-6.757 15.091-15.091v-45.947c.001-8.334-6.756-15.091-15.091-15.091z" fill="#e63950"/></g></svg>