<svg id="Capa_1" enable-background="new 0 0 512 512" height="512" viewBox="0 0 512 512" width="512" xmlns="http://www.w3.org/2000/svg"><g><path d="m78.511.242c.003 2.432.199 60.003 11.125 97.219 10 34.061 8.275 41.235 4.632 50.119-2.947 7.188-9.08 22.143-12.742 42.112-4.573 24.932-3.669 49.037 2.687 71.645 10.736 45.904 40.969 105.96 20.091 146.303-4.572 6.974-9.757 22.179-12.609 36.975-4.095 21.242-2.967 37.955 3.351 49.675 6.143 11.396 16.966 17.684 30.477 17.708 1.03.001 24.041.002 56.847.002l9.999-242.729-9.999-269.155z" fill="#f2d1a3"/><path d="m425.112 459.176c-10.017-11.408-27.55-11.721-48.886-13.523-33.116-2.797-48.493-10.086-69.206-19.698-14.871-6.901-27.11-10.559-44.313-13.034-6.845-62.388 4.157-213.06 11.064-275.622.919-4.048 3.619-8.242 7.037-13.552 22.108-29.555 25.553-75.675-2.117-105.926l-.266-17.821-96.055.116v511.884c86.376 0 220.684-.002 220.684-.002 23.815.043 41.651-31.114 22.058-52.822z" fill="#edbc85"/><g><path d="m350.124 168.247c-.5.019-20.236-.255-20.773-.247-19.576-.323-19.291-30.137.363-29.995-.001 0 20.241.244 20.241.244 11.944-1.124 20.769-15.022 36.869-15.592 0-.001 18.994-2.018 18.994-2.018 19.485-1.98 22.682 27.668 3.165 29.829.001 0-18.994 2.016-18.994 2.016-4.428.086-12.641 6.731-16.356 8.838-7.032 4.536-15.151 6.925-23.509 6.925z" fill="#ffb454"/></g><g><path d="m386.016 324.943c-25.705-4.831-36.061-5.928-53.375-26.705-2.864-3.82-18.929-8.004-23.12-9.964-7.781-2.84-11.787-11.45-8.947-19.231s11.454-11.786 19.231-8.947c10.936 4.189 26.938 8.251 34.702 17.61 3.764 3.523 9.734 12.207 15.246 12.983 0 0 19.7 4.657 19.7 4.657 17.116 3.895 13.913 29.795-3.437 29.597z" fill="#ffb454"/></g><g><path d="m366.522 239.193c-10.849.168-21.079-5.464-27.932-14.057-2.395-2.972-6.438-.219-9.007.958-7.487 3.542-16.43.342-19.97-7.146-4.576-9.436 1.923-19.002 11.223-21.898 13.668-6.466 29.705-3.306 39.902 7.856 1.739 1.915 4.106 5.329 7.149 4.061 0 0 9.798-3.343 9.798-3.343 18.57-6.252 28.236 21.973 9.685 28.39-6.125 1.987-14.395 5.527-20.848 5.179z" fill="#ffb454"/></g><path d="m174.524 169.82-7.651 23.644c-.684 2.115-.89 4.357-.602 6.562l2.198 16.814-6.648 18.637c-2.783 7.802 1.285 16.383 9.087 19.166 1.666.594 3.366.876 5.039.876 2.245 0 4.436-.513 6.424-1.456l9.999-40.124-9.999-53.038c-3.601 1.709-6.523 4.828-7.847 8.919z" fill="#ff6c6c"/><path d="m193.412 160.168c-3.789-1.226-7.706-.85-11.041.733v93.161c3.468-1.644 6.311-4.606 7.703-8.507l7.862-22.038c.798-2.236 1.053-4.629.746-6.984l-2.229-17.047 6.612-20.431c2.549-7.881-1.772-16.337-9.653-18.887z" fill="#e63950"/></g></svg>