<svg id="Capa_1" enable-background="new 0 0 512 512" height="512" viewBox="0 0 512 512" width="512" xmlns="http://www.w3.org/2000/svg"><g><path d="m294.36 511.982 10.622-7.589-10.622-7.593-15.186 15.186z" fill="#bebcdd"/><g><path d="m366.008 511.964.328-42.075-21.043 10.421-21.043 31.665z" fill="#e2dff4"/><path d="m221.581 374.785v102.972l84.039-84.04z" fill="#f9f9f9"/><path d="m299.01 391.14-4.65-4.64v18.478l14.064-14.064c-3.051.143-6.173.232-9.414.226z" fill="#e2dff4"/><path d="m193.603 285.949c-1.083 11.567-16.812 34.005-16.812 34.005s3.89 18.649-1.337 26.372c3.325 5.573 5.952 9.645 7.325 11.18 6.791 7.523 27.299 19.78 33.205 20.612.994.087 1.889.257 2.85.527 29.165 8.209 54.291 11.927 75.526 12.431l1.805-2.257-1.805-2.32-40.71-51.228z" fill="#e2dff4"/><path d="m294.36 386.5v4.577c1.57.037 3.123.061 4.65.064z" fill="#bebcdd"/><path d="m162.922 241.924-44.463-50.347c-6.267-7.656-24.967-8.919-33.328-.331-8.837 9.077-8.878 25.105-2.954 31.829l67.309 77.051c.847.961 1.577 2.021 2.17 3.157 1.541 2.947 3.143 5.973 4.771 9.017 2.828-9.195 16.088-30.698 16.088-30.698s-9.506-30.285-9.593-39.678z" fill="#f2d1a3"/><path d="m194.595 241.92c.126 3.935-6.991 22.148-6.991 22.148s7.015 11.022 5.999 21.881l100.757 100.551 10.622-25.46-10.622-19.559-42.867-59.789z" fill="#bebcdd"/><path d="m194.839 254.266c-.028-4.275-.117-8.411-.244-12.346l-5.38-3.438c-.02-.02-.041-.036-.061-.055.047.754.151 2.44-3.799 5.623-.918.74-1.927 1.385-3.017 1.917-5.778 2.817-12.683 1.885-17.508-2.362l-1.909-1.681c.181 19.529-1.045 52.659-6.494 70.375 6.642 12.421 13.724 25.139 19.027 34.027 11.083-16.376 16.101-38.484 18.149-60.377 1.017-10.859 1.301-21.658 1.236-31.683z" fill="#f9f9f9"/><path d="m319.848 128.592s-25.73-101.68-25.725-101.859c.265-8.958-7.953-26.729-27.142-26.729-20.295 0-24.938 16.828-25.341 25.493 0 0 1.462 141.716 1.493 142.634.125 3.684-3.525 5.011-4.683.33-5.688-22.995-29.885-110.528-29.885-110.528-2.263-12.735-11.891-23.905-28.149-20.919-15.237 2.799-19.735 15.699-17.746 27.298.029.167 19.973 85.777 27.231 116.129 1.825 7.631-.819 15.31-.892 27.041-.019 3.071-.25 11.822 0 14.785 23.723.523 86.707 13.65 105.35 17.699.001.001 25.52-104.1 25.489-111.374z" fill="#f2d1a3"/><path d="m294.36 261.955 10.622-15.104-10.622-17.006c-40.879-5.092-78.461-6.985-105.35-7.577.168 1.993-.068 12.777.144 16.159.02.019.041.036.061.055l5.38 3.438 12.798 12.772c15.184.609 38.899 11.698 38.899 11.698s35.744-6.024 48.068-4.435z" fill="#e2dff4"/><path d="m417.706 64.648c-18.697-5.239-25.598 6.855-29.728 14.928 0 0-30.754 87.258-30.968 87.815-2.835 7.395-11.337 6.759-11.346-3.286 0-.284.003-140.421.009-140.604.263-8.958-7.639-23.501-27.262-23.501-15.463 0-24.376 14.38-24.636 23.176-.004.16.585 216.792.585 216.792 3.412.741 5.372 1.179 5.372 1.179s69.353 1.38 103.253 10.303c0-23.56-2.411-50.087 0-60.611l30.117-92.461c2.376-11.515.414-28.795-15.396-33.73z" fill="#edbc85"/><path d="m258.637 258.035 5.716 16.338 30.006 19.384 10.622-17.861-10.622-13.942c-12.323-1.588-24.291-2.881-35.722-3.919z" fill="#bebcdd"/><path d="m279.174 511.986 15.186-15.186 10.622-20.513-10.622-26.244-61.955 61.954z" fill="#e2dff4"/><path d="m324.25 511.975 42.086-42.086.354-45.419-40.509 29.887-31.821 42.443v15.182z" fill="#9d98ce"/><path d="m366.69 424.47.368-47.126-42.808 32.186-29.89 40.513v46.757z" fill="#bebcdd"/><path d="m221.581 477.757v34.243l10.824-.003 61.955-61.954 10.622-20.278-10.622-24.787z" fill="#bebcdd"/><path d="m294.36 404.978v45.065l72.698-72.699.081-10.375-33.935-.835z" fill="#9d98ce"/><path d="m330.322 357.398-35.962-15.917v45.019l4.65 4.64c3.241.006 6.363-.083 9.414-.226 11.694-.548 22.013-2.137 30.916-4.545z" fill="#9d98ce"/><path d="m207.394 254.693 86.966 86.788 10.622-25.323-10.622-22.4-35.723-35.723c-18.742-1.701-36.059-2.734-51.243-3.342z" fill="#f9f9f9"/><path d="m339.339 386.368c13.871-3.752 24.372-9.432 31.623-16.008l-25.468-46.712-51.134-29.89v47.723z" fill="#e2dff4"/><path d="m309.735 264.068c-5.182-.76-10.305-1.459-15.375-2.113v31.803l76.603 76.602c1.228-1.114 2.381-2.249 3.423-3.409 3.752-4.181 10.932-12.268 14.359-25.584l-30.621-50.155z" fill="#9d98ce"/><path d="m309.735 264.068c12.171 1.785 37.199 16.94 37.199 16.94s36.09-1.976 52.407 2.45c1.406-10.521 2.634-21.326 3.644-32.009-35.823-9.428-75.348-17.458-108.625-21.604v32.11c5.07.654 10.193 1.353 15.375 2.113z" fill="#bebcdd"/><path d="m388.744 341.367c4.039-15.689 7.695-36.188 10.597-57.909-28.988-7.863-61.762-15.306-89.607-19.39z" fill="#f9f9f9"/></g></g></svg>