<svg id="Capa_1" enable-background="new 0 0 512 512" height="512" viewBox="0 0 512 512" width="512" xmlns="http://www.w3.org/2000/svg"><g><g><path d="m497 465.152h-106.069s-29-6.716-29-15 1-292.089 1-300.374 6.716-15 15-15h89.069c2.961 0 5.856.876 8.32 2.519l30 20c4.173 2.782 6.68 7.466 6.68 12.481v280.374c0 8.285-6.716 15-15 15z" fill="#bebcdd"/></g><g><path d="m120.992 465.152h-105.992c-8.284 0-15-6.716-15-15v-280.373c0-5.015 2.506-9.699 6.68-12.481l30-20c2.464-1.643 5.359-2.519 8.32-2.519h89.992c8.284 0 15 6.716 15 15s0 292.089 0 300.374-29 14.999-29 14.999z" fill="#e2dff4"/></g><g><g><path d="m74.996 231.955c-8.284 0-15-6.716-15-15v-7.176c0-8.284 6.716-15 15-15s15 6.716 15 15v7.176c0 8.284-6.716 15-15 15z" fill="#6dabfc"/></g><g><path d="m74.996 308.24c-8.284 0-15-6.716-15-15v-7.176c0-8.284 6.716-15 15-15s15 6.716 15 15v7.176c0 8.284-6.716 15-15 15z" fill="#6dabfc"/></g><g><path d="m74.996 384.471c-8.284 0-15-6.716-15-15v-7.176c0-8.284 6.716-15 15-15s15 6.716 15 15v7.176c0 8.284-6.716 15-15 15z" fill="#6dabfc"/></g></g><g><g><path d="m436.965 231.955c-8.284 0-15-6.716-15-15v-7.176c0-8.284 6.716-15 15-15s15 6.716 15 15v7.176c0 8.284-6.715 15-15 15z" fill="#6b61b1"/></g><g><path d="m436.965 308.24c-8.284 0-15-6.716-15-15v-7.176c0-8.284 6.716-15 15-15s15 6.716 15 15v7.176c0 8.284-6.715 15-15 15z" fill="#6b61b1"/></g><g><path d="m436.965 384.471c-8.284 0-15-6.716-15-15v-7.176c0-8.284 6.716-15 15-15s15 6.716 15 15v7.176c0 8.284-6.715 15-15 15z" fill="#6b61b1"/></g></g><path d="m185.992 46.848c-3.406 0-6.711 1.159-9.371 3.287l-50 40c-3.558 2.846-5.629 7.156-5.629 11.713v363.305h135.008l20-238.24-20-180.065z" fill="#f9f9f9"/><path d="m390.931 101.848c0-4.557-2.071-8.867-5.629-11.713l-50-40c-2.66-2.128-5.964-3.287-9.371-3.287h-69.931v418.305h134.931z" fill="#e2dff4"/><path d="m255.961 106.848c-8.284 0-15 6.716-15 15v21.209h-21.208c-8.284 0-15 6.716-15 15s6.716 15 15 15h21.208v21.208c0 8.284 6.716 15 15 15 .013 0 .026-.002.039-.002l5-51.207-5-51.207c-.013.001-.026-.001-.039-.001z" fill="#ff6c6c"/><path d="m270.961 194.265v-21.208h21.209c8.284 0 15-6.716 15-15s-6.716-15-15-15h-21.209v-21.209c0-8.271-6.695-14.977-14.961-14.998v102.414c8.266-.022 14.961-6.728 14.961-14.999z" fill="#e63950"/><path d="m197.203 239.265c-8.284 0-15 6.716-15 15s6.716 15 15 15h58.797l5-15-5-15z" fill="#6f79e2"/><path d="m329.72 254.265c0-8.284-6.716-15-15-15h-58.72v30h58.72c8.284 0 15-6.716 15-15z" fill="#6b61b1"/><path d="m197.203 299.265c-8.284 0-15 6.716-15 15s6.716 15 15 15h58.797l10-15.008-10-14.992z" fill="#6f79e2"/><path d="m314.72 299.265h-58.72v30h58.72c8.284 0 15-6.716 15-15s-6.716-15-15-15z" fill="#6b61b1"/><path d="m199.081 374.265v90.887h56.919l20-59.427-20-46.46h-41.919c-8.285 0-15 6.716-15 15z" fill="#6b61b1"/><path d="m312.842 465.152v-90.887c0-8.284-6.716-15-15-15h-41.842v105.887z" fill="#524798"/></g></svg>