<svg id="Capa_1" enable-background="new 0 0 512 512" height="512" viewBox="0 0 512 512" width="512" xmlns="http://www.w3.org/2000/svg"><g><path d="m69.721 218.793-41.835-40.849c-4.324-4.223-10.76-5.441-16.328-3.096-5.57 2.346-9.192 7.802-9.192 13.846v2.626c0 1.21.147 2.416.435 3.592 17.085 69.392 45.797 118.041 87.778 148.728 40.479 29.589 93.048 43.37 165.437 43.37h2.487l10.016-47.925-10.016-44.173c-68.359.066-136.74-25.304-188.782-76.119z" fill="#ff6c6c"/><path d="m511.574 188.487-.539-2.217c-1.274-5.246-5.265-9.404-10.454-10.893s-10.778-.08-14.641 3.691l-41.836 40.849c-51.904 50.681-120.062 76.052-188.243 76.119v92.098h1.947c71.307 0 126.09-14.743 167.48-45.07 43.403-31.804 71.655-80.161 86.368-147.836.485-2.225.456-4.529-.082-6.741z" fill="#e63950"/><g><path d="m45.592 400.373c-12.078.379-19.693-14.947-11.789-24.324l43.554-55.259c5.135-6.517 14.584-7.636 21.099-2.5 6.517 5.136 7.636 14.583 2.499 21.1l-43.554 55.259c-2.964 3.761-7.365 5.724-11.809 5.724z" fill="#524798"/></g><g><path d="m154.328 413.584c-9.821.138-17.35-9.82-14.427-19.242l9.587-32.806c2.327-7.964 10.674-12.536 18.634-10.207 7.965 2.327 12.535 10.671 10.207 18.635l-9.587 32.806c-1.917 6.557-7.912 10.814-14.414 10.814z" fill="#524798"/></g><g><path d="m354.707 413.584c-6.504 0-12.497-4.256-14.414-10.814l-9.587-32.806c-2.328-7.964 2.242-16.308 10.207-18.635 7.96-2.325 16.306 2.242 18.634 10.207l9.587 32.806c2.923 9.422-4.608 19.38-14.427 19.242z" fill="#38336b"/></g><g><path d="m463.522 400.373c-4.445 0-8.844-1.963-11.809-5.724l-43.553-55.259c-5.137-6.517-4.018-15.963 2.499-21.1 6.516-5.135 15.963-4.017 21.099 2.5l43.554 55.259c7.905 9.379.286 24.702-11.79 24.324z" fill="#38336b"/></g><path d="m6.475 179.373c-5.745 5.937-5.633 15.449.251 21.246l41.469 40.849c55.488 54.66 129.24 84.763 207.667 84.763l10.016-73.556-10.016-73.556c0 .001-243.643-5.683-249.387.254z" fill="#ffdede"/><path d="m505.249 179.373c-5.747-5.937-249.387-.253-249.387-.253v147.111c78.427 0 152.178-30.103 207.667-84.763l41.469-40.849c5.884-5.797 5.996-15.309.251-21.246z" fill="#ffbcc5"/><path d="m94.669 179.12c-2.888 2.709-4.742 6.548-4.841 10.856-.029 1.269-.044 2.54-.044 3.816 0 37.072 12.065 72.104 34.891 101.307.598.765 1.258 1.541 1.963 2.294 39.779 18.862 83.717 28.839 129.225 28.839l10.016-58.645-10.016-88.467z" fill="#9ddff6"/><path d="m421.918 191.106c-.077-4.924-2.448-9.252-6.051-11.987h-160.005v147.111c45.662 0 89.744-10.046 129.63-29.032.76-.999 1.494-2.014 2.216-2.95 22.395-29.037 34.232-63.774 34.232-100.457 0-.897-.008-1.791-.022-2.685z" fill="#6dabfc"/><path d="m210.397 175.289c-8.297.083-14.955 6.877-14.872 15.174.325 32.355 27.392 58.677 60.337 58.677l10.016-36.89-10.016-36.891c-20.659-.073-41.306-.121-45.465-.07z" fill="#524798"/><path d="m301.422 175.582c-4.144-.05-24.858-.149-45.561-.222v73.781c15.876 0 30.866-6.007 42.209-16.914 11.425-10.986 17.861-25.679 18.124-41.373.138-8.295-6.475-15.133-14.772-15.272z" fill="#38336b"/><path d="m46.356 137.054-41.836 40.849c-5.832 5.695-6.03 14.969-.538 20.923 2.739 3.676 7.106 6.067 12.042 6.067h239.838l5.008-70.442-5.008-82.161c-79.121.001-153.526 30.103-209.506 84.764z" fill="#ff6c6c"/><path d="m507.203 177.903-41.836-40.849c-55.98-54.66-130.384-84.763-209.505-84.763v152.602h239.838c4.936 0 9.303-2.392 12.042-6.067 5.491-5.954 5.294-15.228-.539-20.923z" fill="#e63950"/><path d="m255.592 359.302c-8.297 0-15.024 6.727-15.024 15.024v70.36c0 8.297 6.727 15.024 15.024 15.024.091 0 .179-.012.27-.014l10.016-50.19-10.016-50.19c-.091-.002-.179-.014-.27-.014z" fill="#524798"/><path d="m255.862 359.316v100.38c8.171-.146 14.754-6.804 14.754-15.01v-70.36c0-8.206-6.583-14.865-14.754-15.01z" fill="#38336b"/></g></svg>