<svg id="Capa_1" enable-background="new 0 0 512 512" height="512" viewBox="0 0 512 512" width="512" xmlns="http://www.w3.org/2000/svg"><g><path d="m102.762 0v133.813c0 8.284 6.716 15 15 15h69.778l10-81.644-10-67.169z" fill="#f2d1a3"/><path d="m272.319 133.813v-133.813h-84.779v148.813h69.778c8.285 0 15.001-6.716 15.001-15z" fill="#edbc85"/><g fill="#f9f9f9"><path d="m69.489 392.007-2.13 21.893c-2.771 28.487 5.152 55.308 21.739 73.585 3.451 3.803 7.207 7.166 11.22 10.107l47.187-37.187 40.035-50.035 10-53.543-10-82.872-61.054 51.055z"/><path d="m146.38 512c.65 0 1.3-.042 1.945-.126.367-.048 18.156-2.367 39.215-4.761l10-24.715-10-29.602-38.822 28.822-18.822 28.822c5.281 1.034 10.786 1.56 16.484 1.56z"/><path d="m79.633 215.237v72.482l-5.573 57.291 36.258-26.258 31.415-41.415-31.415-41.414z"/></g><path d="m281.445 488.876 53.081-43.081 65.595-75.595-6.163-11.427c-2.615-4.849-7.678-7.874-13.188-7.879l-35.47-.034c-5.05 0-10.001-1.384-14.318-4.003-.472-.286-.958-.546-1.458-.779l-24.075-11.19-53.13 43.13-35.866 45.866 33.497 43.497z" fill="#e2dff4"/><path d="m94.633 118.813c-8.284 0-15 6.716-15 15v38.999l38.264 48.264 45.049 35.049 24.595-24.595 10-56.358-10-56.358h-92.908z" fill="#f9f9f9"/><path d="m295.448 166.048-57.247 37.247-50.661 70.661v136.414l53.954-43.953 53.954-63.954z" fill="#e2dff4"/><path d="m357.818 511.887c.61.076 1.225.113 1.839.113 38.516 0 69.852-31.335 69.852-69.852v-13.672c0-2.486-.618-4.933-1.798-7.121l-12.725-23.594-66.559 56.559-41.816 51.816c26.388 2.702 50.76 5.696 51.207 5.751z" fill="#e2dff4"/><path d="m249.042 501.857c.929-.002 1.931.009 2.988.03l-19.886-29.886-36.904-26.904-7.699 7.699v54.317c22.536-2.562 48.818-5.211 61.501-5.256z" fill="#e2dff4"/><path d="m162.946 256.125-83.313-83.313v42.425l62.1 62.1-67.673 67.673-4.571 46.997 118.051-118.051 10-23.636-10-18.79z" fill="#bebcdd"/><path d="m100.318 497.592c8.704 6.377 18.655 10.71 29.578 12.848l57.644-57.644v-42.426z" fill="#bebcdd"/><path d="m400.121 370.2-118.676 118.676-64.992-64.992 88.996-88.996-10.001-4.649v-27.776l-107.908 107.907v42.426l7.699-7.699 56.79 56.79c12.699.256 34.236 2.165 54.581 4.249l108.375-108.375z" fill="#9d98ce"/><path d="m280.448 118.813h-92.908v112.717l52.816-42.816 52.816-62.816c-2.648-4.249-7.349-7.085-12.724-7.085z" fill="#e2dff4"/><g><path d="m409.642 421.977h-15.58c-16.521 0-29.961-13.44-29.961-29.961v-26.122c0-8.284 6.716-15 15-15h30.541c25.112 0 35.542 10.43 35.542 35.542s-10.43 35.541-35.542 35.541z" fill="#edbc85"/></g><path d="m295.448 133.813c0-2.909-.842-5.616-2.275-7.915l-105.633 105.632v42.426l107.907-107.907v-32.236z" fill="#9d98ce"/></g></svg>