<svg id="Capa_1" enable-background="new 0 0 512 512" height="512" viewBox="0 0 512 512" width="512" xmlns="http://www.w3.org/2000/svg"><g><path d="m437.072 67.967c0-18.155-7.07-35.223-19.907-48.06-12.837-12.837-29.905-19.907-48.06-19.907-18.154 0-35.222 7.07-48.059 19.907s-19.907 29.905-19.907 48.06c0 13.034 3.645 25.509 10.451 36.259l-102.845 102.845 9.045 21.955-32.695 1.695-80.869 80.869c-10.75-6.806-23.225-10.451-36.259-10.451-18.155 0-35.223 7.07-48.06 19.907-12.837 12.837-19.907 29.905-19.907 48.06 0 18.154 7.07 35.222 19.907 48.06 12.837 12.837 29.905 19.907 48.06 19.907 2.473 0 4.926-.131 7.351-.39l203.341-183.341 158.023-178.024c.259-2.425.39-4.878.39-7.351z" fill="#f9f9f9"/><path d="m492.093 94.834c-12.837-12.837-29.905-19.907-48.06-19.907-2.473 0-4.926.131-7.351.39l-361.364 361.365c-.259 2.425-.39 4.878-.39 7.352 0 18.154 7.07 35.222 19.907 48.059s29.905 19.907 48.06 19.907c18.154 0 35.222-7.07 48.059-19.907s19.907-29.905 19.907-48.06c0-13.045-3.65-25.529-10.468-36.285l113.07-113.07-4.706-16.294 35.538-14.538 63.452-63.452c10.756 6.817 23.24 10.468 36.285 10.468 18.155 0 35.223-7.07 48.06-19.907 12.838-12.838 19.908-29.906 19.908-48.061 0-18.154-7.07-35.222-19.907-48.06z" fill="#e2dff4"/><path d="m264.323 224.299-55.578-17.228-23.974 23.974 56.294 17.39-8.874 28.565c-.352 1.133-.562 2.29-.639 3.449l24.448-14.449 18.762-28.762c-.539-5.842-4.495-11.071-10.439-12.939z" fill="#bebcdd"/><path d="m274.149 243.059c.603-1.942.788-3.913.612-5.82l-43.21 43.21c-.236 3.535.783 7.083 2.949 9.982 2.834 3.792 7.289 6.02 12.014 6.02.07 0 .142 0 .212-.001l66.752-1.786 30.817-30.817c-16.294.487-77.323 2.314-77.323 2.314z" fill="#9d98ce"/></g></svg>