<svg id="Capa_1" enable-background="new 0 0 512 512" height="512" viewBox="0 0 512 512" width="512" xmlns="http://www.w3.org/2000/svg"><g><path d="m158.926 398.354v113.646h97.831l10-25.772-10-87.874z" fill="#edbc85"/><path d="m256.757 398.354h96.316v113.646h-96.316z" fill="#e9a86c"/><g id="XMLID_6_"><path d="m430.024 296.173c-1.597 0-28.1-.246-28.367-.249-8.284-.077-14.937-6.855-14.859-15.139.076-8.236-.001-67.566-.001-75.85s6.716-15 15-15h28.228c29.272 0 53.088 23.829 53.088 53.119-.001 29.29-23.817 53.119-53.089 53.119z" fill="#e9a86c"/></g><g id="XMLID_5_"><path d="m111.396 296.173h-29.42c-29.273 0-53.088-23.829-53.088-53.119s23.815-53.119 53.088-53.119c.928 0 10.207.082 28.366.249 8.284.077 14.938 6.854 14.861 15.138-.077 8.283 1.192 67.567 1.192 75.852s-6.715 14.999-14.999 14.999z" fill="#edbc85"/></g><path d="m152.248 42.75c-14.584 13.985-26.587 30.56-35.458 48.686-7.265 14.844 6.978 48.064 6.978 48.064s-25.622 33.693-25.613 49.548c.003 5.885.092 11.942.189 18.49.096 6.543.196 13.307.23 21.004-.239 8.472-.513 22.661-.496 30.937-.211 31.271-.41 60.809 3.198 81.024 6.313 36.236 24.402 70.197 50.934 95.626 29.223 28.008 65.327 42.812 104.408 42.812.046 0 .092-.002.139-.002l10-239.639-10-239.3c-23.496 0-53.114 7.172-76.119 20.965-10.034 6.017-19.533 13.293-28.39 21.785z" fill="#f2d1a3"/><path d="m414.823 250.277c.082-10.925.193-31.274.294-41.772.058-6.49.113-12.668.122-18.569.031-19.874-42.669-44.552-42.669-44.552s31.494-39.065 24.199-53.867c-8.932-18.124-20.979-34.707-35.583-48.704-8.842-8.475-18.315-15.741-28.309-21.753-23.035-13.859-48.843-21.06-76.099-21.06-.007 0-.021 478.94-.021 478.94 39.163-.035 75.259-14.814 104.391-42.749 26.528-25.438 44.516-59.448 50.649-95.765.022-.133.043-.267.062-.4 3.807-26.958 3.55-44.433 3.194-68.62-.097-6.578-.197-13.379-.23-21.129z" fill="#edbc85"/><path d="m224.627 267.315 2.405-2.403c5.86-5.855 5.864-15.353.008-21.213-5.855-5.86-15.352-5.863-21.213-.008l-2.421 2.419-2.421-2.419c-5.86-5.855-15.358-5.851-21.213.008-5.855 5.86-5.852 15.358.008 21.213l2.405 2.403-2.405 2.403c-5.86 5.855-5.864 15.353-.008 21.213 2.93 2.932 6.77 4.397 10.611 4.397 3.836 0 7.674-1.463 10.603-4.389l2.421-2.419 2.421 2.419c2.929 2.926 6.766 4.389 10.603 4.389 3.841 0 7.682-1.466 10.611-4.397 5.855-5.86 5.852-15.358-.008-21.213z" fill="#524798"/><path d="m332.361 267.315 2.405-2.403c5.86-5.855 5.864-15.353.009-21.213-5.856-5.86-15.354-5.863-21.214-.008l-2.421 2.419-2.421-2.419c-5.861-5.855-15.358-5.851-21.214.008-5.855 5.86-5.852 15.358.009 21.213l2.405 2.403-2.405 2.403c-5.86 5.855-5.864 15.353-.009 21.213 2.93 2.932 6.771 4.397 10.611 4.397 3.837 0 7.674-1.463 10.603-4.389l2.421-2.419 2.421 2.419c2.929 2.926 6.766 4.389 10.603 4.389 3.841 0 7.682-1.466 10.611-4.397 5.855-5.86 5.852-15.358-.009-21.213z" fill="#38336b"/><path d="m242.083 356.663c-.673 3.179-3.81 5.217-7.001 4.542-2.083-.44-3.229-1.789-3.727-2.553-.496-.762-1.264-2.351-.825-4.422 1.717-8.104-3.461-16.066-11.566-17.783-8.104-1.718-16.066 3.461-17.783 11.566-1.987 9.381-.2 18.973 5.034 27.009 5.23 8.033 13.278 13.55 22.66 15.534 2.495.528 4.984.781 7.438.781 7.439 0 14.543-2.336 20.444-6.425l10-23.895-10-26.387c-7.264 5.034-12.703 12.728-14.674 22.033z" fill="#edbc85"/><path d="m271.432 362.879c.673-3.178 3.814-5.214 7.001-4.542 2.083.44 3.229 1.789 3.727 2.553.496.763 1.264 2.351.824 4.422-1.717 8.104 3.462 16.066 11.566 17.783 8.104 1.721 16.066-3.461 17.783-11.566 1.986-9.38.199-18.973-5.034-27.009-5.231-8.033-13.278-13.55-22.659-15.533-10.059-2.128-20.036.205-27.883 5.644v50.282c7.265-5.035 12.704-12.73 14.675-22.034z" fill="#e79a58"/><path d="m114.034 192.318c2.934 0 5.931-.156 8.938-.516 17.04-2.041 32.75-9.419 35.129-23.46 1.816-10.723 1.651-9.23 3.544-26.702.887-8.183.622-25.59-13.655-36.647-5.217-4.04-10.12-5.641-17.043-8.996-3.321-1.61-8.979-3.214-14.148-4.56-7.266 14.845-12.437 30.726-15.199 47.078-.022.133-.043.266-.062.4-2.804 19.855-3.401 34.571-3.38 50.609 4.28 2.269 8.025 2.794 15.876 2.794z" fill="#e2dff4"/><path d="m399.49 192.318c-2.934 0-5.931-.156-8.938-.516-17.04-2.041-32.75-9.419-35.129-23.46-1.816-10.723-1.651-9.23-3.544-26.702-.887-8.183-.622-25.59 13.655-36.647 5.217-4.04 10.12-5.641 17.043-8.996 3.321-1.61 8.979-3.214 14.148-4.56 7.266 14.845 12.437 30.726 15.199 47.078.022.133.043.266.062.4 2.804 19.855 3.401 34.571 3.38 50.609-4.281 2.269-8.026 2.794-15.876 2.794z" fill="#bebcdd"/></g></svg>