<svg id="Capa_1" enable-background="new 0 0 512.001 512.001" height="512" viewBox="0 0 512.001 512.001" width="512" xmlns="http://www.w3.org/2000/svg"><g><path d="m343.089 166.66c16.688-3.798 29.94-6.546 44.767-2.956 3.338.808 13.251 4.5 16.533 5.512v-125.084c0-8.284-6.716-15-15-15h-118.4c-8.284 0-15 6.716-15 15l.016 53.288c6.433 2.562 12.681 5.312 18.572 8.15 29.767 15.398 57.446 46.356 68.512 61.09z" fill="#ae2538"/><path d="m198.966 72.417c.041-11.166-.045-25.205-.114-36.521-.04-6.554-.074-12.161-.074-15.675 0-8.284-6.716-15-15-15h-104.458c-3.979 0-7.794 1.581-10.607 4.394s-4.394 6.629-4.393 10.608c0 2.438-.115 8.331-.25 15.153-.136 6.905-.302 15.363-.411 23.473-15.758 1.504-29.108 6.82-39.82 15.881-11.227 9.496-18.904 22.963-21.619 37.922-.028.155-.054.312-.077.468-9.258 62.132 11.976 133.175 54.096 180.99 15.209 17.265 32.442 30.721 51.223 39.995 16.011 7.906 32.849 12.616 50.228 14.063 3.533 47.79 20.876 85.472 51.659 112.162 13.218 11.461 28.788 20.803 46.652 28.029l30-213.171-30.001-187.77c-18.793-7.486-39.184-13.353-57.034-15.001z" fill="#ff6c6c"/><path d="m509.88 313.79c-4.98-50.391-18.748-87.184-40.92-109.355-19.895-19.895-37.508-36.869-64.57-45.218-3.282-1.013-13.195-4.704-16.533-5.512-14.828-3.59-28.079-.841-44.767 2.956-11.066-14.734-38.745-45.693-68.512-61.09-5.893-2.839-12.142-5.589-18.577-8.152v400.94c30.319 12.264 67.258 18.422 110.601 18.421 22.042 0 45.74-1.592 71.06-4.78 37.044-3.895 66.675-33.579 70.491-70.651 3.105-30.177 5.928-75.066 1.727-117.559z" fill="#e63950"/><path d="m177.472 177.544c-.364-.982-8.125-20.831-35.865-20.11-3.116-9.244-7.263-15.212-7.665-15.778-12.907-18.163-37.362-.785-24.455 17.378l-.082-.118c.479.705 11.628 17.452 1.033 34.321-4.405 7.016-2.29 16.274 4.726 20.68 2.479 1.557 5.237 2.299 7.963 2.299 4.989 0 9.868-2.488 12.718-7.024 4.668-7.433 7.251-14.775 8.43-21.726 3.274.197 4.99 1.074 5.553 1.662 2.509 5.365 7.887 8.632 13.582 8.632 1.731 0 3.493-.302 5.212-.939 7.767-2.878 11.73-11.51 8.85-19.277z" fill="#e63950"/><path d="m330.862 480.34c-1.693-33.078 5.636-65.213 18.249-79.989 3.847-4.507 10.73-5.189 14.541-5.189h.071c13.572.03 29.201 7.746 38.891 19.199 5.352 6.325 14.817 7.115 21.14 1.764 6.325-5.35 7.115-14.815 1.765-21.14-6.365-7.524-14.1-13.882-22.564-18.771-5.307-4.563-7.386-8.509-7.538-10.725-.037-.539-.148-2.155 2.422-5.045l6.763-6.763c5.858-5.858 5.858-15.355 0-21.213-5.857-5.858-15.355-5.858-21.213 0l-7.03 7.03c-.157.157-.31.316-.46.48-8.437 9.22-10.476 18.45-10.484 25.213-.542-.014-1.083-.028-1.623-.029-.049 0-.095 0-.143 0-15.44 0-28.703 5.577-37.354 15.712-17.807 20.861-27.533 59.608-25.385 101.12.05.967.323 3.908 1.541 16.562.094.979.191 1.987.285 2.968 9.707 1.745 19.878 3.054 30.506 3.928-.1-1.13-.349-3.745-.929-9.769-.539-5.576-1.346-13.959-1.451-15.343z" fill="#ae2538"/><path d="m254.331 375.066c-11.241 26.789-16.477 59.994-14.004 88.82.069.813.954 9.747 1.813 18.201 4.457 2.242 9.089 4.323 13.877 6.26l6-46.954-6-70.186c-.573 1.27-1.138 2.552-1.686 3.859z" fill="#e63950"/><path d="m361.296 286.063c-5.261-6.4-14.714-7.324-21.112-2.063-1.802 1.48-15.687 13.223-23.427 29.41-26.11 7.403-46.938 27.198-60.74 57.797v117.14c5.633 2.278 11.487 4.353 17.576 6.209-.022-.478-.063-.958-.132-1.442-.335-2.568-3.061-29.645-3.244-31.789-1.604-18.699.647-48.13 11.776-74.651 13.917-33.164 34.009-43.128 48.414-45.647 5.633-.985 10.215-5.087 11.816-10.576 2.88-9.876 13.271-20.162 17.038-23.299 6.375-5.265 7.287-14.699 2.035-21.089z" fill="#ae2538"/></g></svg>