<svg id="Capa_1" enable-background="new 0 0 512 512" height="512" viewBox="0 0 512 512" width="512" xmlns="http://www.w3.org/2000/svg"><g><path d="m256 309.19h-91.164l51.64-51.641c5.858-5.858 5.858-15.355 0-21.213-5.857-5.858-15.355-5.858-21.213 0l-98.618 98.619c-5.858 5.858-5.858 15.355 0 21.213 2.929 2.929 6.768 4.394 10.606 4.394s7.678-1.464 10.606-4.394l16.978-16.979h121.165l10-15z" fill="#f9f9f9"/><g><path d="m91.026 420.096c-24.33 0-44.124-19.794-44.124-44.125s19.794-44.125 44.124-44.125c24.331 0 44.125 19.794 44.125 44.125s-19.794 44.125-44.125 44.125z" fill="#524798"/></g><path d="m415.291 334.956-98.074-98.075c-5.857-5.858-15.355-5.857-21.213 0s-5.858 15.355 0 21.213l51.096 51.096h-91.1v30h121.1l16.979 16.979c2.929 2.929 6.768 4.394 10.606 4.394s7.678-1.465 10.606-4.394c5.858-5.857 5.858-15.355 0-21.213z" fill="#e2dff4"/><g><path d="m420.974 420.096c-24.331 0-44.125-19.794-44.125-44.125s19.794-44.125 44.125-44.125c24.33 0 44.124 19.794 44.124 44.125s-19.794 44.125-44.124 44.125z" fill="#38336b"/></g><g><path d="m145.776 201.635c-8.284 0-102.492 0-110.776 0s-15-6.716-15-15v-35.01c0-22.05 17.939-39.99 39.989-39.99h60.798c22.05 0 39.989 17.939 39.989 39.99v35.01c0 8.284-6.715 15-15 15z" fill="#6f79e2"/></g><path d="m240.967 172.696c-12.748-11.353-28.796-20.158-47.008-20.158-19.904 0-36.737 6.759-51.286 20.158h-127.673c-8.284 0-15 6.716-15 15v58.25c0 8.284 6.716 15 15 15h162.736l16.572-10 13.493 10h48.199l10-43.141-10-45.109z" fill="#9ddff6"/><path d="m497 172.696h-6.161c-14.02-13.014-32.543-20.361-51.811-20.361h-3.165c-33.076 0-45.02 20.189-60.621 36.714-11.776-7.286-19.846-36.714-61.486-36.714-15.664 0-28.657 6.674-42.789 20.361h-14.967v88.25h166.474l14.267-10 15.742 10h44.517c8.284 0 15-6.716 15-15v-58.25c0-8.284-6.716-15-15-15z" fill="#6dabfc"/><path d="m390.242 245.945v-73.422c-2.496 0-26.892.156-30 .156v73.265c0 8.284 6.716 15 15 15s15-6.715 15-14.999z" fill="#38336b"/><path d="m240.967 172.696v91.362c0 8.284 6.716 15 15 15 .011 0 .022-.002.033-.002l10-58.597-10-47.763s-12.991 0-15.033 0z" fill="#524798"/><path d="m270.967 264.058v-91.362c-4.967 0-14.967 0-14.967 0v106.36c8.269-.018 14.967-6.725 14.967-14.998z" fill="#38336b"/><path d="m241.764 91.904c-34.729 0-63.067 27.798-63.984 62.31-.015.573-.044 106.732-.044 106.732h30s.021-106.276.055-106.902c.983-17.888 15.843-32.14 33.972-32.14h14.237l10-15.583-10-14.417z" fill="#e2dff4"/><path d="m452.423 153.543c-1.263-34.201-29.463-61.639-63.967-61.639h-132.456v30h132.456c17.975 0 32.729 14.012 33.938 31.685.053.775.09 107.356.09 107.356h30c-.001 0-.032-106.608-.061-107.402z" fill="#bebcdd"/></g></svg>