<svg id="Capa_1" enable-background="new 0 0 512 512" height="512" viewBox="0 0 512 512" width="512" xmlns="http://www.w3.org/2000/svg"><g><path d="m192.077 69.915h-100.782c-8.284 0-15 6.716-15 15v412.085c0 8.284 6.716 15 15 15h164.705l20-246.039-20-196.046c-29.903 0-59.784 0-63.923 0z" fill="#f9f9f9"/><path d="m420.705 69.915h-100.629c-4.146 0-34.122 0-64.076 0v442.085h164.705c8.284 0 15-6.716 15-15v-412.085c0-8.284-6.716-15-15-15z" fill="#e2dff4"/><path d="m241.178 319.288h-79.499c-8.284 0-15-6.716-15-15s6.716-15 15-15h79.499c8.284 0 15 6.716 15 15s-6.716 15-15 15z" fill="#9ddff6"/><path d="m361.06 404.713c-5.848-5.848-15.32-5.857-21.181-.029-5.86-5.826-15.333-5.818-21.181.029-5.847 5.847-5.856 15.32-.029 21.18-5.826 5.86-5.818 15.332.029 21.18 2.93 2.93 6.768 4.394 10.607 4.394 3.825 0 7.649-1.456 10.574-4.364 2.925 2.908 6.749 4.364 10.574 4.364 3.839 0 7.678-1.465 10.607-4.394 5.847-5.848 5.856-15.32.029-21.18 5.826-5.86 5.817-15.333-.029-21.18z" fill="#38336b"/><path d="m212.867 39.876h-19.074c-8.284 0-15 6.716-15 15v69.784c0 8.284 6.716 15 15 15h62.207l7-78.858-7-60.802c-22.716 0-41.399 17.598-43.133 39.876z" fill="#b16e59"/><path d="m333.207 124.66v-69.784c0-8.284-6.716-15-15-15h-19.074c-1.734-22.278-20.417-39.876-43.133-39.876v139.66h62.207c8.284 0 15-6.716 15-15z" fill="#a55c4f"/><path d="m161.679 169.659c-8.284 0-15 6.716-15 15s6.716 15 15 15h94.453l5-15-5-15z" fill="#9ddff6"/><path d="m350.584 169.659h-94.453v30h94.453c8.284 0 15-6.716 15-15s-6.716-15-15-15z" fill="#6dabfc"/><path d="m146.679 244.473c0 8.284 6.716 15 15 15h94.453l10-15-10-15h-94.453c-8.284 0-15 6.716-15 15z" fill="#9ddff6"/><path d="m320.676 259.473c8.284 0 15-6.716 15-15s-6.716-15-15-15h-64.545v30z" fill="#6dabfc"/><path d="m146.679 364.102c0 8.284 6.716 15 15 15h94.453l10-15-10-15h-94.453c-8.284 0-15 6.716-15 15z" fill="#9ddff6"/><path d="m290.676 379.102c8.284 0 15-6.716 15-15s-6.716-15-15-15h-34.545v30z" fill="#6dabfc"/></g></svg>