<svg id="Capa_1" enable-background="new 0 0 512 512" height="512" viewBox="0 0 512 512" width="512" xmlns="http://www.w3.org/2000/svg"><g><path d="m251 65.222v-47.055l-10-10h-65.354c-8.284 0-15 6.716-15 15v116.801c0 8.284 6.716 15 15 15h90.354v-74.746c-8.284 0-15-6.716-15-15z" fill="#6f79e2"/><path d="m63.817 126.35c-3.884 0-7.616 1.507-10.412 4.202l-48.817 47.072c-2.932 2.827-4.588 6.725-4.588 10.798v59.962l10 15-10 15v59.927c0 4.071 1.655 7.967 4.584 10.794l48.817 47.108c2.796 2.698 6.53 4.206 10.416 4.206h15l15-10 15 10h51.828l15.03-10 15.041 10h50.284l15-10 20-124.299-20-139.77z" fill="#9ddff6"/><path d="m351.459 139.968v-116.801c0-8.284-6.716-15-15-15h-65.459l-10 10v47.055c0 8.284 3.284 15-5 15v74.746h80.459c8.285 0 15-6.716 15-15z" fill="#6b61b1"/><path d="m507.494 177.703-48.081-47.072c-2.803-2.744-6.57-4.281-10.494-4.281h-192.919v264.069l10 10h56.109l14.157-10 15.194 10h50.46l15-10 15 10h17c3.925 0 7.694-1.538 10.498-4.286l48.081-47.108c2.88-2.821 4.502-6.683 4.502-10.714v-149.889c-.001-4.033-1.626-7.897-4.507-10.719z" fill="#6dabfc"/><g><circle cx="178.247" cy="464.481" fill="#ffb454" r="14.954"/></g><path d="m266 263.384-10-15h-65.459v-122.034h-30v122.034h-51.723v-27.191c0-8.284-6.716-15-15-15s-15 6.716-15 15v27.191h-78.818v30h160.541v122.035h30v-122.035h65.459z" fill="#6dabfc"/><path d="m93.817 328.363c-8.284 0-15 6.716-15 15v57.056h30v-57.056c0-8.284-6.715-15-15-15z" fill="#6dabfc"/><path d="m416.919 328.363c-8.284 0-15 6.716-15 15v57.056h30v-57.056c0-8.284-6.715-15-15-15z" fill="#6f79e2"/><path d="m512 248.384h-80.081v-27.191c0-8.284-6.716-15-15-15s-15 6.716-15 15v27.191h-50.46v-122.034h-30v122.034h-65.459v30h65.459v122.035h30v-122.035h160.541z" fill="#6f79e2"/><path d="m241 343.363v57.056h15l10-36.028-10-36.028c-8.284 0-15 6.716-15 15z" fill="#6dabfc"/><path d="m271 343.363c0-8.284-6.716-15-15-15v72.056h15z" fill="#6f79e2"/><path d="m230.567 478.227c-5.858 5.857-5.858 15.355 0 21.213 2.929 2.929 6.768 4.394 10.606 4.394s7.678-1.465 10.606-4.394l4.22-4.22 10-18.879-10-23.547z" fill="#ff6c6c"/><path d="m281.433 448.574c-5.857-5.857-15.355-5.857-21.213 0l-4.22 4.22v42.426l25.433-25.433c5.858-5.857 5.858-15.355 0-21.213z" fill="#e63950"/><path d="m241 8.167v57.055c0 8.284 6.716 15 15 15l4-40.202-4-31.853z" fill="#9ddff6"/><path d="m256 8.167v72.055c8.284 0 15-6.716 15-15v-57.055z" fill="#6dabfc"/><path d="m365.201 483.421h-10.229c-6.162 0-11.157-4.995-11.157-11.157v-10.229c0-4.757 3.856-8.614 8.614-8.614h10.229c6.162 0 11.157 4.995 11.157 11.157v10.229c0 4.757-3.856 8.614-8.614 8.614z" fill="#dddde7"/></g></svg>