<svg id="Capa_1" enable-background="new 0 0 512 512" height="512" viewBox="0 0 512 512" width="512" xmlns="http://www.w3.org/2000/svg"><g><g><path d="m41.5 421.007h-26.5c-8.284 0-15-6.716-15-15s6.716-15 15-15h26.5c8.284 0 15 6.716 15 15s-6.715 15-15 15z" fill="#6b61b1"/></g><path d="m240.142 124.523v28.548c0 8.284 6.716 15 15 15l10-36.332-10-22.216c-8.285 0-15 6.716-15 15z" fill="#e63950"/><path d="m270.142 153.071v-28.548c0-8.284-6.716-15-15-15v58.548c8.284 0 15-6.715 15-15z" fill="#ae2538"/><path d="m118.051 138.096c-50.481 0-91.55 41.069-91.55 91.55v128.158l10 15-10 15v45.464c0 8.284 6.716 15 15 15h213.431l20-144.658-20-165.514z" fill="#f9f9f9"/><path d="m400.393 264.126c.995-17.419 8.277-63.857 7.622-64.598-13.345-15.09-31.478-30.828-44.631-41.592-15.634-12.794-35.339-19.84-55.486-19.84h-52.966v310.172h217.861c21.979 0 31.265-12.141 35.184-22.324 4.027-10.464 4.025-22.954 4.023-36.178v-49.078c0-9.422-5.903-19.598-18.947-32.394-2.039-2.001-88.822-41.306-92.66-44.168z" fill="#e2dff4"/><path d="m240.142 43.461v18.117c0 8.284 6.716 15 15 15l10-24.059-10-24.059c-8.285.001-15 6.717-15 15.001z" fill="#e63950"/><path d="m270.142 61.578v-18.117c0-8.284-6.716-15-15-15v48.117c8.284 0 15-6.716 15-15z" fill="#ae2538"/><path d="m167.601 238.869h-12.567v-12.567c0-8.284-6.716-15-15-15s-15 6.716-15 15v12.567h-12.567c-8.284 0-15 6.716-15 15s6.716 15 15 15h12.567v12.567c0 8.284 6.716 15 15 15s15-6.716 15-15v-12.567h12.567c8.284 0 15-6.716 15-15s-6.716-15-15-15z" fill="#ff6c6c"/><g><path d="m159.341 483.539c-33.276 0-60.349-27.072-60.349-60.349s27.072-60.349 60.349-60.349c33.276 0 60.348 27.072 60.348 60.349s-27.072 60.349-60.348 60.349z" fill="#e2dff4"/></g><g><path d="m344.127 483.539c-33.276 0-60.349-27.072-60.349-60.349s27.072-60.349 60.349-60.349 60.349 27.072 60.349 60.349-27.073 60.349-60.349 60.349z" fill="#bebcdd"/></g><g><path d="m199.536 100.626c-3.071 0-6.169-.939-8.838-2.89l-17.873-13.061c-6.689-4.889-8.148-14.272-3.261-20.962s14.272-8.148 20.961-3.261l17.873 13.061c6.689 4.889 8.148 14.272 3.261 20.962-2.937 4.02-7.498 6.151-12.123 6.151z" fill="#ff6c6c"/></g><g><path d="m310.671 100.626c-4.624 0-9.185-2.131-12.123-6.15-4.888-6.689-3.428-16.073 3.261-20.962l18.477-13.502c6.688-4.888 16.072-3.428 20.962 3.261 4.888 6.689 3.428 16.073-3.261 20.962l-18.477 13.501c-2.669 1.951-5.769 2.89-8.839 2.89z" fill="#ae2538"/></g><g><circle cx="434.573" cy="361.594" fill="#ff8659" r="15.371"/></g><path d="m467.074 286.364c-7.671-12.39-40.972-65.743-57.128-84.618-.631-.737-1.286-1.477-1.941-2.218h-100.004c-8.284 0-15 6.716-15 15v78.766c0 8.284 6.716 15 15 15h185.049c-2.04-2.001-4.247-4.064-6.641-6.2-7.787-6.95-15.497-12.867-19.335-15.73z" fill="#6dabfc"/><path d="m71.561 372.804c0-8.284-6.716-15-15-15h-30.061v30h30.061c8.284 0 15-6.716 15-15z" fill="#ffb454"/><g><path d="m239.932 285.749c-8.284 0-15-6.716-15-15v-29.22c0-8.284 6.716-15 15-15s15 6.716 15 15v29.22c0 8.284-6.716 15-15 15z" fill="#ffb454"/></g></g></svg>