<svg id="Capa_1" enable-background="new 0 0 512 512" height="512" viewBox="0 0 512 512" width="512" xmlns="http://www.w3.org/2000/svg"><g><path d="m334.626 324.845-30-322.219c-48.821 10.905-85.424 54.571-85.424 106.631v402.743h85.424z" fill="#f2d1a3"/><path d="m329.769 0h-1.311c-8.184 0-16.158.911-23.832 2.625v509.375h85.424v-60.861l-10-14.382 10-15v-30.75l-10-14.043 10-15.451v-301.232c0-33.239-27.042-60.281-60.281-60.281z" fill="#edbc85"/><g><path d="m225.032 317.385h-97.252c-4.545 0-8.846-2.061-11.692-5.604-2.848-3.543-3.935-8.186-2.956-12.625l20-90.726c1.516-6.875 7.608-11.771 14.648-11.771h77.252c8.284 0 15 6.716 15 15s0 82.441 0 90.726-6.715 15-15 15z" fill="#f9f9f9"/></g><path d="m316.755 376.514c0 8.284 6.716 15 15 15h58.295v-30h-58.295c-8.284 0-15 6.715-15 15z" fill="#e9a86c"/><path d="m341.795 421.757c-8.284 0-15 6.716-15 15s6.716 15 15 15h48.255v-30z" fill="#e9a86c"/><path d="m241.765 200.882c-4.002 0-24.371-18.828-27.061-16.274-2.878 2.733-4.673 6.596-4.673 10.879v113.079l20.249 6.104c0 8.284-.71 16.844-.71 16.844h75.054l20-78.332-20-72.695h-45.773z" fill="#e2dff4"/><path d="m384.22 180.486h-79.594v151.027h79.594c5.683 0 10.628-3.16 13.173-7.82 1.165-2.133-13.084-17.649-13.084-20.25l14.911-16.092v-91.865c0-8.284-6.716-15-15-15z" fill="#bebcdd"/><path d="m390.05 150.486h-65.795c-8.284 0-15-6.716-15-15v-24.854c0-27.785 13.157-50.39 40.942-50.39h23.853c8.284 0 15.946 6.716 15.946 15s.054 70.875.054 75.244z" fill="#e9a86c"/><path d="m259.03 180.486h-33.997c-3.946 0-7.524 1.535-10.202 4.026l79.361 60.504-84.159 63.55v7.948c0 8.284 6.716 15 15 15h4.392l75.202-56.786 10-30.177-10-29.301z" fill="#bebcdd"/><path d="m304.626 215.248v59.479l14.337-10.826 78.428 59.792c1.165-2.133 1.829-4.579 1.829-7.18v-29.149z" fill="#9d98ce"/></g></svg>