<svg id="Capa_1" enable-background="new 0 0 512 512" height="512" viewBox="0 0 512 512" width="512" xmlns="http://www.w3.org/2000/svg"><g><path d="m353.074 512v-113.562l-96.317 10v103.562z" fill="#e9a86c"/><path d="m158.926 512h97.831v-103.562l-97.831-10z" fill="#edbc85"/><g id="XMLID_3_"><path d="m430.024 296.36c-1.185 0-16.08-.135-28.366-.248-8.284-.077-14.938-6.854-14.861-15.138.076-8.236 6.778-14.862 14.997-14.862h.141c16.741.154-.138-45.929-.138-45.929-8.284 0-15-6.716-15-15s6.716-15 15-15h28.228c29.273 0 53.088 23.815 53.088 53.088s-23.816 53.089-53.089 53.089z" fill="#e9a86c"/></g><g id="XMLID_2_"><path d="m111.396 296.36h-29.42c-29.273 0-53.088-23.815-53.088-53.088s23.815-53.088 53.088-53.088c.928 0 10.207.082 28.366.249 8.284.077 14.938 6.854 14.861 15.138s-6.864 14.926-15.138 14.861c-23.311-.215 1.33 45.929 1.33 45.929 8.284 0 15 6.716 15 15s-6.715 14.999-14.999 14.999z" fill="#edbc85"/></g><path d="m113.426 138.223c-8.284 0-15 6.716-15 15 0 4.418 27.982 52.433 27.97 55.096-.011 2.395-27.965 30.127-27.983 34.55-.027 6.478-.104 24.535-.133 27.758-.253 28.332-.453 50.71 2.997 70.02 6.313 36.21 24.404 70.147 50.938 95.558 20.012 19.165 43.399 32.177 68.61 38.454 11.604 2.889 24.46-6.229 35.933-11.223.017-.008 17.722-251.354 17.722-251.354l-17.722-71.72c-69.572-1.07-139.187-2.139-143.332-2.139z" fill="#f2d1a3"/><path d="m415.052 271.598c-.097-6.596-.198-13.417-.23-21.192-.006-1.72-.011-88.771-.011-92.915 0-8.284-6.716-15-15-15-4.139 0-73.575-1.066-143.054-2.132v338.62c39.161-.035 49.484-57.957 49.484-57.957s62.378 7.73 65.875 3.676c20.47-23.731 34.442-53.132 39.68-84.13.023-.133.043-.267.062-.4 3.807-26.938 3.55-44.4 3.194-68.57z" fill="#edbc85"/><path d="m116.344 138.512 83.237 174.44 57.176 94.022 5-38.04-5-26.691-20.507-52.591-77.846-135.453c-18.327-.419-35.174-14.329-42.06-15.687z" fill="#cecedd"/><path d="m113.426 138.223c-8.284 0-15 6.716-15 15 0 1.405-.001 11.81-.002 25.427l81.909 168.646 76.424 131.685 5-44.311-5-27.696-140.413-268.462c-.945-.187-1.919-.289-2.918-.289z" fill="#f9f9f9"/><path d="m98.412 242.868 122.412 231.789c11.558 2.865 23.529 4.323 35.794 4.323.138 0 .001-.001.139-.002l-158.333-300.328c-.003 20.758-.006 48.979-.012 64.218z" fill="#cecedd"/><g><path d="m333.955 260.384c-8.284 0-15-6.716-15-15v-15.646c0-8.284 6.716-15 15-15s15 6.716 15 15v15.646c0 8.284-6.715 15-15 15z" fill="#38336b"/></g><path d="m231.138 155.623c-11.844-.208-23.384-.418-34.196-.626l26.07 61.21 33.745 52.956 5-40.668-5-23.975z" fill="#cecedd"/><path d="m256.757 204.52v64.643l35.444 85.398 57.392 91.793c3.959-3.145 7.813-6.507 11.551-10.088 3.842-3.681 7.498-7.546 10.971-11.567z" fill="#9d9dbc"/><path d="m292.201 474.74c9.831-2.405 19.356-5.83 28.506-10.229l-31.975-73.134-31.975-49.134v64.73l5.764 30.139z" fill="#9d9dbc"/><path d="m196.942 154.997c-14.501-.278-27.689-.549-38.537-.797l98.352 188.044 6-40.167-6-32.914z" fill="#f9f9f9"/><path d="m349.593 446.354-92.836-177.191v73.081l63.95 122.268c10.123-4.867 19.786-10.929 28.886-18.158z" fill="#cecedd"/><path d="m257.031 478.976c12.053-.032 23.814-1.458 35.169-4.236l-35.444-67.766v72.005z" fill="#cecedd"/><path d="m256.595 0c-17.061 0-28.689 5.794-35.477 14.01-6.443-2.205-13.243-3.339-20.198-3.339-11.173 0-26.094 5.941-35.055 15.904-20.964-4.709-40.576 4.702-49.139 9.757-40.812 24.087-46.88 51.911-44.784 71.01 1.588 14.469 20.746 43.267 28.909 54.976 2.805 4.024 7.4 6.422 12.305 6.422h93.344c6.057 1.194 28.912 5.649 50.256 9.176l6-98.169-6-79.744c-.054 0-.105-.003-.161-.003z" fill="#ffb454"/><path d="m394.583 38.865c-7.036-4.152-26.805-12.469-46.786-10.467-9.077-10.408-24.684-17.727-35.526-17.727-6.827 0-13.504 1.093-19.842 3.218-6.46-8.064-17.801-13.85-35.672-13.886v177.913c13.672 2.259 26.724 4.138 34.345 4.534 1.909.099 3.938.146 6.077.146 36.329-.001 103.078-13.55 106.063-14.16 3.791-.774 7.135-2.983 9.335-6.166 8.093-11.705 27.086-40.487 28.671-54.928 4.221-38.445-31.439-59.49-46.665-68.477z" fill="#ff8659"/></g></svg>