<svg id="Capa_1" enable-background="new 0 0 511.998 511.998" height="512" viewBox="0 0 511.998 511.998" width="512" xmlns="http://www.w3.org/2000/svg"><g><path d="m267.473.045c-41.528 1.01-80.812 17.781-110.612 47.227-29.807 29.451-47.042 68.53-48.53 110.041-.561 15.645 1.082 31.185 4.883 46.188.278 1.097.68 2.159 1.196 3.166l106.223 206.938c6.526 27.272 22.097 51.98 43.999 69.756 13.404 10.878 28.871 18.874 45.319 23.611l10-271.897-10-230.966c-14.587-2.947-28.93-4.388-42.478-4.064z" fill="#f2d1a3"/><path d="m258.451 76.206c-24.444 2.716-45.409 14.843-59.031 34.146-12.479 17.683-24.76 49.778-12.411 102.264 1.898 8.065 9.976 13.062 18.037 11.166 8.064-1.897 13.063-9.973 11.166-18.037-7.753-32.948-5.083-59.953 7.72-78.095 8.728-12.369 21.811-19.848 37.832-21.628 19.153-2.128 35.006-1.265 48.188 1.699l10-16.464-10-14.156c-15.526-2.668-32.69-2.986-51.501-.895z" fill="#edbc85"/><path d="m507.951 341.516c-29.191-70.658-23.037-169.781-22.761-173.966.046-.693.039-1.062.039-1.094 0-32.916-15.838-65.771-45.802-95.017-33.869-33.056-82.931-57.933-129.477-67.331v502.863c11.476 3.305 23.429 5.027 35.493 5.027h48.015c37.476 0 67.357-29.334 71.052-69.749 1.137-12.438 11.013-23.331 21.469-34.863 15.054-16.604 33.788-37.268 21.972-65.87zm-52.722-175.06c0-.021-.002-.095 0-.215z" fill="#edbc85"/><path d="m401.566 156.738c-16.851-45.436-47.583-72.069-91.615-79.637v30.62c39.546 8.893 55.052 36.704 63.486 59.448 7.958 21.458 11.849 67.974 10.153 121.394-.062 1.937-.077 4.243-.069 6.819-5.083-1.966-10.6-3.056-16.369-3.056-25.102 0-45.522 20.421-45.522 45.522s20.421 45.522 45.522 45.522c23.001 0 42.06-17.15 45.091-39.333.057-.237.122-.469.168-.711 1.479-7.788 1.052-50.3 1.163-53.812.884-27.804 1.48-96.405-12.008-132.776zm-34.413 196.633c-8.56 0-15.522-6.963-15.522-15.522s6.963-15.522 15.522-15.522 15.522 6.963 15.522 15.522-6.963 15.522-15.522 15.522z" fill="#e9a86c"/><path d="m319.69 205.4c2.49 0 5.016-.621 7.34-1.929 7.221-4.062 9.781-13.207 5.721-20.428-6.924-12.31-14.852-20.275-22.8-25.332v44.104c2.729 2.325 6.198 3.585 9.739 3.585z" fill="#e9a86c"/><path d="m135.681 184.816c-74.638 0-135.361 60.724-135.361 135.363s60.723 135.361 135.361 135.361l20-133.785z" fill="#f9f9f9"/><path d="m271.043 320.179c0-74.638-60.723-135.362-135.362-135.362v270.723c74.639 0 135.362-60.723 135.362-135.361z" fill="#e2dff4"/><path d="m267.11 164.638c0 8.284 6.716 15 15 15 6.141 0 15.36 1.878 24.492 18.113.894 1.589 2.037 2.948 3.349 4.065v-44.104c-9.879-6.286-19.789-8.074-27.841-8.074-8.284 0-15 6.715-15 15z" fill="#edbc85"/><path d="m346.308 250.336c0-8.429-6.833-15.261-15.261-15.261s-15.261 6.833-15.261 15.261c0 8.429 6.833 15.261 15.261 15.261s15.261-6.833 15.261-15.261z" fill="#e9a86c"/><path d="m135.681 246.565c-8.284 0-15 6.716-15 15v43.613h-43.613c-8.284 0-15 6.716-15 15s6.716 15 15 15h43.613v43.613c0 8.284 6.716 15 15 15l10-76.409z" fill="#ff6c6c"/><path d="m194.295 305.179h-43.614v-43.613c0-8.284-6.716-15-15-15v147.227c8.284 0 15-6.716 15-15v-43.613h43.614c8.284 0 15-6.716 15-15s-6.715-15.001-15-15.001z" fill="#e63950"/></g></svg>