<svg id="Capa_1" enable-background="new 0 0 512.001 512.001" height="512" viewBox="0 0 512.001 512.001" width="512" xmlns="http://www.w3.org/2000/svg"><g><path d="m497 481.084h-258.944c-8.284 0-15-6.716-15-15 0-3.936 85.682-19.072 112.796-76.051 29.953-62.944 1.622-168.285 1.622-172.634 0-8.284 6.716-15 15-15h144.526c8.284 0 15 6.716 15 15v47.407c0 4.411-1.941 8.599-5.308 11.448l-46.907 39.71 46.6 37.372c3.539 2.839 5.603 7.125 5.615 11.662.012 4.536-2.029 8.834-5.552 11.69l-46.776 37.932 47.05 40.039c4.788 4.075 6.527 10.703 4.356 16.604-2.171 5.9-7.791 9.821-14.078 9.821z" fill="#9d98ce"/><path d="m176.147 309.726c-153.069 0-156.419-144.853-161.147-144.853-8.284 0-15 6.716-15 15v127.676l10 21.28-10 12.913v7.711c0 72.581 59.049 131.631 131.63 131.631h50.837l20-106.32-20-65.116c-2.082.048-4.184.078-6.32.078z" fill="#f9f9f9"/><path d="m350.852 164.873c-3.511 0-8.861 141.137-168.384 144.775v171.436h51.754c4.251 0 13.71-.82 17.859-1.216 6.107-.583 3.869-12.098 3.869-12.098s24.503 5.2 31.856 1.91c16.847-7.538 31.831-18.516 44.054-32.036 3.149-3.483-1.119-10.938-1.119-10.938s15.646-8.244 18.116-12.606c7.737-13.666 13.101-28.845 15.529-44.972.966-6.42-8.533-12.99-8.533-19.674l10-13.75v-155.83c-.001-8.285-6.717-15.001-15.001-15.001z" fill="#e2dff4"/><path d="m365.852 335.731-74.742-40.946c-7.26-3.988-39.869 12.326-32.608 16.315l105.879 58.028c.966-6.42 1.471-12.989 1.471-19.674z" fill="#bebcdd"/><path d="m0 341.756 182.926 100.223 9-17.001-9-17.206-182.926-100.223z" fill="#e2dff4"/><path d="m252.081 479.868c14.202-1.935 27.689-6.142 40.084-12.245l-109.239-59.851v34.207z" fill="#bebcdd"/><path d="m23.078 179.572c0 71.882 71.361 130.154 159.39 130.154l6-159.033-6-101.275c-88.029 0-159.39 58.272-159.39 130.154z" fill="#f9f9f9"/><path d="m112.509 317.162 69.959 38.421 8-17.111-8-16.482c-15.489-3.87-76.639-8.496-69.959-4.828z" fill="#e2dff4"/><path d="m341.857 179.572c0-71.882-71.361-130.154-159.39-130.154v260.308c88.029 0 159.39-58.272 159.39-130.154z" fill="#e2dff4"/><path d="m349.432 413.055-164.028-90.077c-.581-.32-1.588-.651-2.936-.988v33.593l149.397 82.049c6.75-7.467 12.653-15.711 17.567-24.577z" fill="#bebcdd"/><path d="m30 179.873c0-65.593 68.602-118.957 152.926-118.957l10-16.773-10-13.227c-48.24 0-93.732 15.097-128.095 42.509-35.358 28.206-54.831 66.01-54.831 106.448s19.473 78.242 54.831 106.447c34.363 27.412 79.855 42.509 128.095 42.509l10-15.675-10-14.325c-84.324 0-152.926-53.363-152.926-118.956z" fill="#e2dff4"/><path d="m311.022 73.425c-34.364-27.412-79.855-42.509-128.096-42.509v30c84.324 0 152.926 53.364 152.926 118.957s-68.602 118.956-152.926 118.956v30c48.24 0 93.732-15.097 128.095-42.509 35.358-28.205 54.831-66.009 54.831-106.447s-19.473-78.242-54.83-106.448z" fill="#bebcdd"/><path d="m113.963 179.873c0-28.661 30.937-51.978 68.963-51.979l10-15.708-10-14.292c-25.813 0-50.22 8.13-68.725 22.892-19.5 15.555-30.238 36.539-30.238 59.087s10.739 43.532 30.238 59.087c18.505 14.762 42.912 22.892 68.725 22.892l10-14.632-10-15.368c-38.026 0-68.963-23.317-68.963-51.979z" fill="#e2dff4"/><path d="m251.651 238.96c19.5-15.555 30.238-36.539 30.238-59.087s-10.739-43.532-30.238-59.087c-18.505-14.762-42.912-22.892-68.725-22.892v30c38.026 0 68.963 23.317 68.963 51.979s-30.937 51.979-68.963 51.979v30c25.813 0 50.22-8.13 68.725-22.892z" fill="#bebcdd"/><path d="m161.935 180.31c0 9.248 9.398 16.745 20.991 16.745l10-16.745-10-16.745c-11.593.001-20.991 7.497-20.991 16.745z" fill="#e2dff4"/><path d="m203.917 180.31c0-9.248-9.398-16.745-20.991-16.745v33.489c11.593.001 20.991-7.496 20.991-16.744z" fill="#bebcdd"/></g></svg>