<svg id="Capa_1" enable-background="new 0 0 512 512" height="512" viewBox="0 0 512 512" width="512" xmlns="http://www.w3.org/2000/svg"><g><path d="m100.495 0v73c0 8.284 6.716 15 15 15h140.505l21-47.022-21-40.978c-77.251 0-154.503 0-155.505 0z" fill="#f2d1a3"/><path d="m256 0v88h140.505c8.284 0 15-6.716 15-15v-73c-.727 0-78.116 0-155.505 0z" fill="#edbc85"/><path d="m50.187 60c-8.284 0-15 6.716-15 15v422c0 8.284 6.716 15 15 15h205.813l50-222.987-50-229.013z" fill="#38336b"/><path d="m461.813 60h-205.813v452h205.813c8.284 0 15-6.716 15-15v-422c0-8.284-6.716-15-15-15z" fill="#2b0552"/><path d="m241 15c0 8.284 6.716 15 15 15l11-15-11-15c-8.284 0-15 6.716-15 15z" fill="#edbc85"/><path d="m256 0v30c8.284 0 15-6.716 15-15s-6.716-15-15-15z" fill="#e9a86c"/><path d="m156.687 113.582c-19.494 0-35.646 7.755-46.71 22.427-9.475 12.562-14.482 29.426-14.482 48.766 0 31.205 9.909 55.335 29.451 71.72 10.357 8.683 23.18 14.87 38.302 18.554v92.513h-7.269c-8.284 0-15 6.716-15 15s6.716 15 15 15h7.269v39.132c0 15.307 15 15.307 15 15.307 8.284 0 15-6.716 15-15 0-.124-.016-.245-.019-.368.003-.124.019-.244.019-.368v-38.703h7.27c8.284 0 15-6.716 15-15s-6.716-15-15-15h-7.27v-88.593c2.157.074 4.339.121 6.561.121 1.714 0 3.415-.294 5.03-.868l48.137-17.133c.976-.347 2.001-.52 3.026-.52l8-72.688-8-74.297h-99.315zm14.621 82.047c-8.284 0-15-6.716-15-15s6.716-15 15-15 15 6.716 15 15c0 8.285-6.716 15-15 15z" fill="#f9f9f9"/><path d="m348.753 397.561h7.269c8.284 0 15-6.716 15-15s-6.716-15-15-15h-7.269v-92.513c15.122-3.684 27.945-9.871 38.302-18.554 19.542-16.385 29.451-40.515 29.451-71.72 0-19.34-5.008-36.203-14.482-48.766-11.064-14.672-27.216-22.427-46.71-22.427h-99.314v146.985c1.025 0 2.051.174 3.027.521l48.135 17.132c1.615.574 3.316.868 5.03.868 2.222 0 4.403-.046 6.561-.121v88.593h-7.27c-8.284 0-15 6.716-15 15s6.716 15 15 15h7.27v38.703c0 .124.016.245.019.368-.003.124-.019.244-.019.368 0 8.284 6.716 15 15 15 0 0 15 0 15-15.328 0-4.449 0-39.109 0-39.109zm-23-216.932c0-8.284 6.716-15 15-15s15 6.716 15 15-6.716 15-15 15-15-6.715-15-15z" fill="#e2dff4"/></g></svg>