<svg id="Capa_1" enable-background="new 0 0 512 512" height="512" viewBox="0 0 512 512" width="512" xmlns="http://www.w3.org/2000/svg"><g><path d="m171.52 356.749c-8.284 0-15 6.716-15 15 0 13.078 6.039 26.209 16.214 37.463 18.299 23.544 28.868 48.816 32.226 77.054.897 7.546 7.296 13.229 14.895 13.229h36.145l8-77.494-8-77.988c-40.399.017-81.117 12.736-84.48 12.736z" fill="#ffbebe"/><path d="m338.661 356.749c-4.089 0-43.168-12.737-82.579-12.737-.027 0-.055.001-.082.001v155.482h34.694c8.04 0 14.65-6.339 14.987-14.372 1.084-25.907 6.731-47.149 22.917-68.021 15.542-12.768 25.062-29.052 25.062-45.353.001-8.284-6.715-15-14.999-15z" fill="#ffa5b1"/><path d="m177.306 384.752c-27.588 0-54.147-10.463-71.044-27.989-4.792-4.97-8.824-10.496-12.071-16.509-3.916.812-7.919 1.22-11.988 1.22-34.449 0-62.476-29.89-62.476-66.63 0-11.1 2.529-21.789 7.296-31.316-16.669-12.148-27.023-32.401-27.023-54.942 0-35.72 26.494-64.965 59.624-66.562-.269-3.167-.36-6.371-.36-9.751 0-55.012 49.127-99.767 109.512-99.767 20.494 0 41.077 5.833 59.524 16.869 17.444 10.436 31.978 25.141 40.926 41.406 3.992 7.258 2.837 238.001.389 245.915-13.965 45.16-45.023 68.056-92.309 68.056z" fill="#ff8d8d"/><g fill="#ff6c6c"><path d="m166.687 301.999c-5.149 0-10.163-2.653-12.955-7.417-14.523-24.778-17.177-51.834-7.885-80.417 2.56-7.877 11.022-12.187 18.902-9.628 7.878 2.562 12.189 11.024 9.628 18.903-6.71 20.643-5.046 38.428 5.237 55.972 4.189 7.146 1.792 16.337-5.356 20.525-2.383 1.398-4.994 2.062-7.571 2.062z"/><path d="m151.926 128.15c-4.751 0-9.424-2.251-12.337-6.45-4.723-6.807-3.033-16.152 3.773-20.875 18.905-13.117 39.727-13.115 58.63 0 6.807 4.723 8.496 14.068 3.773 20.875-4.722 6.807-14.068 8.496-20.875 3.773-8.675-6.019-15.753-6.019-24.427 0-2.607 1.809-5.587 2.677-8.537 2.677z"/><path d="m512 188.586c0-35.72-26.494-64.965-59.623-66.562.269-3.167.36-6.371.36-9.751 0-55.012-49.127-99.767-109.512-99.767-32.046-.213-65.576 15.21-87.143 39.634v294.288c4.363 6.595 9.37 12.334 15 17.234 16.102 14.016 37.35 21.09 63.612 21.09 27.589 0 54.147-10.463 71.045-27.989 4.791-4.97 8.823-10.496 12.07-16.509 3.916.812 7.919 1.22 11.987 1.22 34.449 0 62.476-29.89 62.476-66.63 0-11.1-2.528-21.788-7.296-31.315 16.67-12.149 27.024-32.402 27.024-54.943z"/></g><path d="m345.312 301.999c-2.577 0-5.188-.664-7.571-2.062-7.147-4.189-9.545-13.379-5.355-20.525 10.283-17.544 11.947-35.329 5.236-55.972-2.561-7.879 1.75-16.342 9.628-18.903 7.884-2.559 16.342 1.75 18.903 9.628 9.291 28.583 6.638 55.639-7.887 80.417-2.791 4.764-7.805 7.417-12.954 7.417z" fill="#e63950"/><path d="m360.073 128.15c-2.95 0-5.93-.867-8.537-2.677-8.674-6.019-15.749-6.021-24.427 0-6.808 4.724-16.152 3.032-20.875-3.773-4.723-6.807-3.033-16.152 3.773-20.875 18.903-13.114 39.725-13.115 58.63 0 6.807 4.723 8.496 14.068 3.773 20.875-2.912 4.2-7.586 6.45-12.337 6.45z" fill="#e63950"/></g></svg>