<svg id="Capa_1" enable-background="new 0 0 512 512" height="512" viewBox="0 0 512 512" width="512" xmlns="http://www.w3.org/2000/svg"><g><path d="m132.6 233.06h-36.918l-10-5.053v-33.949l10-5.991h36.918l10 5.991v33.949z" fill="#6f79e2"/><path d="m416.318 233.06h-47.221l-10-5.053v-33.949l10-5.991h47.221l10 5.991v33.949z" fill="#6b61b1"/><path d="m251 111.071c-9.375 0-16.975-7.6-16.975-16.975v-59.168c-13.419-4.402-24.56-13.873-31.152-26.139-2.929-5.45-8.678-8.789-14.865-8.789h-21.082c-55.916 0-81.244 45.328-81.244 101.244v92.814h56.588v33.95h-56.588v24.346c0 9.375 7.6 16.975 16.975 16.975h22.969c8.237 0 15.099-5.868 16.645-13.65v238.857c0 9.375 7.6 16.975 16.975 16.975h91.754l.321.49 8.732-294.385z" fill="#9ddff6"/><path d="m426.318 194.058v-92.814c0-55.916-35.328-101.244-91.244-101.244h-21.082c-6.188 0-11.937 3.339-14.865 8.789-6.592 12.266-17.733 21.736-31.152 26.139v59.168c0 9.363-7.581 16.954-16.939 16.973l.194 400.442h91.526c9.375 0 16.975-7.6 16.975-16.975v-237.642c1.988 7.167 8.542 12.435 16.342 12.435h33.271c9.375 0 16.975-7.6 16.975-16.975v-24.346h-66.589v-33.95z" fill="#6dabfc"/><path d="m308.805 161.995c0-9.375-7.6-16.975-16.975-16.975s-16.975 7.6-16.975 16.975c-9.375 0-16.975 7.6-16.975 16.975s7.6 16.975 16.975 16.975c0 9.375 7.6 16.975 16.975 16.975s16.975-7.6 16.975-16.975c9.375 0 16.975-7.6 16.975-16.975s-7.6-16.975-16.975-16.975z" fill="#e63950"/></g></svg>