<svg id="Capa_1" enable-background="new 0 0 511.975 511.975" height="512" viewBox="0 0 511.975 511.975" width="512" xmlns="http://www.w3.org/2000/svg"><g><path d="m257.371 431.484c-.376-8.57-16.556-25.163-24.541-25.163l-63.818 10v31.867l64.237 10c8.428 0 24.523-17.554 24.122-26.704z" fill="#6f79e2"/><path d="m259.334 78.434c0-19.908-18.61-29.568-18.61-29.568 0-19.75 9.302-48.865-11.39-48.865-22.545 0-30.808 18.939-30.808 37.03l.741 156.363-5.225-106.286c-.151-16.54-6.084-44.567-24.923-44.567-22.854 0-29.795 20.756-29.795 34.074v271.082l28.12 60.423c1.03 2.213 1.566 4.652 1.566 7.126v1.076h63.818c7.986 0 14.857 6.593 15.233 15.163.401 9.15-6.386 16.704-14.814 16.704h-64.237v47.854c0 8.8 6.64 15.934 14.831 15.934h76.229l20.208-203.939z" fill="#9ddff6"/><path d="m287.811 433.025c.376 8.57 16.555 25.163 24.542 25.163l30.602-10v-31.867l-31.021-10c-8.429 0-24.524 17.554-24.123 26.704z" fill="#6b61b1"/><path d="m344.791 138.552c-25.016 0-27.879 26.762-27.879 35.562v54.768-54.768l-14.934-71.183c0-13.318 7.026-60.423-15-60.423-22.854 0-27.644 20.771-27.644 35.925 0 0 .318 128.85.318 135.983v297.558h68.481c8.191 0 14.831-7.134 14.831-15.934v-47.854h-.009-30.602c-7.986 0-14.858-6.593-15.233-15.163-.401-9.15 6.386-16.704 14.814-16.704h31.021.009v-1.076c0-2.473.536-4.913 1.566-7.126l28.12-60.423v-165.399c0-13.318 0-43.743-27.859-43.743z" fill="#6dabfc"/><path d="m184.119 208.393c8.284 0 15-6.716 15-15l-.346-117.929c-.151-16.54-9.413-32.964-28.252-32.964-.477 0-.938.022-1.402.04v150.853c0 8.284 6.716 15 15 15z" fill="#6f79e2"/><path d="m229.334 183.393c0 8.284 6.716 15 15 15s15-6.716 15-15v-147.035c0-19.434-9.974-35.838-30-36.358z" fill="#6f79e2"/><path d="m286.978 227.569c0 8.284 6.716 15 15 15 7.841 0 14.267-6.019 14.934-13.686l.066-154.658c-.805-13.273-8.349-31.725-29.097-31.725-.103 0-.801.008-.903.009z" fill="#6b61b1"/></g></svg>