<svg id="Capa_1" enable-background="new 0 0 512 512" height="512" viewBox="0 0 512 512" width="512" xmlns="http://www.w3.org/2000/svg"><g><path d="m28.318 463.329-23.638 22.375c-5.835 5.523-6.239 14.61-1.066 20.643l23.367-16.296 20.701-27.772c-5.744-4.362-13.955-4.071-19.364 1.05z" fill="#9ddff6"/><path d="m4.097 506.913c2.95 3.117 6.92 4.689 10.898 4.689 3.702 0 7.41-1.362 10.311-4.107l23.639-22.375c6.018-5.695 6.278-15.191.582-21.208-.576-.608-1.199-1.142-1.845-1.632l-44.068 44.067c.161.188.311.383.483.566z" fill="#6dabfc"/><path d="m81.59 301.501c-7.799-1.805-15.589 3.053-17.396 10.852l-36.058 155.647c-.936 4.041-.086 8.243 2.247 11.578l69.663-61.178 47.225-55.71c-30.831-30.776-61.855-60.303-65.681-61.189z" fill="#6dabfc"/><path d="m147.271 362.69-116.888 116.888c.481.688 1.02 1.341 1.625 1.946 2.75 2.751 6.451 4.247 10.252 4.247 1.089 0 2.186-.123 3.271-.374l155.647-36.059c7.801-1.808 12.66-9.596 10.852-17.397-.921-3.974-32.736-37.286-64.759-69.251z" fill="#6f79e2"/><path d="m332.051 35.514-265.814 266.818c-5.839 5.862-5.83 15.345.021 21.196l60.088 60.087 166.861-156.962 110.042-119.942z" fill="#9ddff6"/><path d="m126.345 383.615 63.658 63.658c2.813 2.814 6.629 4.394 10.608 4.394h.015c3.984-.004 7.803-1.592 10.614-4.415l263.65-264.657-73.763-73.763z" fill="#6dabfc"/><path d="m409.568.398c-.033 0-.071 0-.105 0-24.38.024-47.441 8.504-65.856 24.039-2.294 1.936-21.456 20.976-21.456 20.976l71.198 71.198 42.674-31.36 44.755-56.069c-19.213-18.576-44.421-28.784-71.21-28.784z" fill="#6dabfc"/><path d="m480.778 29.183-87.428 87.428 73.763 73.763s19.072-19.33 20.914-21.519c33.852-40.224 31.849-100.606-5.98-138.435-.419-.418-.845-.827-1.269-1.237z" fill="#6f79e2"/><path d="m350.784 137.695-176.249 176.25c-5.859 5.858-5.859 15.358 0 21.216.045.045.094.082.139.125l106.64-98.155 90.812-99.297c-.044-.045-.081-.094-.126-.139-5.858-5.858-15.357-5.858-21.216 0z" fill="#ff6c6c"/><path d="m185.143 339.555c3.839 0 7.679-1.465 10.608-4.394l8.469-8.469 12.408 12.408c2.93 2.93 6.769 4.394 10.609 4.394 3.839 0 7.679-1.465 10.608-4.394 5.859-5.858 5.859-15.358 0-21.216l-12.408-12.408 24.815-24.815 12.408 12.407c2.929 2.929 6.769 4.394 10.608 4.394s7.679-1.465 10.609-4.394c5.858-5.858 5.858-15.358 0-21.216l-12.408-12.407 24.816-24.816 12.407 12.408c2.93 2.93 6.769 4.394 10.609 4.394 3.839 0 7.679-1.465 10.608-4.394 5.859-5.858 5.859-15.358 0-21.216l-12.409-12.409 24.815-24.815 12.407 12.408c2.93 2.93 6.769 4.394 10.609 4.394 3.839 0 7.679-1.465 10.608-4.394 5.859-5.858 5.859-15.358 0-21.216l-12.408-12.408 8.469-8.469c5.814-5.814 5.851-15.209.126-21.077l-197.452 197.452c2.912 2.84 6.688 4.268 10.469 4.268z" fill="#e63950"/></g></svg>