<svg id="Capa_1" enable-background="new 0 0 512.021 512.021" height="512" viewBox="0 0 512.021 512.021" width="512" xmlns="http://www.w3.org/2000/svg"><g><path d="m231.402 365.995 24.015-56.335c1.769-4.195-.295-16.432-7.916-19.681-7.621-3.245-16.433.295-19.681 7.917l-49.63 116.424c-22.266 4.784-39.01 24.613-39.01 48.286 0 27.235 22.158 49.394 49.394 49.394s49.394-22.158 49.394-49.394c0-19.828-11.75-36.954-28.648-44.809l9.294-21.801h37.667l10-15.101-10-14.899h-24.879zm-42.828 116.004c-10.694 0-19.394-8.7-19.394-19.394 0-10.679 8.677-19.368 19.351-19.391.012 0 .024.002.035.002.016 0 .032-.002.049-.002 10.674.023 19.352 8.712 19.352 19.391 0 10.694-8.699 19.394-19.393 19.394z" fill="#f9f9f9"/><path d="m216.558 257.674c-29.881 0-58.44-17.279-71.316-46.306l-47.594-107.29c-17.417-39.26.355-85.372 39.617-102.789 3.636-1.615 7.764-1.716 11.477-.285 3.712 1.431 6.704 4.277 8.317 7.914l98.602 222.273c1.613 3.636 1.715 7.765.285 11.477-1.431 3.712-4.278 6.704-7.914 8.317-10.236 4.541-20.938 6.689-31.474 6.689z" fill="#f9f9f9"/><g fill="#e2dff4"><path d="m295.463 257.675c-10.538 0-21.236-2.148-31.474-6.689-3.637-1.613-6.483-4.605-7.915-8.317-1.431-3.712-1.328-7.841.285-11.477l98.602-222.274c1.613-3.637 4.605-6.483 8.317-7.914 3.713-1.431 7.84-1.329 11.478.285 39.262 17.417 57.034 63.528 39.616 102.79l-47.592 107.288c-12.876 29.025-41.438 46.308-71.317 46.308z"/><path d="m373.75 449.391c-3.53-12.713-11.799-23.29-23.284-29.783-4.269-2.413-8.793-4.152-13.445-5.207l-51.772-116.704c-3.357-7.574-12.222-10.983-19.793-7.63-7.573 3.359-10.989 12.222-7.63 19.794l24.902 56.135h-26.447v30h39.756l9.614 21.672c-9.451 4.289-17.286 11.422-22.492 20.63-6.493 11.485-8.125 24.812-4.595 37.523 3.53 12.713 11.799 23.29 23.284 29.783 7.519 4.25 15.825 6.417 24.232 6.417 4.437 0 8.9-.603 13.291-1.822 12.713-3.53 23.29-11.799 29.783-23.284s8.126-24.812 4.596-37.524zm-30.71 22.76c-2.55 4.509-6.702 7.756-11.693 9.142-4.992 1.386-10.225.744-14.734-1.804-4.509-2.55-7.756-6.702-9.142-11.693-1.386-4.992-.745-10.225 1.804-14.734 2.55-4.509 6.702-7.756 11.693-9.142 1.725-.479 3.478-.716 5.22-.716 3.301 0 6.562.852 9.515 2.52 4.509 2.55 7.756 6.702 9.142 11.693 1.384 4.992.743 10.224-1.805 14.734z"/><path d="m206.887 269.385c0 27.235 22.158 49.394 49.394 49.394l7-49.394-7-49.394c-27.236.001-49.394 22.159-49.394 49.394z"/></g><path d="m256.281 219.992v98.787c27.235 0 49.394-22.158 49.394-49.394s-22.159-49.393-49.394-49.393z" fill="#bebcdd"/></g></svg>