<svg id="Capa_1" enable-background="new 0 0 512 512" height="512" viewBox="0 0 512 512" width="512" xmlns="http://www.w3.org/2000/svg"><g><path d="m81.656 72.216c-46.569 46.568-72.216 108.485-72.216 174.344v182.945c0 8.284 6.716 15 15 15h231.56l12-255.087-12-189.418c-65.858 0-127.774 25.646-174.344 72.216z" fill="#ff6c6c"/><path d="m430.344 72.216c-46.57-46.57-108.486-72.216-174.344-72.216v444.505h231.56c8.284 0 15-6.716 15-15v-182.945c0-65.859-25.647-127.776-72.216-174.344z" fill="#e63950"/><path d="m135.265 268.627h-49.875c-8.284 0-15-6.716-15-15s6.716-15 15-15h49.875c8.284 0 15 6.716 15 15s-6.716 15-15 15z" fill="#e63950"/><path d="m426.61 268.627h-49.875c-8.284 0-15-6.716-15-15s6.716-15 15-15h49.875c8.284 0 15 6.716 15 15s-6.715 15-15 15z" fill="#ae2538"/><path d="m173.604 196.009c-3.839 0-7.678-1.465-10.606-4.394l-35.267-35.267c-5.858-5.857-5.858-15.355 0-21.213 5.857-5.857 15.355-5.857 21.213 0l35.267 35.267c5.858 5.857 5.858 15.355 0 21.213-2.929 2.929-6.768 4.394-10.607 4.394z" fill="#e63950"/><path d="m340.775 196.702c-3.839 0-7.678-1.465-10.606-4.394-5.858-5.857-5.858-15.355 0-21.213l35.267-35.267c5.857-5.857 15.355-5.857 21.213 0s5.858 15.355 0 21.213l-35.267 35.267c-2.929 2.929-6.768 4.394-10.607 4.394z" fill="#ae2538"/><path d="m241 103.028v49.874c0 8.284 6.716 15 15 15l5-39.069-5-40.805c-8.284 0-15 6.716-15 15z" fill="#e63950"/><path d="m256 88.028v79.874c8.284 0 15-6.716 15-15v-49.874c0-8.284-6.716-15-15-15z" fill="#ae2538"/><path d="m177.271 283.841c0 19.238 7.119 37.928 19.725 52.241v47.136c0 8.284 6.716 15 15 15h44.004l8-103.306-8-89.8c-43.411 0-78.729 35.318-78.729 78.729z" fill="#e63950"/><path d="m315.004 383.218v-47.243c12.768-14.386 19.725-32.658 19.725-52.134 0-43.411-35.317-78.729-78.729-78.729v193.105h44.004c8.284.001 15-6.715 15-14.999z" fill="#ae2538"/><path d="m196.996 369.214v59.295c0 8.284 6.716 15 15 15h44.004l8-40.992-8-33.303c-28.38 0-56.759 0-59.004 0z" fill="#dddde7"/><path d="m256 369.214v74.295h44.004c8.284 0 15-6.716 15-15v-59.295c-2.298 0-30.651 0-59.004 0z" fill="#babad0"/><path d="m9.44 414.978v82.022c0 8.284 6.716 15 15 15h231.56l30-48.577-30-48.577c-121.209.066-242.417.132-246.56.132z" fill="#38336b"/><path d="m256 414.846v97.154h231.56c8.284 0 15-6.716 15-15 0 0 0-78.132 0-82.286-4.143 0-125.351.066-246.56.132z" fill="#2b0552"/></g></svg>