<svg id="Capa_1" enable-background="new 0 0 512 512" height="512" viewBox="0 0 512 512" width="512" xmlns="http://www.w3.org/2000/svg"><g><path d="m82.401 61.011v351.198h173.599l10-179.758-10-171.44z" fill="#f9f9f9"/><path d="m256 61.011h169.703v351.198h-169.703z" fill="#e2dff4"/><path d="m222.467 121.011c-8.284 0-15 6.716-15 15v52.066h-52.066c-8.284 0-15 6.716-15 15v67.066c0 8.284 6.716 15 15 15h52.066v52.066c0 8.284 6.716 15 15 15h33.533l10-118.967-10-112.231h-33.533z" fill="#ff6c6c"/><path d="m356.599 188.077h-52.065v-52.066c0-8.284-6.716-15-15-15h-33.534v231.198h33.533c8.284 0 15-6.716 15-15v-52.066h52.065c8.284 0 15-6.716 15-15v-67.066c.001-8.284-6.715-15-14.999-15z" fill="#e63950"/><g><path d="m99.135 512h-67.467v-478.266c-.001-18.631 15.102-33.734 33.733-33.734 18.631 0 33.734 15.103 33.734 33.734z" fill="#c18678"/></g><g><path d="m480.333 512h-67.467v-478.266c-.001-18.631 15.102-33.734 33.733-33.734 18.631 0 33.734 15.103 33.734 33.734z" fill="#b16e59"/></g></g></svg>