<svg id="Capa_1" enable-background="new 0 0 511.562 511.562" height="512" viewBox="0 0 511.562 511.562" width="512" xmlns="http://www.w3.org/2000/svg"><g><path d="m423.243 511.562v-190.45c0-8.284 6.716-15 15-15s15 6.716 15 15v190.45c-4.021 0-25.384 0-30 0z" fill="#524798"/><path d="m123.591 145.563c-27.653 0-37.729 13.074-48.397 26.916-2.094 2.718-4.259 5.527-6.732 8.511-2.729 3.292-6.748 6.579-11.004 10.061-13.66 11.174-32.369 26.476-32.369 60.944v72.225c5.211-2.703 9.731 4.949 10.349 4.618 11.463-6.251 40.863-20.802 65.94-20.802.101 0 .199.001.299.001 18.361.085 40.457 8.579 63.907 17.916l11-90.39-11-90z" fill="#9ddff6"/><path d="m273.54 190.679c-4.438-3.47-8.271-6.467-10.944-9.69-2.474-2.984-4.64-5.794-6.733-8.512-10.667-13.841-20.743-26.914-48.396-26.914h-41.884v180.39c1.075.428 2.149.856 3.229 1.286 20.7 8.254 55.409 25.169 74.064 14.677 5.279-12.521 9.595-21.954 19.437-38.92 15.123-26.069 31.148-50.052 31.774-50.959 2.801-4.055 7.063-16.475 11.991-16.475-.351-8.274-19.72-34.864-32.538-44.883z" fill="#6dabfc"/><path d="m438.243 164.156c-8.284 0-15-6.716-15-15v-119.156h-165.923c-8.284 0-15-6.716-15-15s6.716-15 15-15h180.923c8.284 0 15 6.716 15 15v134.156c0 8.284-6.716 15-15 15z" fill="#524798"/><path d="m471.475 333.738h-66.462c-8.284 0-15-6.716-15-15v-63.558c0-8.284 6.716-15 15-15s58.178 0 66.462 0 15 6.716 15 15v63.559c0 8.283-6.716 14.999-15 14.999z" fill="#2b0552"/><path d="m486.475 269.18h-96.462c0-3.123 0-82.912 0-82.912 0-26.595 21.636-48.23 48.23-48.23s48.231 21.636 48.231 48.23c.001 0 .001 78.404.001 82.912z" fill="#38336b"/><path d="m150.584 71.947v113.09c0 8.284 6.715 15 14.999 15l5-62-5-81.09c-8.284.001-14.999 6.716-14.999 15z" fill="#6b61b1"/><path d="m180.584 185.037v-113.09c0-8.284-6.716-15-15-15h-.001v143.09h.001c8.284 0 15-6.716 15-15z" fill="#524798"/><path d="m101.785 298.037c-.099 0-.197-.001-.297-.001-15.668 0-33.085 5.734-46.401 11.358-6.456 2.727-19.577 8.979-30 14.042v173.126c0 8.284 6.716 15 15 15h125.495l20-102.725-20-92.928c-23.409-9.319-45.465-17.787-63.797-17.872z" fill="#6f79e2"/><path d="m77.512 0c-8.284 0-15 6.716-15 15 0 54.599 44.42 69.019 99.019 69.019h4.053l6-33.764-6-50.255z" fill="#524798"/><path d="m277.423 304.797c-3.26 4.262-24.065 30.04-49.904 30.04-14.463 0-36.899-8.946-58.597-17.598-1.117-.445-2.228-.888-3.339-1.33v195.653h125.495c8.284 0 15-6.716 15-15v-227.978c-5.526 6.983-28.412 35.896-28.655 36.213z" fill="#6b61b1"/><path d="m268.655 15c0-8.284-6.716-15-15-15h-88.072v84.019h4.054c54.598 0 99.018-14.42 99.018-69.019z" fill="#38336b"/><path d="m294.363 241.709c-.594.86-14.722 21.36-29.078 46.106-20.456 35.262-30.399 60.087-30.399 75.894 0 39.255 31.936 71.192 71.192 71.192l10-90.921-10-108.418c-4.677 0-9.057 2.298-11.715 6.147z" fill="#9ddff6"/><path d="m346.871 287.815c-14.355-24.746-28.483-45.246-29.078-46.106-2.659-3.849-7.038-6.146-11.715-6.146v199.338c39.256 0 71.192-31.937 71.192-71.192 0-15.807-9.943-40.632-30.399-75.894z" fill="#6dabfc"/></g></svg>