<svg id="Capa_1" enable-background="new 0 0 512 512" height="512" viewBox="0 0 512 512" width="512" xmlns="http://www.w3.org/2000/svg"><g><path d="m144.676 512c-3.839 0-7.678-1.465-10.606-4.394-5.858-5.857-5.858-15.355 0-21.213l31.689-31.689c5.857-5.857 15.355-5.857 21.213 0s5.858 15.355 0 21.213l-31.689 31.689c-2.929 2.929-6.768 4.394-10.607 4.394z" fill="#a55c4f"/><g><path d="m336.008 61.315c-3.839 0-7.678-1.465-10.606-4.394-5.858-5.857-5.858-15.355 0-21.213l31.315-31.315c5.857-5.857 15.355-5.857 21.213 0s5.858 15.355 0 21.213l-31.315 31.315c-2.929 2.929-6.768 4.394-10.607 4.394z" fill="#b16e59"/><path d="m15 382.324c-3.839 0-7.678-1.465-10.606-4.394-5.858-5.857-5.858-15.355 0-21.213l31.558-31.558c5.857-5.857 15.355-5.857 21.213 0s5.858 15.355 0 21.213l-31.558 31.558c-2.929 2.929-6.768 4.394-10.607 4.394z" fill="#b16e59"/><path d="m466.212 190.465c-3.839 0-7.678-1.465-10.606-4.394-5.858-5.857-5.858-15.355 0-21.213l30.788-30.789c5.858-5.857 15.356-5.857 21.213 0 5.858 5.857 5.858 15.355 0 21.213l-30.789 30.789c-2.929 2.929-6.768 4.394-10.606 4.394z" fill="#a55c4f"/><path d="m345.064 37.259c-5.857-5.857-15.355-5.857-21.213 0l-286.591 286.592c-5.858 5.857-5.858 15.355 0 21.213l64.836 64.836 169.045-139.045 138.76-168.76z" fill="#9ddff6"/><path d="m409.9 102.095-307.804 307.805 64.84 64.84c2.929 2.929 6.768 4.394 10.606 4.394 3.839 0 7.678-1.465 10.606-4.394l286.592-286.592c5.858-5.857 5.858-15.355 0-21.213z" fill="#6dabfc"/><path d="m329.734 128.63c-8.176-1.285-15.868 4.279-17.168 12.461s4.278 15.867 12.46 17.168c8.682 1.38 15.17 4.216 19.833 8.877l13.24-7.24 8-14c-9.022-9.021-21.227-14.86-36.365-17.266z" fill="#6dabfc"/><path d="m366.099 145.897-21.24 21.24c4.664 4.663 7.502 11.152 8.882 19.838 1.173 7.385 7.548 12.647 14.795 12.647.782 0 1.576-.062 2.373-.188 8.182-1.301 13.76-8.987 12.459-17.169-2.405-15.139-8.245-27.346-17.269-36.368z" fill="#6f79e2"/><path d="m141.09 312.565c-8.182 1.301-13.76 8.987-12.459 17.169 2.406 15.137 8.245 27.343 17.266 36.365l21.24-1.24v-20c-4.662-4.663-7.498-11.151-8.878-19.834-1.301-8.182-8.988-13.753-17.169-12.46z" fill="#6dabfc"/><path d="m182.266 383.369c.797.126 1.59.188 2.373.188 7.246 0 13.622-5.264 14.795-12.648 1.3-8.182-4.278-15.867-12.46-17.168-8.685-1.38-15.174-4.217-19.837-8.881l-21.24 21.24c9.023 9.023 21.229 14.863 36.369 17.269z" fill="#6f79e2"/></g></g></svg>