<svg id="Capa_1" enable-background="new 0 0 512.001 512.001" height="512" viewBox="0 0 512.001 512.001" width="512" xmlns="http://www.w3.org/2000/svg"><g><path d="m323.859 323.812c-36.843 36.843-73.692 73.693-76.622 76.622-5.858 5.857-5.858 15.355 0 21.213l61.751 61.751c18.443 18.444 42.966 28.603 69.051 28.603 26.084 0 50.606-10.158 69.051-28.603l18.177-18.177-55.538-122.538z" fill="#edbc85"/><path d="m483.398 447.09c18.444-18.444 28.603-42.967 28.603-69.051 0-26.085-10.158-50.607-28.603-69.051l-61.751-61.751c-5.857-5.857-15.355-5.857-21.213 0-2.929 2.928-39.749 39.748-76.576 76.575l141.408 141.408z" fill="#e9a86c"/><path d="m28.602 64.911c-38.075 38.075-38.075 100.027 0 138.103l62.305 62.305c2.929 2.929 6.768 4.394 10.606 4.394s7.678-1.465 10.606-4.394c2.93-2.929 39.68-39.879 76.424-76.821l-34.3-102.3-107.463-39.464z" fill="#edbc85"/><path d="m264.923 90.512-61.91-61.909c-18.444-18.445-42.967-28.603-69.051-28.603s-50.607 10.158-69.051 28.603l-18.131 18.131 141.764 141.764c36.728-36.926 73.449-73.845 76.379-76.773 5.857-5.858 5.857-15.356 0-21.213z" fill="#e9a86c"/><path d="m447.09 28.603c-18.445-18.445-42.967-28.603-69.051-28.603-26.085 0-50.607 10.158-69.051 28.603l-280.386 280.385c-18.444 18.444-28.602 42.966-28.602 69.051 0 26.084 10.158 50.606 28.602 69.051l18.178 18.177 236.536-165.536 181.951-252.951z" fill="#f4ddc6"/><path d="m465.267 46.78-418.487 418.487 18.131 18.131c18.444 18.444 42.967 28.603 69.051 28.603s50.607-10.158 69.051-28.603l280.385-280.385c38.075-38.075 38.075-100.027 0-138.103z" fill="#f2d1a3"/><path d="m147.879 316.807-.058.208c6.79-23.726-22.052-31.979-28.842-8.254-.406 1.42-9.585 35.031 19.718 64.589l14.215-6.215 7-15c-16.501-16.737-12.225-34.573-12.033-35.328z" fill="#edbc85"/><path d="m138.957 373.615c18.026 18.026 37.269 21.766 50.132 21.766 8.651 0 14.417-1.691 14.986-1.866 19.947-6.106 11.167-34.791-8.78-28.686l.226-.066c-.738.198-18.297 4.692-35.351-12.36-.089-.089-.169-.179-.257-.268l-21.215 21.215c.087.088.171.177.259.265z" fill="#e9a86c"/><path d="m308.498 119.058c-7.922 2.424-12.378 10.812-9.953 18.732s10.812 12.383 18.732 9.953c.174-.052 17.681-4.777 34.857 12.17l13.215-7.215 8-14c-30.082-29.831-63.442-20.075-64.851-19.64z" fill="#edbc85"/><path d="m373.35 138.698-21.215 21.215c.089.088.179.168.268.257 16.813 16.813 12.483 34.837 12.291 35.597l.058-.208c-5.283 18.461 23.559 26.715 28.842 8.254.408-1.425 9.645-35.233-19.978-64.855-.089-.089-.178-.173-.266-.26z" fill="#e9a86c"/><path d="m296.332 194.456c-5.858 5.858-5.858 15.355 0 21.213.008.008.017.014.024.022l12.211-7.211 9-14c-.008-.008-.014-.017-.022-.024-5.858-5.858-15.355-5.858-21.213 0z" fill="#edbc85"/><path d="m317.545 215.669c5.85-5.85 5.856-15.329.022-21.189l-21.211 21.211c5.86 5.835 15.339 5.828 21.189-.022z" fill="#e9a86c"/><path d="m245.394 245.394c-5.858 5.858-5.858 15.355 0 21.213.008.008.017.014.024.022l11.585-6.585 9.626-14.626c-.008-.008-.014-.017-.022-.024-5.858-5.858-15.355-5.858-21.213 0z" fill="#edbc85"/><path d="m266.607 266.607c5.85-5.85 5.856-15.329.022-21.189l-21.211 21.211c5.86 5.835 15.339 5.828 21.189-.022z" fill="#e9a86c"/><path d="m194.456 296.332c-5.858 5.858-5.858 15.355 0 21.213.008.008.017.014.024.022l13.211-7.211 8-14c-.008-.008-.014-.017-.022-.024-5.858-5.858-15.355-5.858-21.213 0z" fill="#edbc85"/><path d="m215.669 317.545c5.85-5.85 5.856-15.329.022-21.189l-21.211 21.211c5.86 5.835 15.339 5.828 21.189-.022z" fill="#e9a86c"/></g></svg>