<svg id="Capa_1" enable-background="new 0 0 512 512" height="512" viewBox="0 0 512 512" width="512" xmlns="http://www.w3.org/2000/svg"><g><path d="m134.779 260.778v236.222c0 8.284 6.716 15 15 15h106.221l20-158.32-20-92.902z" fill="#f9f9f9"/><path d="m256 260.778v251.222h106.221c8.284 0 15-6.716 15-15v-236.222z" fill="#e2dff4"/><path d="m205.423 111.579c-16.196-19.194-18.275-46.001-5.174-66.707 3.516-5.554 10.804-14.872 20.125-14.872h35.626l9-16.016-9-13.984h-35.626c-17.56 0-33.709 10.238-45.475 28.83-9.885 15.622-14.336 33.722-12.87 52.342 1.447 18.397 8.525 35.601 20.467 49.754l62.041 73.524c2.85 3.377 7.045 5.326 11.464 5.326l9-22.729-9-15.531z" fill="#e2dff4"/><path d="m337.1 28.829c-11.764-18.591-27.914-28.829-45.474-28.829h-35.626v30h35.626c9.32 0 16.609 9.317 20.123 14.871 13.102 20.706 11.024 47.514-5.173 66.708l-50.576 59.938v38.26c4.419 0 8.614-1.949 11.464-5.326l62.041-73.524c11.943-14.153 19.02-31.358 20.467-49.754 1.465-18.621-2.986-36.72-12.872-52.344z" fill="#bebcdd"/><path d="m189.768 315.778c0 8.284 6.716 15 15 15h51.232l7-15-7-15h-51.231c-8.285 0-15.001 6.716-15.001 15z" fill="#6f79e2"/><path d="m307.231 330.779c8.284 0 15-6.716 15-15s-6.716-15-15-15h-51.231v30z" fill="#6b61b1"/><path d="m241 386.999v15h-15c-8.284 0-15 6.716-15 15s6.716 15 15 15h15v15c0 8.284 6.716 15 15 15l6-45-6-45c-8.284 0-15 6.716-15 15z" fill="#ff6c6c"/><path d="m256 462c8.284 0 15-6.716 15-15v-15h15c8.284 0 15-6.716 15-15s-6.716-15-15-15h-15v-15c0-8.284-6.716-15-15-15z" fill="#e63950"/><path d="m149.779 180.777c-8.284 0-15 6.716-15 15v75.001h121.221l8-45-8-45h-106.221z" fill="#9ddff6"/><path d="m377.221 195.777c0-8.284-6.716-15-15-15h-106.221v90.001h121.221z" fill="#6dabfc"/></g></svg>