<svg id="Capa_1" enable-background="new 0 0 512 512" height="512" viewBox="0 0 512 512" width="512" xmlns="http://www.w3.org/2000/svg"><g><path d="m410.104 215.167c-20.512-17.124-39.887-33.299-51.474-48.099-14.786-18.886-44.109-101.676-60.71-154.186v-12.692h-297.352v323.69l192.423 12.995 203.648-12.995 49.181-34.489c-9.227-29-11.864-34.273-21.036-61.899-4.762-4.04-9.887-8.323-14.68-12.325z" fill="#f2d1a3"/><path d="m.568 323.88v188.12h318.508v-44.343c5.231.401 10.477.602 15.703.602 44.686 0 85.337-14.643 114.467-41.232 28.78-26.27 44.63-62.194 44.63-101.155 0-.666-.013-1.33-.035-1.993h-493.273z" fill="#edbc85"/><path d="m495.696 310.027-3.887.193c-5.8-22.158-23.211-42.838-44.457-62.755-7.185-6.736-14.807-13.384-22.569-19.973-3.399 5.183-9.738 14.946-12.625 19.36-7.56 11.556-16.585 37.247-15.535 66.621.118 3.293.354 6.774.746 10.407l48.055 9.996 65.951-9.996c-.607-8.085-7.562-14.28-15.679-13.853z" fill="#edbc85"/><g fill="#e9a86c"><path d="m397.369 323.88c2.714 25.204 12.907 57.742 43.103 85.972.142.132 7.875 6.827 14.017 12.14 7.143-7.221 13.369-15.087 18.643-23.467 11.043-17.543 17.877-37.359 20.015-58.345l4.032-.2c8.271-.41 14.644-7.446 14.234-15.718-.006-.129-.029-.253-.038-.382z"/><path d="m270.862 311.634c6.528-1.023 10.99-7.145 9.967-13.672-1.023-6.528-7.145-10.99-13.672-9.967l-7.336 1.15c-.605-8.087-.556-16.291.144-24.626l11.313-1.774c6.528-1.023 10.99-7.145 9.967-13.672-1.023-6.529-7.148-10.987-13.672-9.967l-3.683.577c.368-1.607.753-3.217 1.166-4.834 1.636-6.402-2.228-12.917-8.63-14.553-6.397-1.634-12.917 2.228-14.553 8.63-1.259 4.929-2.328 9.833-3.21 14.712l-12.187 1.911c-6.528 1.023-10.99 7.145-9.967 13.672.925 5.9 6.015 10.112 11.805 10.112.616 0 1.24-.048 1.868-.146l5.623-.882c-.417 8.264-.267 16.443.437 24.535l-10.181 1.596c-6.528 1.023-10.99 7.145-9.967 13.672.925 5.9 6.015 10.112 11.805 10.112.616 0 1.24-.048 1.868-.146l10.181-1.596c.567 2.484 1.195 4.958 1.871 7.423l11.811 3.999 13.043-3.999c-1.193-3.685-2.245-7.391-3.144-11.12z"/><path d="m247.047 339.967-5.626.882c-6.528 1.023-10.99 7.145-9.967 13.672.925 5.9 6.015 10.112 11.805 10.112.616 0 1.24-.048 1.868-.146l12.229-1.917c2.314 4.315 4.81 8.595 7.491 12.838 2.276 3.603 6.157 5.575 10.125 5.575 2.184 0 4.395-.598 6.378-1.851 5.586-3.529 7.253-10.918 3.724-16.504-.845-1.337-1.664-2.676-2.467-4.017l3.617-.567c6.528-1.023 10.99-7.145 9.967-13.672-1.024-6.529-7.143-10.986-13.672-9.967l-11.303 1.772c-1.701-4.067-3.212-8.158-4.545-12.274h-24.853c1.48 5.401 3.218 10.757 5.229 16.064z"/></g><path d="m172.823 204.918c3.01-48.749 4.938-198.199 5.019-204.537l-29.987-.381c-.02 1.544-1.998 155.051-4.964 203.07-.861 13.946-3.683 35.422-6.672 58.16-3.595 27.354-5.526 39.315-7.024 57.895-1.536-3.611-2.352-6.873-2.352-9.643 0-8.281-6.713-14.994-14.994-14.994s-14.994 6.713-14.994 14.994c0 4.819.817 9.641 2.237 14.397l33.527 6.997 26.271-6.997c1.864-19.181 4.757-41.196 7.063-58.741 3.057-23.265 5.945-45.241 6.87-60.22z" fill="#edbc85"/><path d="m132.076 372.158c.365.355.744.688 1.135.999 5.29 18.856 8.931 50.719 8.931 60.993v77.85h29.989v-77.85c0-20.406-10.787-57.539-14.093-68.434-1.856-6.118-1.024-22.543.851-41.837h-59.799c5.503 18.428 20.214 35.86 32.986 48.279z" fill="#e9a86c"/></g></svg>