<svg id="Capa_1" enable-background="new 0 0 512 512" height="512" viewBox="0 0 512 512" width="512" xmlns="http://www.w3.org/2000/svg"><g><path d="m381.335 150.789c-6.359 0-56.082 0-62.439 0-8.621 0-15.61 6.989-15.61 15.61v155.815c0 8.621 6.989 15.61 15.61 15.61h62.439c8.621 0 15.61-6.989 15.61-15.61v-155.816c0-8.621-6.989-15.609-15.61-15.609z" fill="#e2dff4"/><path d="m465.754 69.286c-8.621 0-15.61 6.989-15.61 15.61v16.444h-29.087c-8.621 0-15.61 6.989-15.61 15.61s6.989 15.61 15.61 15.61h29.087v16.443c0 8.621 6.989 15.61 15.61 15.61s15.61-6.989 15.61-15.61v-64.108c0-8.621-6.989-15.609-15.61-15.609z" fill="#9d98ce"/><path d="m99.103 34.567c-38.699 4.461-68.467 37.457-68.467 76.789v54.448c0 8.621 6.989 15.61 15.61 15.61h187.406l8.325-80.075-8.325-67.158c-66.181.089-133.909.22-134.549.386z" fill="#e2dff4"/><path d="m436.667 165.805v-54.448c0-42.627-34.729-77.306-77.418-77.306 0 0-62.086.046-125.598.131v147.233h187.406c8.621 0 15.61-6.989 15.61-15.61z" fill="#bebcdd"/><path d="m46.246 306.604c-5.388 0-10.395 2.778-13.245 7.351-2.851 4.571-3.143 10.291-.772 15.128l31.22 63.706c2.622 5.35 8.06 8.741 14.017 8.741h156.186l8.325-40.863-8.325-54.063z" fill="#e2dff4"/><path d="m358.618 116.921c-8.621 0-15.61 6.989-15.61 15.61v48.884h31.22v-48.885c0-8.62-6.989-15.609-15.61-15.609z" fill="#9d98ce"/><path d="m108.862 116.921c-8.621 0-15.61 6.989-15.61 15.61v48.884h31.22v-48.885c0-8.62-6.989-15.609-15.61-15.609z" fill="#bebcdd"/><path d="m296.179 101.339c-8.621 0-15.61 6.989-15.61 15.61v64.465h31.22v-64.465c0-8.621-6.989-15.61-15.61-15.61z" fill="#9d98ce"/><g fill="#bebcdd"><path d="m171.301 101.339c-8.621 0-15.61 6.989-15.61 15.61v64.465h31.22v-64.465c0-8.621-6.989-15.61-15.61-15.61z"/><path d="m139.739 75.244c-25.633 0-46.486-20.828-46.486-46.43v-13.204c0-8.621 6.989-15.61 15.61-15.61h61.753c8.621 0 15.61 6.989 15.61 15.61v13.204c-.001 25.602-20.854 46.43-46.487 46.43z"/><path d="m303.287 385.92h93.659v126.08h-93.659z"/><path d="m446.613 313.954c-2.851-4.572-7.858-7.351-13.245-7.351h-199.716v94.926h168.497c5.957 0 11.395-3.391 14.017-8.741l31.22-63.706c2.37-4.837 2.079-10.557-.773-15.128z"/><path d="m218.131 132.53v48.884h15.521l4.163-30.626-4.163-33.863c-8.58.049-15.521 7.015-15.521 15.605z"/></g><path d="m249.35 132.53c0-8.621-6.989-15.61-15.61-15.61-.03 0-.059.004-.089.005v64.489h15.698v-48.884z" fill="#9d98ce"/><path d="m112.549 181.415c-17.035 0-30.895 13.859-30.895 30.895v31.7l16.064 11.447 14.831-11.447 11.447-30.059z" fill="#f9f9f9"/><path d="m112.549 181.415v62.595h30.932v-31.7c0-17.036-13.859-30.895-30.932-30.895z" fill="#e2dff4"/><path d="m81.654 244.009v31.699c0 17.036 13.859 30.895 30.895 30.895l10.407-34.88-10.407-27.715h-30.895z" fill="#ff6c6c"/><path d="m112.549 306.604h.037c17.035 0 30.895-13.859 30.895-30.895v-31.699h-30.932z" fill="#e63950"/></g></svg>