<svg id="Capa_1" enable-background="new 0 0 512 512" height="512" viewBox="0 0 512 512" width="512" xmlns="http://www.w3.org/2000/svg"><g><g><path d="m77.333 454.975c-16.61 0-34.363-11.252-49.989-31.684-17.144-22.416-32.497-57.958-25.695-83.024 20.95-77.2 32.272-120.015 34.026-126.665 4.542-33.055 26.822-60.388 58.358-71.489.156-.056.313-.107.472-.157 3.288-1.037 32.472-10.187 44.42-12.228 15.128-2.588 30.232 1.19 42.527 10.631 14.599 11.21 24.416 29.858 26.261 49.885.7 7.597 1.653 14.318 2.663 21.434 2.026 14.29 4.122 29.067 4.546 52.669.723 40.23-2.878 59.326-5.507 73.269-.634 3.363-1.182 6.268-1.594 9.08v.001c-6.174 42.079-32.878 76.167-68.031 86.842-8.736 2.653-41.26 14.569-57.237 20.498-1.671.621-3.438.938-5.22.938z" fill="#ff6c6c"/></g><g><path d="m434.667 454.975c-1.782 0-3.549-.317-5.219-.938-15.977-5.929-48.501-17.844-57.237-20.498-35.153-10.675-61.857-44.763-68.031-86.842v-.001c-.413-2.813-.96-5.717-1.594-9.08-2.629-13.943-6.23-33.039-5.507-73.269.424-23.601 2.52-38.378 4.546-52.669 1.009-7.116 1.962-13.837 2.663-21.435 1.845-20.026 11.662-38.674 26.261-49.884 12.295-9.441 27.397-13.219 42.527-10.632 11.948 2.042 41.132 11.192 44.42 12.229.158.05.315.102.472.157 31.536 11.101 53.816 38.434 58.358 71.489 1.754 6.651 13.076 49.465 34.026 126.665 6.802 25.065-8.551 60.607-25.695 83.024-15.627 20.432-33.38 31.684-49.99 31.684z" fill="#e63950"/></g><path d="m241.787 72.012v147.207c-14.204 1.501-28.963 4.463-35.05 5.758-12.209-1.806-46.803-5.994-67.665.798-1.899-1.153-3.933-3.712-5.154-9.774-1.572-7.803-8.713-13.454-16.614-12.483-8.701 1.069-14.55 9.233-12.935 17.704 2.131 11.172 6.961 20.136 13.915 26.296-9.464 18.045-13.178 37.87-14.477 53.669-6.209-.8-12.28-.391-17.326.214-8.057.967-14.207 8.05-13.55 16.138.695 8.556 8.354 14.729 16.791 13.69 10.393-1.282 13.484.334 14.33 1.09 1.382 1.232 4.577 6.25 4.402 26.172-.073 8.284 6.584 15.059 14.868 15.131.045.001.09.001.135.001 8.222 0 14.925-6.629 14.997-14.869.105-11.92-.595-24.73-5.065-35.362-.47-10.204-.49-37.348 10.363-59.757 3.174-6.554 9.584-10.941 16.854-11.367 12.343-.722 29.789.451 44.208 2.768 1.894.305 3.833.244 5.706-.178.287-.065 28.63-6.433 45.82-6.541l4-92.228-4-99.055c-8.075.238-14.553 6.844-14.553 14.978z" fill="#e63950"/><path d="m427.087 301.398c-5.045-.605-11.117-1.014-17.325-.215-1.299-15.798-5.013-35.623-14.476-53.667 6.85-6.068 11.639-14.856 13.817-25.796 1.605-8.06-3.38-16.193-11.407-17.957-8.286-1.821-16.386 3.561-17.965 11.838-1.211 6.351-3.292 8.997-5.233 10.175-20.858-6.793-55.454-2.602-67.662-.798-6.087-1.295-20.845-4.256-35.049-5.757v-146.78c0-8.077-6.207-15.027-14.275-15.406-.402-.019-.797-.006-1.192.006v191.248c.156.005.309.023.466.023 17.141 0 45.976 6.48 46.262 6.545 1.869.424 3.809.483 5.703.18 15.429-2.479 34.317-3.649 46.717-2.59 5.483.468 10.403 3.663 13.004 8.512 12.306 22.942 12.245 51.745 11.722 62.393-4.484 10.639-5.185 23.464-5.08 35.397.072 8.239 6.773 14.868 14.997 14.868.044 0 .09 0 .135-.001 8.284-.072 14.94-6.847 14.868-15.131-.089-10.084.687-16.345 1.653-20.234 1.294-1.706 2.241-3.701 2.71-5.901 0-.001.001-.001.001-.002.79-.74 3.811-2.425 14.367-1.125 8.432 1.041 16.095-5.133 16.791-13.689.659-8.086-5.492-15.169-13.549-16.136z" fill="#ae2538"/></g></svg>