<svg id="Capa_1" enable-background="new 0 0 512 512" height="512" viewBox="0 0 512 512" width="512" xmlns="http://www.w3.org/2000/svg"><g><path d="m192.689 429.376h-102.688l-15-12-15 12h-45.001c-8.284 0-15-6.716-15-15v-60.001c0-8.284 6.716-15 15-15h45l15 11 15-11h112.48c8.284 0 15 6.716 15 15s-9.791 51.716-9.791 60.001c0 8.284-6.715 15-15 15z" fill="#e2dff4"/><path d="m497 429.376h-45l-15-12-15 12h-102.716c-8.284 0-15-6.716-15-15s-10-51.716-10-60.001c0-8.284 6.716-15 15-15h112.715l15 11 15-11h45c8.284 0 15 6.716 15 15v60.001c.001 8.284-6.715 15-14.999 15z" fill="#bebcdd"/><path d="m180.999 384.375v60.001c0 8.284 6.716 15 15 15h60l9-60.713-9-89.289c-41.355.001-75 33.645-75 75.001z" fill="#bebcdd"/><path d="m316 459.376c8.284 0 15-6.716 15-15v-60.001c0-41.356-33.645-75.001-75-75.001v150.001h60z" fill="#9d98ce"/><path d="m241 272.673v78.702c0 8.284 6.716 15 15 15l10-54.351-10-54.351c-8.284 0-15 6.716-15 15z" fill="#f9f9f9"/><path d="m256 366.375c8.285 0 15-6.716 15-15v-78.702c0-8.284-6.715-15-15-15z" fill="#e2dff4"/><path d="m140.722 167.902c0 63.565 51.714 115.278 115.278 115.278l20-115.278-20-115.278c-63.565 0-115.278 51.713-115.278 115.278z" fill="#9ddff6"/><path d="m371.278 167.902c0-63.565-51.713-115.278-115.278-115.278v230.557c63.565 0 115.278-51.713 115.278-115.279z" fill="#6dabfc"/><path d="m60.001 339.375h30v90.001h-30z" fill="#f9f9f9"/><path d="m421.999 339.375h30v90.001h-30z" fill="#e2dff4"/><path d="m211 167.902c0 24.814 20.187 45 45 45l9-45-9-45c-24.813 0-45 20.187-45 45z" fill="#6dabfc"/><path d="m301 167.902c0-24.814-20.187-45-45-45v90.001c24.813 0 45-20.187 45-45.001z" fill="#6f79e2"/></g></svg>