<svg id="Capa_1" enable-background="new 0 0 512 512" height="512" viewBox="0 0 512 512" width="512" xmlns="http://www.w3.org/2000/svg"><g><path d="m192.953 239.99-128.699 128.7-1.036 21.696-20.731.07-27.093 27.094c-20.525 20.525-20.525 53.92 0 74.445l144.426-118.774 81.24-106.892c-11.667-11.667-23.335-23.334-26.34-26.339-6.011-6.011-15.756-6.011-21.767 0z" fill="#38336b"/><path d="m15.394 491.995c10.262 10.263 23.742 15.393 37.222 15.393 13.481 0 26.961-5.13 37.223-15.393l27.094-27.094 5.269-19.861 16.497-1.905 128.7-128.699c6.011-6.01 6.011-15.756 0-21.766-3.005-3.006-14.672-14.673-26.339-26.34z" fill="#2b0552"/><path d="m42.488 390.456 37.222 37.223 21.767-1.245v-20.522l-37.223-37.222z" fill="#6f79e2"/><g><path d="m496.609 241.466c-3.939 0-7.878-1.502-10.883-4.508l-27.004-27.005c-6.011-6.011-6.011-15.755 0-21.765 6.011-6.011 15.756-6.011 21.765 0l27.004 27.005c6.011 6.011 6.011 15.755 0 21.765-3.004 3.005-6.944 4.508-10.882 4.508z" fill="#bebcdd"/></g><path d="m93.814 409.086h30.782v52.641h-30.782z" fill="#6b61b1" transform="matrix(.707 -.707 .707 .707 -275.892 204.745)"/><g><path d="m447.343 236.718c-3.116 0-6.247-.943-8.941-2.867l-52.994-37.854c-6.917-4.941-8.519-14.553-3.578-21.47 4.942-6.917 56.316-58.291 63.233-63.232 6.917-4.942 16.529-3.339 21.47 3.578l37.853 52.994c4.373 6.122 3.679 14.509-1.641 19.829l-44.515 44.514c-2.979 2.98-6.92 4.508-10.887 4.508z" fill="#9d98ce"/></g><path d="m348.506 158.873c-6.01-6.01-15.755-6.01-21.765 0l-55.897 55.898c-6.011 6.01-6.011 15.755 0 21.765.001.001.003.003.004.004l42.801-34.945 34.861-42.717c-.001-.002-.002-.004-.004-.005z" fill="#bebcdd"/><path d="m270.849 236.54c3.004 3.002 6.941 4.504 10.878 4.504 3.939 0 7.878-1.503 10.883-4.508l55.897-55.898c6.009-6.008 6.011-15.75.005-21.76z" fill="#9d98ce"/><path d="m413.906 19.001c-2.209-1.924-4.925-3.187-7.837-3.621l-71.164-10.6c-4.822-.721-9.702.892-13.15 4.34l-42.101 42.101c-3.559 3.559-5.153 8.633-4.269 13.588l13.163 73.727c.314 1.758.929 3.437 1.809 4.967.671 1.167 21.338 1.244 22.3 2.207l-1.388 19.457 15.476 15.476 63.445-49.697 60.986-74.734-15.476-15.476-19.427-4.14c.001 0-2.101-17.364-2.367-17.595z" fill="#e2dff4"/><path d="m485.848 90.882-34.67-34.67-124.432 124.431 34.67 34.671c2.886 2.887 6.801 4.508 10.883 4.508s7.997-1.621 10.883-4.508l102.666-102.666c6.011-6.01 6.011-15.756 0-21.766z" fill="#bebcdd"/><path d="m195.775 191.449c-19.672 19.672-19.672 51.682 0 71.354l24.405 24.405 36.093-25.832 35.261-45.522-24.405-24.405c-19.672-19.672-51.682-19.672-71.354 0z" fill="#6f79e2"/><path d="m244.586 311.614c9.836 9.836 22.756 14.754 35.677 14.754 12.92 0 25.841-4.918 35.677-14.754 19.672-19.672 19.672-51.682 0-71.354l-24.405-24.405-71.354 71.354z" fill="#6b61b1"/><path d="m413.906 19.001-123.883 123.883c.725 1.405 1.663 2.699 2.794 3.83l18.453 18.453 124.431-124.431s-21.529-21.504-21.795-21.735z" fill="#f9f9f9"/></g></svg>