<svg id="Capa_1" enable-background="new 0 0 512 512" height="512" viewBox="0 0 512 512" width="512" xmlns="http://www.w3.org/2000/svg"><g><path d="m117.245 180c-1.094 4.947-1.72 10.389-1.72 16.431v13.569 250.646c0 28.317 23.037 51.354 51.354 51.354h100.997l20-159.42-20-172.58z" fill="#ff6c6c"/><path d="m418.632 180h-150.756v332h100.997c28.317 0 51.354-23.038 51.354-51.354v-250.646-13.569c.001-6.056-.578-11.498-1.595-16.431z" fill="#e63950"/><path d="m408.502 242.146c-.594.86-14.722 21.36-29.078 46.106-20.456 35.262-30.399 60.087-30.399 75.894 0 39.255 31.936 71.192 71.192 71.192l10-90.921-10-108.418c-4.678.001-9.057 2.299-11.715 6.147z" fill="#ff6c6c"/><path d="m461.01 288.252c-14.355-24.746-28.483-45.246-29.078-46.106-2.659-3.849-7.038-6.146-11.715-6.146v199.338c39.256 0 71.192-31.937 71.192-71.192 0-15.806-9.944-40.631-30.399-75.894z" fill="#e63950"/><path d="m192.524 240c-8.284 0-15 6.716-15 15s6.716 15 15 15h75.352l10-15-10-15z" fill="#6f79e2"/><path d="m327.876 240h-60v30h60c8.284 0 15-6.716 15-15s-6.716-15-15-15z" fill="#6b61b1"/><path d="m252.7 300h-60.176c-8.284 0-15 6.716-15 15s6.716 15 15 15h60.176c8.284 0 15-6.716 15-15s-6.716-15-15-15z" fill="#6f79e2"/><path d="m221.956 90c-29.17 0-39.493 12.233-51.446 26.398-2.295 2.719-4.668 5.531-7.38 8.52-3.031 3.339-7.468 6.653-12.166 10.163-12.365 9.237-28.497 21.308-33.719 44.919h150.693l20-44.319-20-45.681z" fill="#9ddff6"/><path d="m384.744 134.726c-4.702-3.357-9.145-6.529-12.121-9.809-2.714-2.989-5.087-5.802-7.382-8.521-11.952-14.164-22.275-26.396-51.444-26.396h-45.859v90h150.693c-5.09-24.695-21.406-36.363-33.887-45.274z" fill="#6dabfc"/><path d="m267.876 0h-162.285c-4.803 0-9.315 2.3-12.138 6.186l-70 96.396c-1.86 2.562-2.862 5.647-2.862 8.814v400.604h30v-395.732l62.645-86.268h139.64v43.088h15.062l10-40.901-10-32.184c-.021 0-.041-.003-.062-.003z" fill="#e2dff4"/><path d="m282.876 15c0-8.263-6.683-14.963-14.938-14.997v73.085h14.938z" fill="#bebcdd"/><path d="m222.876 105c0 24.813 20.187 45 45 45l10-45-10-45c-24.814 0-45 20.187-45 45z" fill="#bebcdd"/><path d="m312.876 105c0-24.813-20.187-45-45-45v90c24.813 0 45-20.187 45-45z" fill="#9d98ce"/></g></svg>