<svg id="Capa_1" enable-background="new 0 0 512 512" height="512" viewBox="0 0 512 512" width="512" xmlns="http://www.w3.org/2000/svg"><g><path d="m214.877 268.922c-43.278 0-78.487 35.735-78.487 79.658v148.375c0 8.309 6.736 15.045 15.045 15.045h104.555l8.024-126.851-8.024-116.226h-41.113z" fill="#ffb454"/><path d="m297.123 268.922h-41.133v243.078h104.575c8.309 0 15.045-6.736 15.045-15.045v-148.375c0-43.923-35.21-79.658-78.487-79.658z" fill="#ff8659"/><path d="m241.328 11.713-42.825 188.573c-1.839 8.103 3.237 16.163 11.339 18.004 1.122.255 2.242.376 3.346.376 3.367 0 22.852.33 42.801.451l10.03-103.441-10.029-115.676c-7.021.005-13.106 4.866-14.662 11.713z" fill="#e2dff4"/><path d="m302.137 218.199c8.102-1.84 13.179-9.901 11.339-18.004l-42.804-188.482c-1.557-6.851-7.647-11.713-14.672-11.713-.003 0-.007 0-.01 0v219.116c20.755.125 42.014.023 46.147-.917z" fill="#bebcdd"/><path d="m160.716 190.645c-8.309 0-15.045 6.736-15.045 15.045v78.277c0 8.309 6.736 15.045 15.045 15.045h47.141l15.045-20.06 15.045 20.06h18.053l10.03-54.184-10.03-54.183h-18.054l-12.578 8.024-17.512-8.024z" fill="#38336b"/><path d="m351.284 190.645h-47.141l-15.045 8.024-15.045-8.024h-18.053v108.367h18.054l15.045-7.021 15.045 7.021h47.141c8.309 0 15.045-6.736 15.045-15.045v-78.277c-.001-8.309-6.737-15.045-15.046-15.045z" fill="#2b0552"/><path d="m255.735 332.168c-3.993.037-7.807 1.66-10.602 4.512-.079.081-8.108 8.266-24.871 24.983-14.619 14.579-19.019 35.644-11.481 54.977 7.393 18.963 24.522 31.25 44.69 32.067.798.033 1.599.049 2.405.049.042 0 .082-.003.124-.003l5.015-58.29-5.015-58.29c-.041 0-.082-.006-.124-.006-.047 0-.094 0-.141.001z" fill="#9ddff6"/><path d="m258.612 448.692c20.192-.936 37.304-13.292 44.656-32.244 7.453-19.211 3.075-40.173-11.426-54.704-14.437-14.469-25.314-25.158-25.422-25.265-2.785-2.736-6.523-4.274-10.421-4.307v116.58c.877-.001 1.747-.02 2.613-.06z" fill="#6dabfc"/><path d="m207.856 190.645h30.09v108.367h-30.09z" fill="#6f79e2"/><path d="m274.054 190.645h30.09v108.367h-30.09z" fill="#6b61b1"/></g></svg>