<svg id="Capa_1" enable-background="new 0 0 512 512" height="512" viewBox="0 0 512 512" width="512" xmlns="http://www.w3.org/2000/svg"><g><path d="m58.433 432.553-53.841 53.841c-5.858 5.858-5.858 15.355 0 21.213l35.33-25.33 39.724-49.724c-5.858-5.859-15.356-5.859-21.213 0z" fill="#e2dff4"/><path d="m15.198 512c3.839 0 7.678-1.464 10.606-4.394l53.841-53.841c5.858-5.858 5.858-15.355 0-21.213l-75.053 75.054c2.928 2.93 6.767 4.394 10.606 4.394z" fill="#bebcdd"/><path d="m70.534 333.259c-2.37 2.37-3.878 5.465-4.283 8.792l-12.102 99.294c-.559 4.579 1.021 9.16 4.283 12.421l43.35-33.35 33.591-43.591-16.963-30.825-37.26-23.357z" fill="#bebcdd"/><path d="m396.33 115.868c-5.224-5.223-5.776-13.334-1.684-19.184l-22.555-22.555c5.858-5.858 5.858-15.355 0-21.213-5.857-5.858-15.355-5.858-21.213 0l-44.152 44.152 18.044 38.022 36.179 16.159 21.547-8.547z" fill="#f9f9f9"/><path d="m81.15 322.643 54.224 54.181 111.545-91.544 114.03-134.031-54.223-54.182-55.4 55.4-8.299 15.922-13.848 6.226-33.926 33.926-10.111 20.111-11.035 1.034-34.43 34.431-1.032 21.032-20.235.234z" fill="#e2dff4"/><path d="m69.038 458.159c.604 0 1.21-.036 1.815-.11l99.293-12.102c3.327-.405 6.422-1.913 8.792-4.283l10.659-10.659-27.738-37.716-26.486-16.465-76.941 76.941c2.831 2.831 6.653 4.394 10.606 4.394z" fill="#9d98ce"/><path d="m396.33 115.868-35.381 35.381 17.15 37.129 37.073 17.052 44.11-44.111c5.858-5.858 5.858-15.355 0-21.213-5.857-5.858-15.355-5.858-21.213 0l-22.555-22.555c-2.57 1.797-5.57 2.71-8.578 2.71-3.838 0-7.677-1.464-10.606-4.393z" fill="#e2dff4"/><path d="m189.597 431.005 65.037-65.037.058-20.057 21.212-1.213 39.366-39.366-1.705-18.295 18.037 1.963 83.57-83.57-54.223-54.181-225.575 225.575z" fill="#bebcdd"/><path d="m473.241 38.957c-5.858-5.859-15.356-5.859-21.213 0l-55.698 55.698c-.635.635-1.187 1.318-1.684 2.029l10.434 10.434 32.48-22.48z" fill="#e2dff4"/><path d="m405.08 107.118 10.434 10.434c.71-.497 1.394-1.049 2.029-1.684l55.697-55.698c5.858-5.858 5.858-15.355 0-21.212z" fill="#bebcdd"/><path d="m328.983 29.175c-5.855 5.861-5.851 15.358.01 21.213l66.44 66.377 11.213-1.213 10-20-66.45-66.387c-5.86-5.855-15.358-5.852-21.213.01z" fill="#bebcdd"/><path d="m462.119 183.388c2.929 2.926 6.765 4.388 10.602 4.388 3.841 0 7.683-1.466 10.611-4.398 5.855-5.861 5.851-15.358-.01-21.213l-66.676-66.613-21.213 21.213z" fill="#9d98ce"/><path d="m438.677 4.393c-5.856-5.857-15.354-5.858-21.213 0-5.858 5.857-5.858 15.355 0 21.213l34.564 34.564 11.213-1.213 10-20z" fill="#bebcdd"/><path d="m473.241 38.957-21.213 21.213 34.167 34.168c2.929 2.929 6.768 4.394 10.606 4.394s7.678-1.465 10.606-4.394c5.858-5.858 5.858-15.355 0-21.213z" fill="#9d98ce"/><path d="m275.445 213.415c3.839 0 7.678-1.464 10.606-4.394 5.858-5.858 5.858-15.355 0-21.213l-35.034-35.033-21.213 21.213 35.034 35.033c2.929 2.93 6.768 4.394 10.607 4.394z" fill="#f9f9f9"/><path d="m298.688 256.018c-5.851-5.863-15.349-5.874-21.213-.022s-5.874 15.349-.021 21.213l32.935 33.004 21.213-21.213z" fill="#e2dff4"/><path d="m221.778 311.694c-5.864 5.852-5.874 15.349-.021 21.213l32.935 33.003 21.213-21.213-32.913-32.982c-5.851-5.862-15.349-5.872-21.214-.021z" fill="#e2dff4"/><g fill="#f9f9f9"><path d="m219.748 269.113c3.839 0 7.678-1.464 10.606-4.394 5.858-5.858 5.858-15.355 0-21.213l-35.034-35.034-21.213 21.213 35.034 35.034c2.929 2.93 6.768 4.394 10.607 4.394z"/><path d="m164.05 324.81c3.839 0 7.678-1.464 10.606-4.394 5.858-5.858 5.858-15.355 0-21.213l-35.034-35.034-21.213 21.213 35.034 35.034c2.929 2.93 6.768 4.394 10.607 4.394z"/></g></g></svg>