<svg id="Capa_1" enable-background="new 0 0 512 512" height="512" viewBox="0 0 512 512" width="512" xmlns="http://www.w3.org/2000/svg"><g><path d="m356.723 449.541c-4.132 0-8.244-1.697-11.208-5.025l-55.081-61.86c-5.509-6.187-4.959-15.668 1.228-21.178s15.668-4.959 21.178 1.228l55.081 61.86c5.509 6.187 4.959 15.668-1.228 21.178-2.86 2.545-6.422 3.797-9.97 3.797z" fill="#bebcdd"/><path d="m469.97 429.838h-38.777c-4.608 0-8.96-2.118-11.804-5.744l-34.475-43.965c-5.112-6.519-3.971-15.948 2.548-21.06 6.52-5.112 15.948-3.971 21.06 2.548l29.971 38.221h31.478c8.284 0 15 6.716 15 15s-6.717 15-15.001 15z" fill="#bebcdd"/><path d="m133.126 30h-66.227c-8.284 0-15-6.716-15-15s6.716-15 15-15h66.228c8.284 0 15 6.716 15 15s-6.716 15-15.001 15z" fill="#e2dff4"/><path d="m356.717 512c-24.954 0-45.254-20.301-45.254-45.254s20.301-45.255 45.254-45.255 45.255 20.301 45.255 45.255-20.301 45.254-45.255 45.254zm0-60.509c-8.411 0-15.254 6.843-15.254 15.255 0 8.411 6.843 15.254 15.254 15.254 8.412 0 15.255-6.843 15.255-15.254 0-8.412-6.843-15.255-15.255-15.255z" fill="#6b61b1"/><path d="m396.717 385.873h-111.022c-8.284 0-15-6.716-15-15s-33.247-70.799-33.247-79.083 6.716-15 15-15h144.269c8.284 0 15 6.716 15 15v79.083c0 8.284-6.716 15-15 15z" fill="#6dabfc"/><path d="m111.014 0c-4.058 0-7.942 1.644-10.768 4.557-2.825 2.913-4.35 6.846-4.226 10.902l7.553 246.957c.249 8.125 6.913 14.542 14.985 14.542.155 0 .311-.002.467-.007 5.747-.176 28.11-3.948 44.022-6.308l10-142.794-9.999-127.849z" fill="#9ddff6"/><path d="m192.982 253.407-5.889-238.777c-.201-8.137-6.856-14.63-14.996-14.63h-9.049v270.641c7.014-1.04 12.78-1.807 15.308-1.87 8.282-.204 14.83-7.083 14.626-15.364z" fill="#6dabfc"/><path d="m117.184 170.256c-8.284 0-15 6.716-15 15s6.716 15 15 15h45.865l10-14.762-10-15.238z" fill="#e2dff4"/><path d="m273.449 185.256c0-8.284-6.716-15-15-15h-95.4v30h95.4c8.284 0 15-6.715 15-15z" fill="#bebcdd"/><path d="m27.03 375.982c0 75 61.018 136.018 136.018 136.018l20-138.39-20-133.646c-75 0-136.018 61.017-136.018 136.018z" fill="#6dabfc"/><path d="m163.048 239.964v272.036c75 0 136.018-61.018 136.018-136.018s-61.017-136.018-136.018-136.018z" fill="#6f79e2"/><path d="m117.539 375.982c0-25.094 20.416-45.509 45.509-45.509l10-12.493-10-17.507c-41.636 0-75.509 33.874-75.509 75.509s33.874 75.509 75.509 75.509l10-14.616-10-15.384c-25.093 0-45.509-20.415-45.509-45.509z" fill="#6f79e2"/><path d="m163.048 300.473v30c25.094 0 45.509 20.416 45.509 45.509s-20.416 45.509-45.509 45.509v30c41.636 0 75.509-33.873 75.509-75.509s-33.873-75.509-75.509-75.509z" fill="#6b61b1"/><path d="m147.921 375.982c0 8.354 6.773 15.127 15.127 15.127l10-15.127-10-15.127c-8.354 0-15.127 6.772-15.127 15.127z" fill="#6f79e2"/><path d="m178.176 375.982c0-8.355-6.773-15.127-15.127-15.127v30.255c8.354-.001 15.127-6.774 15.127-15.128z" fill="#6b61b1"/></g></svg>