<svg id="Capa_1" enable-background="new 0 0 512 512" height="512" viewBox="0 0 512 512" width="512" xmlns="http://www.w3.org/2000/svg"><g><path d="m255.967 0c-8.284 0-15 6.716-15 15v65.7c0 8.284 6.716 15 15 15 .011 0 .022-.002.033-.002l10-55.679-10-40.019z" fill="#e2dff4"/><path d="m270.967 80.7v-50.7h56.979v300.49c0 8.284 6.716 15 15 15s15-6.716 15-15v-300.49h60v50.7c0 8.284 6.716 15 15 15s15-6.716 15-15v-65.7c0-8.284-6.716-15-15-15h-176.946v95.698c8.269-.018 14.967-6.725 14.967-14.998z" fill="#bebcdd"/><g><path d="m143.022 346.042c-8.284 0-119.738-13.628-128.022-13.628s-15-6.716-15-15c0-43.677 35.444-79.211 79.011-79.211s79.011 35.534 79.011 79.211v13.628c0 8.285-6.716 15-15 15z" fill="#6f79e2"/></g><g><path d="m462.945 187.988h-60c-8.284 0-15-6.716-15-15v-60.282c0-24.813 20.187-45 45-45s45 20.187 45 45v60.282c0 8.284-6.716 15-15 15z" fill="#e63950"/></g><path d="m17 318.049c-8.284 0-15 23.243-15 51.913s6.716 51.913 15 51.913h239l10-55.367-10-48.459z" fill="#9ddff6"/><path d="m495 318.049h-239v103.826h239c8.284 0 15-23.243 15-51.913s-6.716-51.913-15-51.913z" fill="#6dabfc"/><path d="m30 406.875v-206.38c0-8.284-6.716-15-15-15s-15 6.716-15 15v221.38c0 8.284 6.716 15 15 15h226v44c0 8.284 6.716 15 15 15l10-53.718-10-35.282z" fill="#f9f9f9"/><path d="m497 267.767c-8.284 0-15 6.716-15 15v124.108h-226v89c8.284 0 15-6.716 15-15v-44h226c8.284 0 15-6.716 15-15v-139.108c0-8.284-6.716-15-15-15z" fill="#e2dff4"/><g><circle cx="176" cy="497" fill="#bebcdd" r="15"/></g><g><circle cx="336" cy="497" fill="#9d98ce" r="15"/></g><path d="m146.413 466.875c-8.284 0-15 6.716-15 15s6.716 15 15 15h109.587l10-14.067-10-15.933z" fill="#6f79e2"/><path d="m365.521 466.875h-109.521v30h109.521c8.284 0 15-6.716 15-15s-6.716-15-15-15z" fill="#6b61b1"/><path d="m255.967 67.707c-24.813 0-45 20.187-45 45v60.282c0 8.284 6.716 15 15 15h15v81.605c0 8.284 6.716 15 15 15 .011 0 .022-.002.033-.002l10-145.696-10-71.188c-.011-.001-.022-.001-.033-.001z" fill="#ff6c6c"/><path d="m270.967 269.593v-81.605h15c8.284 0 15-6.716 15-15v-60.282c0-24.802-20.169-44.981-44.967-44.999v216.884c8.269-.018 14.967-6.725 14.967-14.998z" fill="#e63950"/><path d="m245.967 257.495c-6.472 0-12.213 4.15-14.243 10.296l-20 60.554c-2.598 7.866 1.672 16.349 9.539 18.947 7.865 2.599 16.35-1.672 18.947-9.539l15.79-50.268 10-15.871-10-14.119z" fill="#bebcdd"/><path d="m434.716 328.345-20-60.554c-2.03-6.146-7.771-10.296-14.243-10.296h-144.473v29.99l133.63.01 16.6 50.258c2.083 6.305 7.945 10.3 14.241 10.3 1.559 0 3.146-.245 4.707-.761 7.865-2.598 12.136-11.081 9.538-18.947z" fill="#9d98ce"/></g></svg>