<svg id="Capa_1" enable-background="new 0 0 512 512" height="512" viewBox="0 0 512 512" width="512" xmlns="http://www.w3.org/2000/svg"><g><path d="m105.208 370.376c-58.012 0-105.208-47.196-105.208-105.208s47.196-105.208 105.208-105.208c13.979 0 27.563 2.702 40.375 8.031 7.648 3.181 11.271 11.961 8.089 19.61s-11.958 11.273-19.61 8.089c-9.142-3.802-18.849-5.73-28.854-5.73-41.47 0-75.208 33.739-75.208 75.208s33.738 75.208 75.208 75.208c7.127 0 14.173-.993 20.942-2.951 7.96-2.302 16.275 2.285 18.576 10.242 2.302 7.958-2.284 16.275-10.242 18.577-9.479 2.742-19.329 4.132-29.276 4.132z" fill="#6dabfc"/><path d="m406.792 370.376c-9.947 0-19.797-1.39-29.276-4.131-7.958-2.302-12.544-10.619-10.242-18.577 2.301-7.958 10.622-12.542 18.576-10.242 6.77 1.958 13.815 2.951 20.942 2.951 41.47 0 75.208-33.738 75.208-75.208s-33.738-75.208-75.208-75.208c-10.005 0-19.712 1.928-28.854 5.73-7.646 3.182-16.429-.439-19.61-8.089-3.182-7.649.44-16.429 8.089-19.61 12.812-5.329 26.396-8.031 40.375-8.031 58.012-.001 105.208 47.196 105.208 105.207s-47.196 105.208-105.208 105.208z" fill="#6f79e2"/><path d="m215.486 94.954c-21.702 16.529-52.926 42.397-78.426 71.766-31.089 35.805-46.853 68.928-46.853 98.449 0 91.172 74.174 165.346 165.347 165.346.149 0 .297-.005.445-.006l10-190.254-9.999-158.768c-14.284-.095-28.593 4.388-40.514 13.467z" fill="#9ddff6"/><path d="m420.9 265.168c0-29.521-15.764-62.645-46.853-98.449-25.5-29.369-56.724-55.237-78.426-71.766-11.67-8.889-25.633-13.373-39.621-13.466v349.022c90.967-.242 164.9-74.317 164.9-165.341z" fill="#6dabfc"/><path d="m195.303 302.226c-3.839 0-7.678-1.464-10.606-4.394l-21.262-21.262c-5.858-5.858-5.858-15.355 0-21.213 5.857-5.858 15.355-5.858 21.213 0l21.262 21.262c5.858 5.858 5.858 15.355 0 21.213-2.93 2.93-6.768 4.394-10.607 4.394z" fill="#6dabfc"/><path d="m315.652 302.26c-3.839 0-7.678-1.464-10.606-4.393-5.858-5.858-5.858-15.355 0-21.213l21.262-21.262c5.857-5.858 15.355-5.858 21.213 0s5.858 15.355 0 21.213l-21.262 21.262c-2.929 2.928-6.768 4.393-10.607 4.393z" fill="#6f79e2"/><path d="m241 83.199v268.142c0 9.809 6.716 17.76 15 17.76l10-158.386-10-129.226c-5.035 0-10.07.57-15 1.71z" fill="#6dabfc"/><path d="m256 81.489v287.613c8.284 0 15-7.952 15-17.76v-268.143c-4.93-1.14-9.965-1.71-15-1.71z" fill="#6f79e2"/></g></svg>