<svg id="Layer_1" enable-background="new 0 0 510.056 510.056" height="512" viewBox="0 0 510.056 510.056" width="512" xmlns="http://www.w3.org/2000/svg"><g id="XMLID_692_"><path id="XMLID_726_" d="m375.008 159.932c-10.492 0-19.508 0-30 0l-15-15 15-15h30l15 15z" fill="#b4b4d6"/><path id="XMLID_775_" d="m240.008 399.932-15 15-15-15c0-20.195 0-63.236 0-75l15-15 15 15 15 37.5z" fill="#ece6f2"/><g id="XMLID_767_"><path id="XMLID_769_" d="m345.008 219.932-15 15-15-15c0-4.944 0-170.255 0-175.193-10.633 2.994-66.156 18.628-76.815 21.629l-13.848-8.318 1.469-19.363c15.186-4.276 103.909-29.259 119.194-33.563z" fill="#cfcfe6"/></g><circle id="XMLID_765_" cx="193.467" cy="69.932" fill="#ffd845" r="45"/><path id="XMLID_757_" d="m480.008 189.932c-28.278 0-88.527 0-105 0 0-10.889 0-79.039 0-90h105z" fill="#5ecbf1"/><path id="XMLID_719_" d="m270.008 399.932-15 15-15-15c0-20.195 0-63.236 0-75l15-15 15 15z" fill="#cfcfe6"/><path id="XMLID_799_" d="m54.232 54.964c-37.391-1.257-63.927 35.923-50.853 70.787 4.148 11.062 70.545 188.12 74.693 199.181h161.936l15-37.5-15-37.5-90-15z" fill="#ff3f5c"/><path id="XMLID_802_" d="m240.008 249.932 15-15-15-15c-25.948 0-55.741 0-81.689 0-3.21-7.414-54.551-125.997-57.761-133.411-8.151-18.827-26.325-30.884-46.325-31.557 4.69 10.836 79.69 184.13 84.38 194.967 27.571.001 85.302.001 101.395.001z" fill="#fff5f5"/><path id="XMLID_779_" d="m135.008 474.932 52.5 15 52.5-15 15-37.5-15-37.5c-20.194 0-63.236 0-75 0-3.647 9.116-26.344 65.86-30 75z" fill="#004c9c"/><path id="XMLID_777_" d="m345.008 474.932c-3.647-9.117-26.344-65.861-30-75-20.194 0-63.236 0-75 0v75l52.5 15z" fill="#004080"/><g id="XMLID_718_"><path id="XMLID_776_" d="m240.008 504.932c-10.128 0-139.87 0-150 0 0-10.493 0-19.508 0-30h150l15 15z" fill="#004080"/></g><g id="XMLID_717_"><path id="XMLID_696_" d="m390.008 504.932c-10.128 0-139.87 0-150 0 0-10.493 0-19.508 0-30h150z" fill="#013257"/></g><path id="XMLID_798_" d="m240.008 249.932v75h98.388c9.385 10.269 68.202 74.625 77.648 84.961 24.514 30.688 72.975 24.614 89.258-11.053l-115.294-163.908z" fill="#ca2e43"/><path id="XMLID_801_" d="m500.166 346.277c-12.033-14.241-94.08-111.34-106.761-126.346-8.523 0-144.874 0-153.397 0v30h139.471c6.985 8.266 118.838 140.643 125.823 148.909 7.681-16.827 6.115-36.827-5.136-52.563z" fill="#ece6f2"/></g></svg>