<svg id="Layer_1" enable-background="new 0 0 512 512" height="512" viewBox="0 0 512 512" width="512" xmlns="http://www.w3.org/2000/svg"><g><g><path d="m160 152h60v16h-60z" fill="#5ad7ff"/></g><g><path d="m100 496h-24c0-32.174 6.243-63.56 18.556-93.285s30.091-56.332 52.841-79.083l8.235-8.236c41.509-41.507 64.368-96.695 64.368-155.396v-144h24v144c0 32.174-6.243 63.56-18.556 93.285s-30.091 56.332-52.841 79.083l-8.235 8.236c-41.509 41.507-64.368 96.695-64.368 155.396z" fill="#2387c3"/></g><g><path d="m240 152h144v16h-144z" fill="#2387c3"/></g><g><path d="m148 496h-24c0-32.174 6.243-63.56 18.556-93.285s30.091-56.332 52.841-79.083l8.235-8.236c41.509-41.507 64.368-96.695 64.368-155.396v-144h24v144c0 32.174-6.243 63.56-18.556 93.285s-30.091 56.332-52.841 79.083l-8.235 8.236c-41.509 41.507-64.368 96.695-64.368 155.396z" fill="#d73728"/></g><g><path d="m436 496h-24c0-58.701-22.859-113.889-64.367-155.397l-8.236-8.235c-22.75-22.751-40.528-49.358-52.841-79.083s-18.556-61.111-18.556-93.285h24c0 58.701 22.859 113.889 64.367 155.397l8.236 8.235c22.75 22.751 40.528 49.358 52.841 79.083s18.556 61.111 18.556 93.285z" fill="#d73728"/></g><path d="m359.633 340.603-8.236-8.235c-22.75-22.751-40.528-49.358-52.841-79.083s-18.556-61.111-18.556-93.285v-144h-12v144c0 58.701-22.859 113.889-64.368 155.397l-8.235 8.236c-22.75 22.75-40.529 49.358-52.841 79.083-12.313 29.724-18.556 61.11-18.556 93.284h12c0-32.174 6.243-63.56 18.556-93.285s30.091-56.332 52.841-79.083l8.235-8.236c28.829-28.829 48.651-64.26 58.078-102.881 3.063 13.869 7.343 27.485 12.845 40.768 12.313 29.725 30.091 56.332 52.841 79.083l8.236 8.235c41.509 41.51 64.368 96.698 64.368 155.399h12c0-58.701-22.859-113.889-64.367-155.397z" fill="#f05a4b"/><g><path d="m160 40h120v16h-120z" fill="#f05a4b"/></g><g><path d="m280 40h104v16h-104z" fill="#d73728"/></g><g><path d="m388 496h-24c0-58.701-22.859-113.889-64.367-155.397l-8.236-8.235c-22.75-22.751-40.529-49.358-52.841-79.083-12.313-29.725-18.556-61.111-18.556-93.285h24c0 58.701 22.859 113.889 64.367 155.397l8.236 8.235c22.75 22.751 40.528 49.358 52.841 79.083s18.556 61.111 18.556 93.285z" fill="#2387c3"/></g><path d="m311.633 340.603-8.236-8.235c-22.75-22.751-40.529-49.358-52.841-79.083-12.313-29.725-18.556-61.111-18.556-93.285v-104h-12v104c0 58.701-22.859 113.889-64.368 155.397l-8.235 8.236c-22.75 22.75-40.529 49.358-52.841 79.083-12.313 29.724-18.556 61.11-18.556 93.284h12c0-32.174 6.243-63.56 18.556-93.285s30.091-56.332 52.841-79.083l8.235-8.236c28.829-28.829 48.651-64.26 58.078-102.881 3.063 13.869 7.343 27.485 12.845 40.768 12.312 29.725 30.091 56.332 52.841 79.083l8.236 8.235c41.509 41.51 64.368 96.698 64.368 155.399h12c0-58.701-22.859-113.889-64.367-155.397z" fill="#5ad7ff"/><g><path d="m218.343 405.657-24.971-24.97c-6.044-6.044-9.373-14.08-9.373-22.628v-230.059c0-8.823-7.178-16-16-16v-16c17.645 0 32 14.355 32 32v230.059c0 4.274 1.664 8.292 4.686 11.314l24.971 24.97z" fill="#faa032"/></g><g><path d="m301.657 405.657-11.314-11.314 24.971-24.97c3.022-3.022 4.687-7.04 4.687-11.314v-230.059c0-17.645 14.355-32 32-32v16c-8.822 0-16 7.177-16 16v230.059c0 8.548-3.328 16.584-9.372 22.627z" fill="#faa032"/></g><g><path d="m128 16c-44.183 0-80 35.817-80 80v16c0 44.183 35.817 80 80 80v-96c22.091 0 40-17.909 40-40s-17.909-40-40-40z" fill="#dc6950"/></g><g><path d="m168 104c0-22.091-17.909-40-40-40s-40 17.909-40 40v4c0 11.046-8.954 20-20 20s-20-8.954-20-20v4c0 44.183 35.817 80 80 80 22.091 0 40-17.909 40-40 0-9.005-2.978-17.314-8-24 5.022-6.686 8-14.995 8-24z" fill="#c85541"/></g><g><path d="m384 16c-22.091 0-40 17.909-40 40 0 9.005 2.978 17.314 8 24-5.022 6.686-8 14.995-8 24 0 22.091 17.909 40 40 40v48c44.183 0 80-35.817 80-80v-16c0-44.183-35.817-80-80-80z" fill="#dc6950"/></g><g><path d="m444 76c-11.046 0-20 8.954-20 20v8c0 22.091-17.909 40-40 40-13.086 0-24.703-6.285-32-16-5.022 6.686-8 14.995-8 24 0 22.091 17.909 40 40 40 44.183 0 80-35.817 80-80v-16c0-11.046-8.954-20-20-20z" fill="#c85541"/></g><g><path d="m64 104c-4.418 0-8-3.582-8-8 0-39.701 32.299-72 72-72 4.418 0 8 3.582 8 8s-3.582 8-8 8c-30.878 0-56 25.122-56 56 0 4.418-3.582 8-8 8z" fill="#fa876e"/></g><g><path d="m360 64c-4.418 0-8-3.582-8-8 0-17.645 14.355-32 32-32 4.418 0 8 3.582 8 8s-3.582 8-8 8c-8.822 0-16 7.177-16 16 0 4.418-3.582 8-8 8z" fill="#fa876e"/></g><g><path d="m176 432c0 26.51 21.49 48 48 48 8.837 0 16 7.163 16 16h32c0-8.837 7.163-16 16-16 26.51 0 48-21.49 48-48 0-26.51-21.49-48-48-48h-64c-26.51 0-48 21.49-48 48z" fill="#dc6950"/></g><g><path d="m192 440c-4.418 0-8-3.582-8-8 0-22.056 17.944-40 40-40h64c4.418 0 8 3.582 8 8s-3.582 8-8 8h-64c-13.234 0-24 10.766-24 24 0 4.418-3.582 8-8 8z" fill="#fa876e"/></g><g><path d="m288 384c13.255 0 24 10.745 24 24 0 13.255-10.745 24-24 24h-112c0 26.51 21.49 48 48 48 8.837 0 16 7.163 16 16h32c0-8.837 7.163-16 16-16 26.51 0 48-21.49 48-48 0-26.51-21.49-48-48-48z" fill="#c85541"/></g></g><path d="m220 16h12v24h-12z" fill="#5ad7ff"/></svg>