<?xml version="1.0" encoding="iso-8859-1"?>
<!-- Generator: Adobe Illustrator 19.0.0, SVG Export Plug-In . SVG Version: 6.00 Build 0)  -->
<svg version="1.1" id="Capa_1" xmlns="http://www.w3.org/2000/svg" xmlns:xlink="http://www.w3.org/1999/xlink" x="0px" y="0px"
	 viewBox="0 0 512 512" style="enable-background:new 0 0 512 512;" xml:space="preserve">
<g transform="translate(-1)">
	<path style="fill:#D75E72;" d="M468.89,273.655c26.483-26.483-8.828-52.966-8.828-52.966c26.483-26.483,0-52.966,0-52.966
		c22.069-22.069,0-52.966,0-52.966c17.458-15.72,27.139-38.309,26.483-61.793C486.545,26.483,477.718,0,442.407,0
		S398.27,35.31,398.27,35.31c-35.31,0-44.138,35.31-44.138,35.31c-35.31-26.483-52.966,17.655-52.966,17.655
		c-35.31-26.483-61.793,8.828-61.793,8.828c0-26.483-44.138-26.483-52.966-17.655c0-26.483-17.655-61.793-70.621-61.793
		s-79.448,35.31-79.448,61.793c-1.202,9.707,2.042,19.438,8.828,26.483l8.828,8.828c0,0-17.655,26.483,0,44.138
		c0,0-26.483,17.655,0,44.138c0,0-39.724,22.069-8.828,52.966c-12.276,14.841-18.571,33.728-17.655,52.966
		c0,14.159,5.738,33.967,35.31,41.267v2.871c0,17.655,8.828,35.31,8.828,52.966c0,26.483,0,52.966,17.655,52.966
		s17.655-26.483,17.655-52.966c0-17.655-8.828-35.31-8.828-52.966v-0.539c30.869-3.592,53.868-30.19,52.966-61.254
		c1.113-14.132-5.681-27.722-17.655-35.31c17.655-8.828,12.535-52.966-8.828-52.966c0,0,22.069-22.069,0-44.138v-8.828
		c14.199,5.496,29.939,5.496,44.138,0c17.864,20.485,48.264,24.285,70.621,8.828c35.31,35.31,70.621,0,70.621,0
		c44.138,0,44.138-17.655,44.138-17.655c17.655,8.828,26.483,0,35.31-8.828c-8.828,17.655,8.828,35.31,8.828,35.31
		c-30.897,30.897,0,52.966,0,52.966c-26.483,26.483,8.828,52.966,8.828,52.966c-11.974,7.589-18.768,21.178-17.655,35.31
		c0.844,6.543,3.823,12.624,8.474,17.302c-7.422-5.848-16.688-8.853-26.13-8.474c-9.619-0.458-19.062,2.69-26.483,8.828
		c-17.655-26.483-35.31-26.483-61.793-26.483c-17.655,0-61.793,8.828-61.793,52.966v105.931
		c-0.153,16.463,6.191,32.322,17.655,44.138c12.359,11.77,31.779,11.77,44.138,0c11.464-11.816,17.808-27.675,17.655-44.138v-44.138
		c26.483,0,35.31-8.828,35.31-8.828c30.897,30.897,61.793,0,61.793,0c44.138,0,44.138-26.483,44.138-26.483
		c44.138,0,26.483-52.966,26.483-52.966C499.787,295.724,468.89,273.655,468.89,273.655z"/>
	<g>
		<path style="fill:#802D40;" d="M292.338,414.897c-14.239,0.659-28.097-4.71-38.176-14.789
			c-10.079-10.079-15.448-23.937-14.789-38.176c0-4.875,3.952-8.828,8.828-8.828s8.828,3.952,8.828,8.828
			c-0.665,9.553,2.84,18.927,9.612,25.698c6.772,6.772,16.145,10.278,25.698,9.612c4.875,0,8.828,3.952,8.828,8.828
			S297.214,414.897,292.338,414.897z"/>
		<path style="fill:#802D40;" d="M115.787,150.073c-0.95-0.001-1.893-0.155-2.793-0.457c-1.224-0.41-30.069-10.224-40.414-30.909
			c-2.167-4.359-0.396-9.649,3.958-11.826c4.354-2.177,9.648-0.419,11.835,3.929c5.897,11.802,23.802,19.922,30.207,22.056
			c4.105,1.373,6.61,5.518,5.917,9.791C123.803,146.929,120.115,150.07,115.787,150.073z"/>
		<path style="fill:#802D40;" d="M398.27,132.414c-4.875,0-8.828-3.952-8.828-8.828c0-4.875,3.952-8.828,8.828-8.828
			c7.263,0.902,14.536-1.597,19.711-6.772c5.175-5.175,7.674-12.448,6.772-19.711c0-4.875,3.952-8.828,8.828-8.828
			s8.828,3.952,8.828,8.828C442.407,120.819,419.606,132.414,398.27,132.414z"/>
	</g>
</g>
<g>
</g>
<g>
</g>
<g>
</g>
<g>
</g>
<g>
</g>
<g>
</g>
<g>
</g>
<g>
</g>
<g>
</g>
<g>
</g>
<g>
</g>
<g>
</g>
<g>
</g>
<g>
</g>
<g>
</g>
</svg>
