<svg height="512" viewBox="0 0 58 58" width="512" xmlns="http://www.w3.org/2000/svg"><g id="019---Skin-Layers" fill="none"><path id="Shape" d="m57 26c.5522847 0 1-.4477153 1-1v-5c0-1.1045695-.8954305-2-2-2h-54c-1.1045695 0-2 .8954305-2 2v5c0 .5522847.44771525 1 1 1z" fill="#fdd7ad"/><path id="Shape" d="m0 50.241c-.00201778-.3122087.14291847-.607187.39129142-.7963674.24837295-.1891803.57125807-.2505315.87170858-.1656326 8.17862138 2.1896105 16.7748692 2.2999554 25.007.321 13.541-3.114 18.835-2.945 30.81-1.964.5208219.041797.9216745.4775063.92 1v8.364c0 .5522847-.4477153 1-1 1h-56c-.55228475 0-1-.4477153-1-1z" fill="#f3d55b"/><path id="Shape" d="m57 30c.5522847 0 1 .4477153 1 1v11.63c-.0016623.2798312-.1204997.5461636-.3276477.7343071-.2071479.1881436-.4836523.2808831-.7623523.2556929-4.065-.335-8.146-.642-11.89-.62-13.32.077-19.12 4-30.88 4-4.54754678.0296567-9.07513633-.6036668-13.44-1.88-.41874438-.1316802-.70265792-.5210473-.7-.96v-13.16c0-.5522847.44771525-1 1-1z" fill="#fb7b76"/><path id="Shape" d="m35.006 0s-1.381 4.86-1.431 32.5c0 1.93-1.924 3.5-4.291 3.5-2.3 0-4.18-1.48-4.28-3.34v-1.4c.386-27.42 10.002-31.26 10.002-31.26z" fill="#805333"/><path id="Shape" d="m19 1s-.828 2.317-.859 18.907c-.1447993 1.2835765-1.2885307 2.2163284-2.575 2.1-.6412916.0624253-1.2799605-.142225-1.7655421-.5657369-.4855815-.4235119-.77514-1.028438-.8004579-1.6722631.605-16.449 6-18.769 6-18.769z" fill="#a56a43"/><path id="Shape" d="m48.006 1s-.829 2.317-.859 18.907c-.1453018 1.2837257-1.2893277 2.2163555-2.576 2.1-.6420429.0635904-1.2818806-.1405003-1.7685202-.5641096-.4866395-.4236092-.7769709-1.0292105-.8024798-1.6738904.61-16.449 6.006-18.769 6.006-18.769z" fill="#a56a43"/><g fill="#df4d60"><circle id="Oval" cx="5" cy="34" r="1"/><circle id="Oval" cx="9" cy="34" r="1"/><circle id="Oval" cx="13" cy="34" r="1"/><circle id="Oval" cx="17" cy="34" r="1"/><circle id="Oval" cx="21" cy="34" r="1"/><circle id="Oval" cx="19" cy="37" r="1"/><circle id="Oval" cx="15" cy="37" r="1"/><circle id="Oval" cx="11" cy="37" r="1"/><circle id="Oval" cx="7" cy="37" r="1"/><circle id="Oval" cx="5" cy="40" r="1"/><circle id="Oval" cx="9" cy="40" r="1"/><circle id="Oval" cx="13" cy="40" r="1"/><circle id="Oval" cx="17" cy="40" r="1"/><circle id="Oval" cx="7" cy="43" r="1"/><circle id="Oval" cx="11" cy="43" r="1"/><circle id="Oval" cx="15" cy="43" r="1"/><circle id="Oval" cx="19" cy="43" r="1"/><circle id="Oval" cx="23" cy="43" r="1"/><circle id="Oval" cx="21" cy="40" r="1"/><circle id="Oval" cx="23" cy="37" r="1"/><circle id="Oval" cx="25" cy="40" r="1"/><circle id="Oval" cx="29" cy="40" r="1"/><circle id="Oval" cx="33" cy="40" r="1"/><circle id="Oval" cx="53" cy="34" r="1"/><circle id="Oval" cx="49" cy="34" r="1"/><circle id="Oval" cx="45" cy="34" r="1"/><circle id="Oval" cx="41" cy="34" r="1"/><circle id="Oval" cx="37" cy="34" r="1"/><circle id="Oval" cx="39" cy="37" r="1"/><circle id="Oval" cx="43" cy="37" r="1"/><circle id="Oval" cx="47" cy="37" r="1"/><circle id="Oval" cx="51" cy="37" r="1"/><circle id="Oval" cx="37" cy="40" r="1"/><circle id="Oval" cx="41" cy="40" r="1"/><circle id="Oval" cx="45" cy="40" r="1"/><circle id="Oval" cx="49" cy="40" r="1"/><circle id="Oval" cx="53" cy="40" r="1"/><circle id="Oval" cx="35" cy="37" r="1"/></g><path id="Shape" d="m54 52h-2c-.5522847 0-1-.4477153-1-1s.4477153-1 1-1h2c.5522847 0 1 .4477153 1 1s-.4477153 1-1 1z" fill="#f5efca"/><path id="Shape" d="m48 52h-2c-.5522847 0-1-.4477153-1-1s.4477153-1 1-1h2c.5522847 0 1 .4477153 1 1s-.4477153 1-1 1z" fill="#f5efca"/><path id="Shape" d="m42 52h-2c-.5522847 0-1-.4477153-1-1s.4477153-1 1-1h2c.5522847 0 1 .4477153 1 1s-.4477153 1-1 1z" fill="#f5efca"/><path id="Shape" d="m36 52h-2c-.5522847 0-1-.4477153-1-1s.4477153-1 1-1h2c.5522847 0 1 .4477153 1 1s-.4477153 1-1 1z" fill="#f5efca"/><path id="Shape" d="m51 55h-2c-.5522847 0-1-.4477153-1-1s.4477153-1 1-1h2c.5522847 0 1 .4477153 1 1s-.4477153 1-1 1z" fill="#f5efca"/><path id="Shape" d="m45 55h-2c-.5522847 0-1-.4477153-1-1s.4477153-1 1-1h2c.5522847 0 1 .4477153 1 1s-.4477153 1-1 1z" fill="#f5efca"/><path id="Shape" d="m39 55h-2c-.5522847 0-1-.4477153-1-1s.4477153-1 1-1h2c.5522847 0 1 .4477153 1 1s-.4477153 1-1 1z" fill="#f5efca"/><path id="Shape" d="m33 55h-2c-.5522847 0-1-.4477153-1-1s.4477153-1 1-1h2c.5522847 0 1 .4477153 1 1s-.4477153 1-1 1z" fill="#f5efca"/><path id="Shape" d="m27 55h-2c-.5522847 0-1-.4477153-1-1s.4477153-1 1-1h2c.5522847 0 1 .4477153 1 1s-.4477153 1-1 1z" fill="#f5efca"/><path id="Shape" d="m21 55h-2c-.5522847 0-1-.4477153-1-1s.4477153-1 1-1h2c.5522847 0 1 .4477153 1 1s-.4477153 1-1 1z" fill="#f5efca"/><path id="Shape" d="m15 55h-2c-.5522847 0-1-.4477153-1-1s.4477153-1 1-1h2c.5522847 0 1 .4477153 1 1s-.4477153 1-1 1z" fill="#f5efca"/><path id="Shape" d="m9 55h-2c-.55228475 0-1-.4477153-1-1s.44771525-1 1-1h2c.55228475 0 1 .4477153 1 1s-.44771525 1-1 1z" fill="#f5efca"/></g></svg>