<svg id="Layer_1" enable-background="new 0 0 512 512" height="512" viewBox="0 0 512 512" width="512" xmlns="http://www.w3.org/2000/svg"><g><g><path d="m232 176h48v16h-48z" fill="#f0915a"/></g><g><path d="m352 192h-192c-26.51 0-48 21.49-48 48v64h48v192h80v-16h32v16h80v-192h48v-64c0-26.51-21.49-48-48-48z" fill="#fab991"/></g><g><path d="m160 272v32h-10.667v-21.333c0-5.891 4.776-10.667 10.667-10.667z" fill="#f0915a"/></g><g><path d="m282.667 464v32h-10.667v-21.333c0-5.891 4.776-10.667 10.667-10.667z" fill="#f0915a"/></g><g><path d="m229.333 464v32h10.667v-21.333c0-5.891-4.776-10.667-10.667-10.667z" fill="#f0915a"/></g><g><path d="m352 272v32h10.667v-21.333c0-5.891-4.776-10.667-10.667-10.667z" fill="#f0915a"/></g><g><path d="m240 16h-8c-35.346 0-64 28.654-64 64v16c-7.364 0-13.333 5.97-13.333 13.333v5.333c0 7.364 5.969 13.333 13.333 13.333v24c0 13.255 10.745 24 24 24h72c8.836 0 16 7.163 16 16v-48c13.255 0 24-10.745 24-24v-39.999c0-35.346-28.654-64-64-64z" fill="#fab991"/></g><path d="m236 32c-28.719 0-52 23.281-52 52 0 6.627 5.373 12 12 12h44c0 13.255 10.745 24 24 24s24-10.745 24-24v-12c0-28.719-23.281-52-52-52z" fill="#f0915a"/><g><circle cx="228" cy="96" fill="#f05a4b" r="12"/></g><g><path d="m264 208c0 4.418-3.582 8-8 8-4.418 0-8-3.582-8-8 0-4.418-3.582-8-8-8-4.418 0-8 3.582-8 8v16c0 4.418 3.582 8 8 8 4.418 0 8-3.582 8-8h16c0 4.418 3.582 8 8 8 4.418 0 8-3.582 8-8v-16c0-4.418-3.582-8-8-8-4.418 0-8 3.582-8 8z" fill="#f05a4b"/></g><g><g><path d="m260 288c6.627 0 12-5.373 12-12v-20h-4c-11.046 0-20 8.954-20 20 0 6.627 5.373 12 12 12z" fill="#faa032"/></g><g><path d="m252 288c-6.627 0-12-5.373-12-12v-20h4c11.046 0 20 8.954 20 20 0 6.627-5.373 12-12 12z" fill="#fad741"/></g></g><g><path d="m224 357.544v-3.088c6.37-3.69 10.667-10.564 10.667-18.456 0-11.782-9.551-21.333-21.333-21.333-11.783 0-21.334 9.551-21.334 21.333v40c0 11.782 9.551 21.333 21.333 21.333s21.333-9.551 21.333-21.333c.001-7.892-4.296-14.766-10.666-18.456z" fill="#f0915a"/></g><g><path d="m288 357.544v-3.088c-6.37-3.69-10.667-10.564-10.667-18.456 0-11.782 9.551-21.333 21.333-21.333s21.333 9.551 21.333 21.333v40c0 11.782-9.551 21.333-21.333 21.333s-21.333-9.551-21.333-21.333c0-7.892 4.297-14.766 10.667-18.456z" fill="#f0915a"/></g><g><path d="m218.667 320h-13.333c-2.946 0-5.333-2.388-5.333-5.333 0-2.946 2.388-5.333 5.333-5.333h13.333c2.946 0 5.333 2.388 5.333 5.333 0 2.945-2.388 5.333-5.333 5.333z" fill="#f05a4b"/></g><g><path d="m240 344c-9.087 0-16.405 7.575-15.983 16.755.375 8.148 7.079 14.852 15.227 15.227 9.18.423 16.756-6.895 16.756-15.982h16c4.418 0 8-3.582 8-8 0-4.418-3.582-8-8-8z" fill="#fad741"/></g><g><path d="m306.667 320h-13.333c-2.945 0-5.333-2.388-5.333-5.333 0-2.946 2.388-5.333 5.333-5.333h13.333c2.945 0 5.333 2.388 5.333 5.333 0 2.945-2.388 5.333-5.333 5.333z" fill="#f05a4b"/></g><g><path d="m242.667 464c-4.418 0-8-3.582-8-8v-8c0-4.418 3.582-8 8-8 4.418 0 8 3.582 8 8v8c0 4.418-3.582 8-8 8z" fill="#f05a4b"/></g><g><path d="m269.333 464c-4.418 0-8-3.582-8-8v-8c0-4.418 3.582-8 8-8 4.418 0 8 3.582 8 8v8c0 4.418-3.581 8-8 8z" fill="#f05a4b"/></g></g></svg>