<?xml version="1.0" encoding="iso-8859-1"?>
<!-- Generator: Adobe Illustrator 19.0.0, SVG Export Plug-In . SVG Version: 6.00 Build 0)  -->
<svg version="1.1" id="Capa_1" xmlns="http://www.w3.org/2000/svg" xmlns:xlink="http://www.w3.org/1999/xlink" x="0px" y="0px"
	 viewBox="0 0 496 496" style="enable-background:new 0 0 496 496;" xml:space="preserve">
<path style="fill:#ECECEC;" d="M296,56V8h-96v48c0,48.6-39.4,88-88,88l0,0C54.56,144,8,190.56,8,248l0,0
	c0,132.552,107.448,240,240,240l0,0c132.552,0,240-107.448,240-240l0,0c0-57.44-46.56-104-104-104l0,0C335.4,144,296,104.6,296,56z"
	/>
<path style="fill:#B6C1CE;" d="M248,464C120.336,464,16,364.304,8.48,238.528C8.2,241.656,8,244.8,8,248
	c0,132.552,107.448,240,240,240s240-107.448,240-240c0-3.2-0.2-6.344-0.48-9.472C480,364.304,375.664,464,248,464z"/>
<path style="fill:#F9E0A6;" d="M328.448,349.96C341.136,361.152,357.752,368,376,368c39.768,0,72-32.232,72-72s-32.232-72-72-72
	c-18.248,0-34.864,6.848-47.552,18.04c-2.696-1.296-5.52-2.04-8.448-2.04c-12.768,0-23.784,13.08-28.92,32l-9.824,12.016
	l12.512,13.72L328.448,349.96z"/>
<path style="fill:#EABD8C;" d="M96,312v24c0,4.416,3.584,8,8,8h16l0,0c15.832,21.112,35.816,38.752,58.728,51.848L200,408
	l-5.128-3.112c-21.368-12.976-34.488-36.104-34.656-61.104l0,0c-0.12-17.592-14.408-31.784-32-31.784H96z"/>
<g>
	<path style="fill:#F9E0A6;" d="M314.088,320l-4.416-6.888c-8.72-5.816-14.64-14.976-16.368-25.312v-0.008
		C290.24,269.448,274.36,256,255.76,256l0,0c-10.096,0-19.776,4.008-26.912,11.144l-15.048,14.92l-0.32,0.312l-0.248,0.216
		c0.296,0.6,0.848,0.976,1.168,1.56C221.136,296.352,234,304,248.04,304H256h8h-11.072c-17.472,0-34.016-9.456-41.544-25.216
		C204.728,264.84,190.664,256,175.256,256c-4.8,0-9.56,0.864-14.056,2.552L104,280l-12.904-19.36
		c-1.936-2.896-5.192-4.64-8.672-4.64C76.664,256,72,260.664,72,266.424V296c0,8.84,7.16,16,16,16h38.704
		c10.08,0,19.4,4.304,25.904,11.416C157.68,328.96,160,336.488,160,344l0,0c0,39.248,31.456,71.704,70.704,71.992
		c31.856,0.24,63.152-8.312,90.456-24.688L360,368l13.064-8l-44.616-10.04L314.088,320z"/>
	<path style="fill:#F9E0A6;" d="M213.376,282.472L213.376,282.472c9.656,13.512,25.24,21.528,41.84,21.528h45.552l-12.088-29.056
		L288,274c-6.776-10.88-18.752-18-32.24-18c-10.096,0-19.768,4.008-26.912,11.144L213.376,282.472z"/>
</g>
<path style="fill:#EABD8C;" d="M256,256l-2.312-3.472C244.76,239.144,240,223.416,240,207.328l0,0
	c0-15.392,3.128-30.624,9.192-44.776l5.616-13.112c6.064-14.144,9.192-29.376,9.192-44.768V8h-32v93.168
	c0,17.648-4.112,35.048-12,50.832l0,0c-7.888,15.784-12,33.184-12,50.832l0,0c0,19.264,3.68,38.36,10.832,56.248L224,272L256,256z"
	/>
<path d="M384,136c-44.112,0-80-35.888-80-80V0H192v56c0,44.112-35.888,80-80,80C50.24,136,0,186.24,0,248
	c0,136.752,111.248,248,248,248s248-111.248,248-248C496,186.24,445.76,136,384,136z M248,480C120.08,480,16,375.92,16,248
	c0-52.936,43.064-96,96-96s96-43.064,96-96V16h16v16h16V16h16v88.672c0,14.392-2.872,28.4-8.536,41.616l-5.624,13.12
	c-6.528,15.224-9.84,31.352-9.84,47.92c0,15.032,3.768,29.64,10.896,42.712c-5.736,1.672-11.048,4.432-15.768,8.224l-0.856-2.152
	C219.456,239.08,216,221.16,216,202.832c0-16.32,3.856-32.664,11.16-47.256c8.392-16.8,12.84-35.624,12.84-54.408V48h-16v53.168
	c0,16.32-3.856,32.664-11.16,47.256c-8.392,16.8-12.84,35.624-12.84,54.408c0,20.368,3.832,40.288,11.408,59.208l1.952,4.88
	c-8.984-11.8-22.864-18.92-38.104-18.92c-5.768,0-11.44,1.032-16.864,3.056l-51.256,19.224l-9.384-14.072
	C94.328,251.072,88.6,248,82.424,248C72.264,248,64,256.264,64,266.424V296c0,13.232,10.768,24,24,24v16c0,8.824,7.176,16,16,16
	h12.048c16.136,20.656,35.864,37.736,58.712,50.792l10.504,6C198.432,418.312,214.544,424,232,424
	c32.84,0,65.104-8.936,93.272-25.832L363.88,375c3.992,0.616,8.04,1,12.12,1c44.112,0,80-35.888,80-80s-35.888-80-80-80
	c-17.824,0-35.08,5.984-49.12,16.944c-2.288-0.632-4.584-0.944-6.88-0.944c-13.736,0-25.832,10.464-33.184,28.144
	c-7.104-6.504-16.2-10.672-26.24-11.712l-0.232-0.344c-8.08-12.104-12.344-26.2-12.344-40.76c0-14.392,2.872-28.4,8.536-41.616
	l5.624-13.12c6.528-15.224,9.84-31.352,9.84-47.92V16h16v40c0,52.936,43.064,96,96,96s96,43.064,96,96
	C480,375.92,375.92,480,248,480z M285.408,289.12c2.088,12.472,9.304,23.64,19.824,30.648l10.336,6.888l8.872-13.312l-10.336-6.888
	c-6.848-4.56-11.552-11.84-12.912-19.968c-0.568-3.44-1.624-6.664-2.88-9.768l0.488-2.624C303.04,258.488,311.56,248,320,248
	c1.592,0,3.224,0.416,4.992,1.256l4.776,2.28l3.976-3.504C345.464,237.696,360.472,232,376,232c35.288,0,64,28.712,64,64
	s-28.712,64-64,64c-15.528,0-30.536-5.696-42.256-16.04l-10.592,12c6.024,5.312,12.776,9.584,19.952,12.848l-26.064,15.64
	C291.352,399.848,261.944,408,232,408c-35.288,0-64-28.712-64-64c0-6.888,2.96-13.448,8.128-18l-10.576-12
	c-2.048,1.808-3.872,3.816-5.488,5.96c-8.024-9.856-20.104-15.96-33.36-15.96H88c-4.416,0-8-3.584-8-8v-29.576
	c0-2.152,3.24-3.144,4.44-1.344l16.432,24.64l63.144-23.68c3.608-1.352,7.4-2.04,11.24-2.04c12.208,0,23.184,6.792,28.648,17.712
	C213.248,300.392,232.032,312,252.92,312H264v-16h-11.08c-11.216,0-21.56-4.744-28.8-12.808l10.384-10.384
	c5.68-5.68,13.224-8.808,21.256-8.808C270.512,264,282.984,274.56,285.408,289.12z M104,320h22.704
	c11.68,0,22.008,7.448,25.712,18.528h0.008C152.176,340.336,152,342.152,152,344c0,9.36,1.704,18.312,4.672,26.672
	c-11.216-9.264-21.432-19.68-30.272-31.472L124,336h-20V320z"/>
<rect x="360" y="400" width="16" height="16"/>
<rect x="424" y="200" width="16" height="16"/>
<rect x="296" y="176" width="16" height="16"/>
<rect x="144" y="216" width="16" height="16"/>
<rect x="96" y="376" width="16" height="16"/>
<rect x="240" y="448" width="16" height="16"/>
<rect x="48" y="200" width="16" height="16"/>
<g>
</g>
<g>
</g>
<g>
</g>
<g>
</g>
<g>
</g>
<g>
</g>
<g>
</g>
<g>
</g>
<g>
</g>
<g>
</g>
<g>
</g>
<g>
</g>
<g>
</g>
<g>
</g>
<g>
</g>
</svg>
