<svg id="Capa_1" enable-background="new 0 0 512 512" height="512" viewBox="0 0 512 512" width="512" xmlns="http://www.w3.org/2000/svg"><g><path d="m105.594 150.722h13.994v-9.072c0-7.969 6.483-14.453 14.453-14.453h63.729c11.824 0 22.618-6.485 28.17-16.925l7.525-14.152c2.516-4.729 7.405-7.667 12.761-7.667h36.957c16.49 0 29.905 13.416 29.905 29.906v32.362h13.994c8.077 0 15.412 3.224 20.798 8.446 1.56-8.176 2.381-16.614 2.381-25.244.001-73.963-59.959-133.923-133.923-133.923s-133.923 59.96-133.923 133.924c0 8.63.821 17.068 2.381 25.244 5.386-5.222 12.72-8.446 20.798-8.446z" fill="#bb5d4c"/><path d="m105.594 149.722h12.995v-8.072c0-4.8 2.188-9.088 5.621-11.922 2.001-64.977 50.28-118.298 112.99-128.107-6.799-1.064-13.765-1.621-20.862-1.621-73.964 0-133.923 59.96-133.923 133.924 0 8.212.744 16.25 2.16 24.055 5.515-5.122 12.899-8.257 21.019-8.257z" fill="#a44f3e"/><path d="m317.016 251.91h-24.457c-4.434 5.182-9.467 9.837-15.005 13.842l23.274 41.717h34.886c-.975-23.367-8.193-43.63-18.698-55.559z" fill="#bb5d4c"/><path d="m326.687 222.034h-17.521c-3.628 11.535-9.651 22.012-17.466 30.875h26.483c9.144 0 16.626-7.482 16.626-16.626 0-6.038-3.273-11.336-8.122-14.249z" fill="#fd8087"/><path d="m348.201 306.469h-263.726c-28.448 0-51.509 23.061-51.509 51.509v143.72c0 5.69 4.612 10.302 10.302 10.302h287.421l1-1v-6.237c0-13.505 7.551-25.722 19.707-31.882l1.875-.95-1.92-.855c-18.323-8.16-30.163-26.381-30.163-46.419v-33.394c0-2.896.289-5.801.859-8.637 2.998-14.903 13.799-27.319 28.187-32.403l1.069-.378-.002-.004c4.338-1.407 8.85-2.12 13.428-2.12h33.703l.03-1c-5.139-23.032-25.682-40.252-50.261-40.252z" fill="#eaf6ff"/><g><path d="m74.688 501.698v-143.72c0-28.448 23.061-51.509 51.509-51.509h-41.722c-28.448 0-51.509 23.061-51.509 51.509v143.72c0 5.69 4.612 10.302 10.302 10.302h41.722c-5.69 0-10.302-4.612-10.302-10.302z" fill="#d8ecfe"/></g><path d="m419.502 471.401c-6.112 2.61-12.833 4.058-19.888 4.058h-27.623c-7.055 0-13.776-1.448-19.888-4.058-12.609 5.838-21.415 18.618-21.415 33.362v7.237h105.078c2.845 0 5.151-2.306 5.151-5.151v-2.086c0-14.745-8.806-27.525-21.415-33.362z" fill="#ffbd86"/><path d="m371.991 476.459c-7.507 0-14.634-1.61-21.074-4.482-11.971 6.074-20.229 18.509-20.229 32.786v7.237h31.421v-7.237c0-11.356 5.221-21.55 13.381-28.304z" fill="#f6a96c"/><g fill="#d8ecfe"><path d="m164.972 271.91c-3.727-1.991-7.295-4.241-10.669-6.741l-40.086 71.853c-1.136 2.036-.762 4.582.911 6.206l49.844 48.364z"/><path d="m318.46 337.022-40.086-71.853c-3.374 2.501-6.943 4.75-10.669 6.741v119.682l49.844-48.364c1.673-1.624 2.047-4.17.911-6.206z"/></g><g fill="#fff"><path d="m164.972 360.96-46.521 42.811c-1.64 1.509-2.123 3.902-1.198 5.93l46.719 102.299 1-1z"/><path d="m314.225 403.772-46.521-42.811v150.039l1 1 46.719-102.298c.926-2.028.442-4.421-1.198-5.93z"/></g><g><path d="m163.972 305.306h104.732v206.694h-104.732z" fill="#fe99a0"/></g><g><path d="m163.972 305.306h21.292v206.694h-21.292z" fill="#fd8087"/></g><g fill="#fdb4ba"><path d="m182.483 279.928.314-.944c-6.625-1.796-12.937-4.362-18.826-7.608v117.366l44.293-41.304z"/><path d="m220.074 358.792c-.724 1.897-2.405 2.573-3.736 2.573s-3.013-.676-3.736-2.573l-3.764-9.855v163.063h15v-163.063z"/><path d="m249.878 278.984.314.944-25.782 67.51 44.293 41.305v-117.366c-5.888 3.246-12.2 5.812-18.825 7.607z"/></g><path d="m227.553 281.954h-22.43c-8.436 0-16.582-1.247-24.286-3.533l30.83 80.728c1.638 4.288 7.704 4.288 9.342 0l30.83-80.728c-7.704 2.286-15.85 3.533-24.286 3.533z" fill="#ea9b58"/><path d="m205.123 282.954c-8.271 0-16.26-1.185-23.835-3.352l30.379 79.547c1.638 4.288 7.704 4.288 9.342 0l7.434-19.465-21.665-56.73z" fill="#d88a55"/><g><path d="m119.588 196.418v-46.697h-13.994c-17.069 0-30.905 13.837-30.905 30.905v11.502c0 17.069 13.837 30.905 30.905 30.905h18.256c-2.753-8.382-4.262-17.323-4.262-26.615z" fill="#d88a55"/><path d="m327.083 149.722h-13.995v46.697c0 9.292-1.509 18.233-4.262 26.616h18.256c17.069 0 30.905-13.837 30.905-30.905v-11.502c.001-17.069-13.836-30.906-30.904-30.906z" fill="#ea9b58"/></g><g><path d="m232.582 95.651-7.526 14.152c-5.365 10.089-15.86 16.394-27.287 16.394h-63.729c-8.534 0-15.453 6.918-15.453 15.453v54.768c0 47.792 38.743 86.535 86.535 86.535h22.43c47.792 0 86.535-38.743 86.535-86.535v-78.059c0-17.069-13.837-30.905-30.905-30.905h-36.957c-5.713 0-10.96 3.152-13.643 8.197z" fill="#f6a96c"/></g><g><g><path d="m150.922 196.418v-54.768c0-8.534 6.918-15.453 15.453-15.453h-32.333c-8.534 0-15.453 6.918-15.453 15.453v54.768c0 47.792 38.743 86.535 86.535 86.535h22.43c1.663 0 3.312-.058 4.952-.151-45.488-2.567-81.584-40.255-81.584-86.384z" fill="#ea9b58"/></g></g><g><g><path d="m169.98 184.558c-4.143 0-7.5-3.358-7.5-7.5v-22.11c0-4.142 3.357-7.5 7.5-7.5s7.5 3.358 7.5 7.5v22.11c0 4.142-3.358 7.5-7.5 7.5z" fill="#a44f3e"/></g><g><path d="m262.696 184.558c-4.143 0-7.5-3.358-7.5-7.5v-22.11c0-4.142 3.357-7.5 7.5-7.5s7.5 3.358 7.5 7.5v22.11c0 4.142-3.357 7.5-7.5 7.5z" fill="#a44f3e"/></g></g><g><path d="m217.876 205.811c-1.482 0-2.979-.438-4.287-1.351l-12.877-8.991c-2.864-2-3.969-5.714-2.662-8.955l11.333-28.096c1.548-3.842 5.915-5.7 9.761-4.15 3.841 1.549 5.699 5.919 4.149 9.761l-9.099 22.56 7.982 5.573c3.396 2.371 4.227 7.047 1.855 10.443-1.457 2.087-3.787 3.206-6.155 3.206z" fill="#a44f3e"/></g><g><path d="m191.105 223.034c-3.26 0-5.703 2.992-5.054 6.186 2.865 14.104 15.336 24.719 30.286 24.719s27.421-10.615 30.286-24.719c.649-3.194-1.794-6.186-5.054-6.186z" fill="#fd8087"/></g><g><path d="m207.685 229.22c-.649-3.194 1.794-6.186 5.054-6.186h-21.633c-3.26 0-5.702 2.992-5.054 6.186 2.865 14.104 15.336 24.719 30.286 24.719 3.806 0 7.45-.691 10.817-1.95-9.859-3.683-17.334-12.255-19.47-22.769z" fill="#fe646f"/></g><g><g><path d="m456.968 396.867h-6.55v27.788c0 5.718-.964 11.211-2.713 16.345h9.263c12.187 0 22.067-9.88 22.067-22.067-.001-12.187-9.88-22.066-22.067-22.066z" fill="#ffbd86"/><path d="m321.188 424.655v-27.788h-6.55c-12.187 0-22.067 9.88-22.067 22.067 0 12.187 9.88 22.067 22.067 22.067h9.263c-1.75-5.134-2.713-10.628-2.713-16.346z" fill="#f6a96c"/></g><path d="m450.384 381.722-1.831-.769c-2.561.311-5.131.475-7.663.475h-34.511c-13.544 0-26.479-4.204-37.407-12.158l-.589-.428-.589.428c-10.927 7.954-23.866 12.158-37.42 12.158h-8.068l-1.239 1c0-.001 0-.001 0-.002-.575 2.856-.879 5.809-.879 8.834v33.394c0 28.61 23.193 51.804 51.804 51.804h27.623c28.61 0 51.804-23.193 51.804-51.804v-33.394c-.001-3.274-.364-6.464-1.035-9.538z" fill="#fed2a4"/><path d="m353.223 352.795-3.322-3.517c-14.604 5.16-25.725 17.695-28.834 33.15h9.307c14.206 0 27.324-4.598 37.992-12.362l.017-1.224-.083-.088c-5.842-4.358-10.963-9.734-15.077-15.959z" fill="#bb5d4c"/><g><path d="m406.379 382.428h34.511c3.227 0 6.395-.247 9.494-.706-4.369-20.014-22.183-35.003-43.507-35.003h-42.148c-5.204 0-10.196.901-14.838 2.542 11.071 19.782 32.206 33.167 56.488 33.167z" fill="#a44f3e"/></g><g><path d="m345.626 424.655v-33.394c0-3.796.478-7.48 1.371-10.998-5.305 1.408-10.875 2.165-16.623 2.165h-9.307c.01-.052.018-.103.028-.154-.595 2.903-.907 5.909-.907 8.987v33.394c0 28.61 23.193 51.804 51.804 51.804h25.438c-28.611 0-51.804-23.194-51.804-51.804z" fill="#ffbd86"/></g><g><g><path d="m360.563 424.078c-4.143 0-7.5-3.358-7.5-7.5v-10.568c0-4.142 3.357-7.5 7.5-7.5s7.5 3.358 7.5 7.5v10.568c0 4.142-3.357 7.5-7.5 7.5z" fill="#a44f3e"/></g><g><path d="m411.042 424.078c-4.143 0-7.5-3.358-7.5-7.5v-10.568c0-4.142 3.357-7.5 7.5-7.5s7.5 3.358 7.5 7.5v10.568c0 4.142-3.357 7.5-7.5 7.5z" fill="#a44f3e"/></g></g><g><path d="m385.803 452.915c-6.669 0-13.338-2.538-18.415-7.615-2.93-2.929-2.93-7.678-.001-10.607 2.93-2.929 7.679-2.929 10.606 0 4.307 4.307 11.313 4.307 15.619 0 2.929-2.929 7.678-2.927 10.606 0 2.929 2.929 2.929 7.678-.001 10.607-5.076 5.076-11.745 7.615-18.414 7.615z" fill="#a44f3e"/></g></g></g></svg>