<svg id="Capa_1" enable-background="new 0 0 512 512" height="512" viewBox="0 0 512 512" width="512" xmlns="http://www.w3.org/2000/svg"><g><path d="m354.382 315.75h-344.08c-5.69 0-10.302 4.613-10.302 10.302v10.302c0 5.69 4.612 10.302 10.302 10.302h10.302l123.622 37.602 123.622-37.602h86.535c5.69 0 10.302-4.612 10.302-10.302v-10.302c-.001-5.689-4.613-10.302-10.303-10.302z" fill="#cbb0f2"/><path d="m252.394 384.258-15.452-37.602h-216.338v75.203l115.895 15.453 100.443-15.453z" fill="#f2d1ff"/><path d="m267.847 346.656v75.203l-15.453 13.53-15.452-13.53v-75.203z" fill="#dfbdf0"/><path d="m393.529 326.052v10.302c0 5.687-4.615 10.302-10.302 10.302h-30.905c5.687 0 10.302-4.615 10.302-10.302v-10.302c0-5.687-4.615-10.302-10.302-10.302h30.905c5.687 0 10.302 4.616 10.302 10.302z" fill="#b696ef"/><path d="m254.455 452.765h-249.304c-2.845 0-5.151-2.306-5.151-5.151v-5.151c0-11.379 9.225-20.604 20.604-20.604h218.398c11.379 0 20.604 9.225 20.604 20.604v5.151c0 2.844-2.307 5.151-5.151 5.151z" fill="#736572"/><path d="m288.451 442.463v5.151c0 2.843-2.308 5.151-5.151 5.151h-30.905c2.843 0 5.151-2.308 5.151-5.151v-5.151c0-11.383-9.22-20.604-20.604-20.604h30.905c11.384 0 20.604 9.22 20.604 20.604z" fill="#615260"/><path d="m278.965 177.706h-23.266c-4.434 0-8.371-2.837-9.773-7.044l-7.954-23.861 38.931-12.198 19.79 12.198-7.954 23.861c-1.403 4.207-5.34 7.044-9.774 7.044z" fill="#00ddf9"/><path d="m325.537 146.801-7.953 23.859c-1.401 4.213-5.336 7.046-9.776 7.046h-30.905c4.44 0 8.375-2.833 9.776-7.046l7.953-23.859 15.075-12.198z" fill="#00c7f8"/><path d="m483.155 442.463v-269.908c0-62.585-50.735-113.32-113.32-113.32h-121.561c-22.758 0-41.207 18.449-41.207 41.207v30.905c0 8.534 6.918 15.453 15.453 15.453h160.708c22.758 0 41.207 18.449 41.207 41.207v148.346c0 22.758-18.449 41.207-41.207 41.207h-53.569c-5.69 0-10.302 4.612-10.302 10.302v54.6c0 5.69 4.612 10.302 10.302 10.302h143.195c5.689.001 10.301-4.612 10.301-10.301z" fill="#bcf1f8"/><path d="m512 172.555v269.907c0 5.687-4.615 10.302-10.302 10.302h-30.905c5.687 0 10.302-4.615 10.302-10.302v-269.907c0-62.583-50.736-113.32-113.32-113.32h30.905c62.584 0 113.32 50.737 113.32 113.32z" fill="#8ef0f0"/><path d="m283.3 284.845h50.479c8.534 0 15.453 6.918 15.453 15.453 0 8.534-6.918 15.453-15.453 15.453h-50.479c-8.534 0-15.453-6.918-15.453-15.453 0-8.535 6.919-15.453 15.453-15.453z" fill="#fcf1f2"/><path d="m378.076 300.298c0 4.265-1.731 8.128-4.533 10.92-2.792 2.802-6.655 4.533-10.92 4.533h-30.905c4.265 0 8.128-1.731 10.92-4.533 2.802-2.792 4.533-6.655 4.533-10.92 0-8.53-6.923-15.453-15.453-15.453h30.905c8.531 0 15.453 6.923 15.453 15.453z" fill="#f4e5e0"/><path d="m330.173 246.213h-96.837c-4.268 0-7.726-3.459-7.726-7.726s3.459-7.726 7.726-7.726h96.837c4.268 0 7.726 3.459 7.726 7.726s-3.458 7.726-7.726 7.726z" fill="#fcf1f2"/><path d="m309.569 216.338h-55.63c-4.268 0-7.726-3.459-7.726-7.726 0-4.268 3.459-7.726 7.726-7.726h55.63c4.268 0 7.726 3.459 7.726 7.726.001 4.267-3.458 7.726-7.726 7.726z" fill="#fcf1f2"/><g fill="#fff"><circle cx="307.509" cy="103.018" r="10.302"/><circle cx="256" cy="103.018" r="10.302"/></g></g></svg>