<svg id="Capa_1" enable-background="new 0 0 512 512" height="512" viewBox="0 0 512 512" width="512" xmlns="http://www.w3.org/2000/svg"><g><g><path d="m301 512h-90v-132.807l24.902 21.826c7.969 6.987 15 12.568 20.098 16.436 5.098-3.867 12.129-9.448 20.098-16.436l24.902-21.826z" fill="#f9f5f3"/></g><g><path d="m301 132.807-24.902-21.826c-7.969-6.987-15-12.568-20.098-16.436-5.098 3.867-12.129 9.448-20.098 16.436l-24.902 21.826v-132.807h90z" fill="#f9f5f3"/></g><path d="m301 512v-132.807l-24.902 21.826c-7.969 6.987-15 12.568-20.098 16.436v94.545z" fill="#f0dbd8"/><path d="m256 94.545c5.098 3.867 12.129 9.448 20.098 16.436l24.902 21.826v-132.807h-45z" fill="#f0dbd8"/><g><path d="m256 454.091c-11.378-7.703-21.329-14.253-39.902-30.513-35.479-30.996-95.098-94.014-95.098-167.578s59.619-136.582 95.127-167.593c19.446-17.035 31.343-24.723 39.873-30.498 11.378 7.703 21.329 14.253 39.902 30.513 35.479 30.996 95.098 94.014 95.098 167.578s-59.619 136.582-95.127 167.593c-19.446 17.035-31.343 24.723-39.873 30.498z" fill="#f36a3d"/></g><path d="m295.873 423.593c35.508-31.011 95.127-94.029 95.127-167.593s-59.619-136.582-95.098-167.578c-18.574-16.26-28.524-22.81-39.902-30.513v396.182c8.529-5.775 20.427-13.462 39.873-30.498z" fill="#ec4c36"/><g id="Muscle_pain_2_"><g><path d="m241 136h30v240h-30z" fill="#ec4c36"/></g><g><path d="m323.734 319.296-29.297-6.592c4.366-19.321 6.563-38.408 6.563-56.704s-2.197-37.383-6.562-56.704l29.297-6.592c4.804 21.489 7.265 42.788 7.265 63.296s-2.461 41.807-7.266 63.296z" fill="#e62e2e"/></g><g><path d="m188.266 319.296c-4.805-21.489-7.266-42.788-7.266-63.296s2.461-41.807 7.266-63.296l29.297 6.592c-4.366 19.321-6.563 38.408-6.563 56.704s2.197 37.383 6.562 56.704z" fill="#ec4c36"/></g><g><path d="m466 217.211-30-30-19.395 19.394-21.21-21.21 40.605-40.606 30 30 19.395-19.394 21.21 21.21z" fill="#ffbe40"/></g><g><path d="m436 367.211-40.605-40.606 21.21-21.21 19.395 19.394 30-30 40.605 40.606-21.21 21.21-19.395-19.394z" fill="#ffbe40"/></g><g><path d="m46 217.211-40.605-40.606 21.21-21.21 19.395 19.394 30-30 40.605 40.606-21.21 21.21-19.395-19.394z" fill="#ffdf40"/></g><g><path d="m76 367.211-30-30-19.395 19.394-21.21-21.21 40.605-40.606 30 30 19.395-19.394 21.21 21.21z" fill="#ffdf40"/></g></g><path d="m256 136h15v240h-15z" fill="#e62e2e"/></g></svg>