<svg width="35" height="28" viewBox="0 0 35 28" fill="none" xmlns="http://www.w3.org/2000/svg">
	<g clip-path="url(#clip0)">
		<path d="M16.4923 5.45408L16.4617 5.43166C14.8227 4.22969 12.5265 3.78597 10.3824 4.25684C7.65887 4.85493 4.84746 5.15803 2.02324 5.15803H1.08669C0.517251 5.15803 0.23211 5.70879 0.634716 6.03093L1.37542 6.62349C1.90852 7.04997 2.63162 7.28958 3.38556 7.28958H4.065C4.81894 7.28958 5.54204 7.52918 6.07514 7.95566C6.60824 8.38214 7.33133 8.62175 8.08528 8.62175H9.46781C10.2218 8.62175 10.9449 8.86135 11.478 9.28783L11.8665 9.5987C12.3996 10.0252 13.1227 10.2648 13.8767 10.2648H16.4923V5.45408Z" fill="#62A4FB" />
		<path d="M16.7117 14.9136C17.037 14.8275 17.1971 14.589 17.511 14.4121C17.4681 14.4015 17.4252 14.391 17.3825 14.3806C15.0751 13.8153 12.7823 13.2118 10.5061 12.5708C10.1725 12.4769 9.82563 12.3751 9.58465 12.1681C9.0738 11.7293 9.36091 10.8869 10.0794 10.7162C10.6627 10.5777 11.2634 10.8348 11.8601 10.9299C12.3604 11.0096 12.9023 10.9687 13.3415 10.7613C13.7808 10.5538 14.0985 10.1666 14.0915 9.75864C14.0813 9.15548 13.3751 8.67199 12.6327 8.56613C11.8904 8.46027 11.1333 8.64652 10.4341 8.87233C10.007 9.01024 9.58796 9.10742 9.17845 9.27593C8.80824 9.42827 8.47873 9.61762 8.20436 9.86455C7.66605 10.3491 7.32859 10.9393 7.33443 11.5971C7.34063 12.2888 7.7314 12.9727 8.38112 13.429C9.01274 13.8727 9.8376 14.0892 10.6374 14.2962C11.9463 14.635 13.2537 14.9778 14.5596 15.3243C15.502 15.4897 16.0346 15.0928 16.7117 14.9136Z" fill="#A2F5C3" />
		<path d="M18.5077 5.45408L18.5383 5.43166C20.1773 4.22969 22.4735 3.78597 24.6176 4.25684C27.3411 4.85493 30.1525 5.15803 32.9767 5.15803H33.9132C34.4826 5.15803 34.7677 5.70879 34.3651 6.03093L33.6244 6.62349C33.0913 7.04997 32.3682 7.28958 31.6143 7.28958H30.9349C30.1809 7.28958 29.4578 7.52918 28.9247 7.95566C28.3916 8.38214 27.6685 8.62175 26.9146 8.62175H25.532C24.7781 8.62175 24.055 8.86135 23.5219 9.28783L23.1334 9.5987C22.6003 10.0252 21.8772 10.2648 21.1232 10.2648H18.5077V5.45408Z" fill="#62A4FB" />
		<path d="M33.9132 5.15801H32.9768C32.5896 5.15801 32.2028 5.15176 31.8164 5.14038L31.5119 5.38399C30.9788 5.81047 30.2557 6.05007 29.5018 6.05007H28.8223C28.0684 6.05007 27.3453 6.28968 26.8122 6.71616C26.2791 7.14263 25.556 7.38224 24.802 7.38224H23.4195C22.6656 7.38224 21.9425 7.62185 21.4094 8.04832L21.0208 8.3592C20.4877 8.78568 19.7646 9.02528 19.0107 9.02528H18.5078V10.2647H21.1234C21.8773 10.2647 22.6004 10.0251 23.1335 9.59864L23.522 9.28776C24.0551 8.86128 24.7782 8.62168 25.5322 8.62168H26.9147C27.6687 8.62168 28.3917 8.38207 28.9249 7.95559C29.458 7.52911 30.1811 7.28951 30.935 7.28951H31.6144C32.3684 7.28951 33.0915 7.0499 33.6246 6.62342L34.3653 6.03086C34.7679 5.70883 34.4827 5.15801 33.9132 5.15801Z" fill="#5392F9" />
		<path d="M20.7556 22.2155C20.2572 21.8055 19.672 21.4752 19.0625 21.1731H18.7952C18.4101 21.2853 18.0315 21.4124 17.6593 21.549C17.487 21.6123 17.3161 21.6777 17.1465 21.7453C17.0905 21.7676 17.0349 21.7905 16.9793 21.8132C16.9523 21.8248 16.8449 21.8697 16.813 21.8835C17.3157 22.0738 17.8198 22.2626 18.3054 22.4782C19.1016 22.8316 19.8846 23.2933 20.2351 23.9657C20.5127 24.4981 20.4813 25.0871 20.3256 25.6592C20.2434 25.9609 20.6731 26.189 20.9825 26.0044C21.5601 25.6597 21.9393 25.0769 21.9776 24.4905C22.0331 23.6423 21.4958 22.8244 20.7556 22.2155Z" fill="#BED9FD" />
		<path d="M19.8053 1.84473C19.8053 0.825915 18.7732 0 17.5 0C16.2268 0 15.1947 0.825915 15.1947 1.84473C15.1947 2.57177 15.7206 3.20034 16.4843 3.5009V27.1904C16.4843 27.6375 16.9374 28 17.4963 28C18.0553 28 18.5084 27.6375 18.5084 27.1904V3.50394C19.2761 3.20456 19.8053 2.57414 19.8053 1.84473Z" fill="#BED9FD" />
		<path d="M17.5 0C17.1192 0 16.7602 0.0743662 16.4437 0.205239C17.1853 0.511831 17.6927 1.1307 17.6927 1.84473C17.6927 2.55865 17.1851 3.17685 16.4437 3.48349C16.4574 3.48913 16.4705 3.49544 16.4843 3.5009V19.9692L15.7801 20.5709L16.4843 21.3741V27.1904C16.4843 27.6376 16.9374 28.0001 17.4963 28.0001C18.0553 28.0001 18.5084 27.6376 18.5084 27.1904V16.3862L19.2126 15.6586L18.5084 14.4332V3.50394C19.2762 3.20456 19.8053 2.5742 19.8053 1.84479C19.8053 0.825916 18.7732 0 17.5 0V0Z" fill="#9EC8FC" />
		<path d="M27.5318 11.1012C27.4113 10.6112 27.0921 10.1592 26.6484 9.80853C26.2616 9.50273 25.7801 9.27389 25.2534 9.16397C25.0053 9.1122 24.7484 9.08465 24.5087 9.01186C24.2525 8.934 24.0244 8.80707 23.7764 8.71349C23.3462 8.55118 22.8558 8.4927 22.3851 8.54774C21.607 8.63867 20.848 9.12938 20.8318 9.75834C20.8198 10.2243 21.2265 10.6575 21.7546 10.8542C22.2827 11.0508 22.9056 11.036 23.4616 10.897C23.8393 10.8027 24.2124 10.652 24.6068 10.6764C25.0581 10.7043 25.4628 10.9842 25.5792 11.3341C25.6955 11.684 25.526 12.0803 25.177 12.3108C24.9404 12.4672 24.6416 12.5476 24.3502 12.6246C21.7484 13.3133 19.1465 14.0019 16.5447 14.6906C15.6776 14.9201 14.7901 15.1583 14.077 15.6148C12.9945 16.3077 12.5727 17.358 12.6641 18.4329C12.7599 19.5586 13.6667 20.4135 14.8096 21.0243C15.3403 21.3079 15.9089 21.5385 16.4851 21.7592V19.9694C16.3877 19.9243 16.2903 19.8792 16.193 19.8341C15.7783 19.642 15.3544 19.4438 15.0487 19.1486C14.4228 18.5441 14.4634 17.5659 15.138 16.996C15.598 16.6075 16.2609 16.4263 16.8962 16.2588L18.5083 15.8338L19.4678 16.1443L20.3502 15.3483L24.4975 14.2548C25.1415 14.0851 25.7981 13.9101 26.3404 13.5846C27.2752 13.0235 27.7574 12.0185 27.5318 11.1012Z" fill="#BED9FD" />
		<path d="M21.7316 16.4212C21.3564 15.9378 20.956 15.637 20.3502 15.3481C19.4293 15.591 19.3905 15.6032 18.5083 15.8337L18.5099 16.3862C18.9146 16.5019 19.312 16.6384 19.6318 16.8645C20.2622 17.3101 20.4765 18.0966 20.1208 18.7064C19.908 19.0714 19.526 19.3553 19.1247 19.5987C18.3084 20.0938 17.383 20.4582 16.4865 20.8548C15.5901 21.2514 14.7039 21.6917 14.022 22.3031C13.3399 22.9146 12.8777 23.7237 12.9689 24.54C13.0308 25.0944 13.3914 25.6363 13.9319 25.9738C14.2423 26.1676 14.6859 25.9505 14.6063 25.642C14.4565 25.0623 14.403 24.4713 14.6813 23.9339C15.0522 23.2177 15.9304 22.7629 16.7896 22.4044C18.5941 21.6517 20.669 21.032 21.7032 19.6298C21.8616 19.415 21.9877 19.1845 22.0798 18.9455C22.4029 18.1073 22.3086 17.1643 21.7316 16.4212Z" fill="#A2F5C3" />
	</g>
	<defs>
		<clipPath id="clip0">
			<rect width="35" height="28" fill="white" />
		</clipPath>
	</defs>
</svg>
